<?xml version="1.0" encoding="UTF-8"?>
<svg xmlns="http://www.w3.org/2000/svg" width="20" height="14" viewBox="0 0 20 14">
  <path fill="#D9BAA4" d="M18.07,2.35 L13,2.35 L13,3.76 L18.09,3.76 L18.07,2.35 Z M17,12.05 C16.6153781,12.3048499 16.1611757,12.4341229 15.7,12.42 C15.0828861,12.4843357 14.4668684,12.2886595 14,11.88 C13.5730112,11.3958776 13.3507188,10.7648539 13.38,10.12 L20,10.12 C20.0477192,9.44854905 19.9903625,8.773764 19.83,8.12 C19.6748735,7.49802364 19.4034299,6.91102683 19.03,6.39 C18.6541221,5.8846019 18.1686403,5.47091669 17.61,5.18 C16.9884446,4.87354072 16.3029169,4.719297 15.61,4.73 C14.9583142,4.72522761 14.3122738,4.85103547 13.71,5.1 C13.1585013,5.33249287 12.6587934,5.67243022 12.24,6.1 C11.8223926,6.53611493 11.4990169,7.05351598 11.29,7.62 C11.0657012,8.23155209 10.9539005,8.87864088 10.96,9.53 C10.9497083,10.1906061 11.058094,10.8476946 11.28,11.47 C11.4684819,12.0335298 11.767673,12.5537143 12.16,13 C12.5659037,13.4381556 13.0647775,13.77985 13.62,14 C14.2391028,14.2358835 14.8975787,14.3512865 15.56,14.34 C16.4894184,14.368977 17.4070405,14.1256681 18.2,13.64 C19.0009083,13.0708703 19.5775341,12.2395387 19.83,11.29 L17.62,11.29 C17.5016857,11.6041341 17.2839726,11.8710082 17,12.05 Z M13.57,7.93 C13.7273851,7.4258313 14.0906331,7.01172859 14.57,6.79 C14.8839571,6.64868519 15.2258416,6.5803083 15.57,6.59 C16.0731194,6.54702825 16.5699014,6.72601589 16.93,7.08 C17.2697849,7.49593467 17.4878325,7.99779018 17.56,8.53 L13.41,8.53 C13.4261853,8.32678203 13.4630424,8.12574305 13.52,7.93 L13.57,7.93 Z M8.28,7.45 C8.78896161,7.23806304 9.23120994,6.89255654 9.56,6.45 C9.86222341,5.98000425 10.012362,5.42833228 9.99,4.87 C10.0096025,4.36083816 9.91031143,3.85411113 9.7,3.39 C9.52331352,2.98791713 9.23968274,2.64202594 8.88,2.39 C8.49865251,2.1279731 8.06560672,1.95066301 7.61,1.87 C7.07082014,1.75691337 6.52087029,1.70325972 5.97,1.71 L0,1.71 L0,14.2900017 L6.1,14.29 C6.65668928,14.2904018 7.21115878,14.2198329 7.75,14.08 C8.26074481,13.9478738 8.74462064,13.7279302 9.18,13.43 C9.60173826,13.1377131 9.94514984,12.7462239 10.18,12.29 C10.4399091,11.779788 10.5671547,11.2123415 10.55,10.64 C10.5689397,9.9307372 10.3700031,9.23271413 9.98,8.64 C9.56058791,8.04392348 8.93852025,7.62091746 8.23,7.45 L8.28,7.45 Z M2.77,3.85999683 L5.36,3.86 C5.59794505,3.85970664 5.83547862,3.8797799 6.07,3.92 C6.28594926,3.9520025 6.49333592,4.02679769 6.68,4.14 C6.86034677,4.24201409 7.00647989,4.39510592 7.1,4.58 C7.21581968,4.80171794 7.27101493,5.05009659 7.26,5.3 C7.29780017,5.7366738 7.12282691,6.16479988 6.79,6.45 C6.43211999,6.69603135 6.00388111,6.81888676 5.57,6.8 L2.77,6.8 L2.77,3.85999683 Z M7.61,11.3 C7.50726025,11.5038058 7.35189492,11.6764339 7.16,11.8 C6.96030462,11.9242081 6.74026775,12.0122228 6.51,12.06 C6.25405771,12.1172906 5.99224322,12.1441434 5.73,12.14 L2.73,12.14 L2.73,8.69 L5.73,8.69 C6.24481552,8.66745641 6.75321641,8.81121115 7.18,9.1 C7.57104689,9.45092732 7.77158084,9.96711658 7.72,10.49 C7.74703636,10.7648844 7.70936517,11.0422813 7.61,11.3 Z" transform="translate(0 -1)"/>
</svg>
