<?xml version="1.0" encoding="UTF-8"?>
<svg xmlns="http://www.w3.org/2000/svg" width="151" height="35" viewBox="0 0 151 35">
  <path fill="#FFF" fill-rule="evenodd" d="M111.846137,64.9629658 C107.789955,64.9629658 105.347027,68.105774 105.347027,71.5223493 C105.347027,74.9384452 107.789955,78.080774 111.846137,78.080774 C115.902318,78.080774 118.345246,74.9384452 118.345246,71.5223493 C118.345246,68.105774 115.902318,64.9629658 111.846137,64.9629658 Z M102.494115,48.0186507 L103.037527,48.0186507 C104.414979,48.0186507 105.531399,49.1218699 105.531399,50.4830342 L105.531399,63.3687877 L105.669678,63.3687877 C106.822003,61.9563219 109.034465,60.0437877 113.182833,60.0437877 C119.49757,60.0437877 123.876403,65.0540616 123.876403,71.5223493 C123.876403,77.9896781 119.774128,82.9999521 112.952368,82.9999521 C109.864139,82.9999521 106.960282,81.8157055 105.347027,79.1744041 L105.254842,79.1744041 L105.254842,79.9889932 C105.254842,81.3501575 104.137936,82.4533767 102.760484,82.4533767 L102.494115,82.4533767 C101.116663,82.4533767 99.9997574,81.3501575 99.9997574,79.9889932 L99.9997574,50.4830342 C99.9997574,49.1218699 101.116663,48.0186507 102.494115,48.0186507 Z M131.232057,60.5173277 L131.767943,60.5173277 C133.126316,60.5173277 134.227273,61.6013309 134.227273,62.9387863 L134.227273,79.5780703 C134.227273,80.9155257 133.126316,82 131.767943,82 L131.232057,82 C129.873684,82 128.772727,80.9155257 128.772727,79.5780703 L128.772727,62.9387863 C128.772727,61.6013309 129.873684,60.5173277 131.232057,60.5173277 Z M131.454545,50 C133.454545,50 135,51.3873922 135,53.2223302 C135,55.0572682 133.454545,56.4441893 131.454545,56.4441893 C129.454545,56.4441893 128,54.9230044 128,53.2223302 C128,51.5211848 129.454545,50 131.454545,50 Z M157.010448,65.5208647 C156.158103,66.3571846 154.825701,66.473914 153.821991,65.8186926 C152.962298,65.2571429 152.062926,64.9285714 151.14641,64.9285714 C147.050744,64.9285714 144.584331,68.077381 144.584331,71.5004804 C144.584331,74.9230994 147.050744,78.0714286 151.14641,78.0714286 C152.15061,78.0714286 153.107784,77.8230785 153.933677,77.353279 C154.982454,76.7571429 156.298691,76.8873225 157.124584,77.7577485 L157.213737,77.8519006 C158.388896,79.091249 157.967132,81.0833333 156.398621,81.7894737 C154.483783,82.6512531 152.42003,83 151.14641,83 C144.398187,83 139,78.390873 139,71.5004804 C139,64.609127 144.398187,60 151.14641,60 C152.997567,60 154.967268,60.4270468 156.707228,61.3690476 C158.170421,62.1616541 158.44278,64.1167502 157.260763,65.2753968 L157.010448,65.5208647 Z M164.705263,48 L165.294737,48 C166.788947,48 168,49.0892914 168,50.4332716 L168,79.5667284 C168,80.9107086 166.788947,82 165.294737,82 L164.705263,82 C163.211053,82 162,80.9107086 162,79.5667284 L162,50.4332716 C162,49.0892914 163.211053,48 164.705263,48 Z M185.025814,77.9834277 C189.044536,77.9834277 191.464903,74.8599398 191.464903,71.4648443 C191.464903,68.0692723 189.044536,64.946261 185.025814,64.946261 C181.007092,64.946261 178.586244,68.0692723 178.586244,71.4648443 C178.586244,74.8599398 181.007092,77.9834277 185.025814,77.9834277 Z M185.025814,60.0573235 C191.647572,60.0573235 196.944979,64.6293854 196.944979,71.4648443 C196.944979,78.3003033 191.647572,82.8723652 185.025814,82.8723652 C178.404056,82.8723652 173.106649,78.3003033 173.106649,71.4648443 C173.106649,64.6293854 178.404056,60.0573235 185.025814,60.0573235 Z M213.001154,77.9834277 C217.019395,77.9834277 219.440243,74.8599398 219.440243,71.4648443 C219.440243,68.0692723 217.019395,64.946261 213.001154,64.946261 C208.982431,64.946261 206.561584,68.0692723 206.561584,71.4648443 C206.561584,74.8599398 208.982431,77.9834277 213.001154,77.9834277 Z M213.001154,60.0573235 C219.622431,60.0573235 224.920319,64.6293854 224.920319,71.4648443 C224.920319,78.3003033 219.622431,82.8723652 213.001154,82.8723652 C206.379395,82.8723652 201.081989,78.3003033 201.081989,71.4648443 C201.081989,64.6293854 206.379395,60.0573235 213.001154,60.0573235 Z M232.515501,60.5896936 L232.777832,60.5896936 C234.13194,60.5896936 235.229439,61.6667574 235.229439,62.9956511 L235.229439,64.0137362 L235.320063,64.0137362 C236.316923,61.8792681 238.356431,60.0560766 241.980898,60.0560766 C247.826121,60.0560766 249.910464,64.1026723 249.910464,68.4605447 L249.910464,79.528417 C249.910464,80.8573106 248.812965,81.9348426 247.458857,81.9348426 L246.925132,81.9348426 C245.571024,81.9348426 244.473525,80.8573106 244.473525,79.528417 L244.473525,71.1290979 C244.473525,68.7718213 244.2918,64.8586298 240.485609,64.8586298 C236.906453,64.8586298 235.50131,67.4377787 235.50131,70.2837362 L235.50131,79.528417 C235.50131,80.8573106 234.40381,81.9348426 233.049703,81.9348426 L232.515501,81.9348426 C231.161393,81.9348426 230.063893,80.8573106 230.063893,79.528417 L230.063893,62.9956511 C230.063893,61.6667574 231.161393,60.5896936 232.515501,60.5896936 Z" transform="translate(-99 -48)"/>
</svg>
