<?xml version="1.0" encoding="UTF-8"?>
<svg xmlns="http://www.w3.org/2000/svg" xmlns:xlink="http://www.w3.org/1999/xlink" width="20" height="14" viewBox="0 0 20 14">
  <defs>
    <polygon id="code-a" points="0 .116 7.925 .116 7.925 13.529 0 13.529"/>
  </defs>
  <g fill="none" fill-rule="evenodd">
    <g transform="translate(0 .001)">
      <mask id="code-b" fill="#fff">
        <use xlink:href="#code-a"/>
      </mask>
      <path fill="#000" d="M2.92868235,6.82205882 L7.56644706,2.19511765 C8.04127059,1.72417647 8.04421176,0.954647059 7.56809412,0.474411765 L7.48515294,0.554647059 L7.48515294,0.554764706 L7.48515294,0.554647059 L7.56715294,0.473588235 L7.5668,0.473235294 C7.09562353,-0.00135294118 6.32644706,-0.00429411765 5.84515294,0.473235294 L0.357388235,5.961 C-0.117552941,6.43194118 -0.120611765,7.20135294 0.357152941,7.68288235 L5.8448,13.1705294 C6.07303529,13.4006471 6.37703529,13.5280588 6.70091765,13.5294706 L6.70609412,13.5294706 C7.02821176,13.5294706 7.33127059,13.4045294 7.56644706,13.1712353 C7.79644706,12.943 7.92385882,12.639 7.92515294,12.3151176 C7.92644706,11.9912353 7.80150588,11.6861765 7.57515294,11.4579412 L2.92868235,6.82205882 Z" mask="url(#code-b)"/>
    </g>
    <path fill="#000" d="M19.6468471,5.96904706 L14.1523765,0.474576471 C13.6779059,-0.000129411765 12.9053176,0.000105882353 12.4308471,0.474576471 C12.2008471,0.704576471 12.0742588,1.01034118 12.0742588,1.3354 C12.0742588,1.66057647 12.2008471,1.96634118 12.4309647,2.19634118 L17.0688471,6.82351765 L12.4310824,11.4504588 C11.9562588,11.9214 11.9532,12.6909294 12.4223765,13.1637529 L12.4304941,13.1719882 C12.6586118,13.4021059 12.9628471,13.5295176 13.2866118,13.5308118 L13.2917882,13.5308118 C13.6139059,13.5308118 13.9170824,13.4059882 14.1523765,13.1723412 L19.6401412,7.68469412 C20.1149647,7.21375294 20.1181412,6.44422353 19.6468471,5.96904706"/>
  </g>
</svg>
