<?xml version="1.0" encoding="UTF-8"?>
<svg xmlns="http://www.w3.org/2000/svg" xmlns:xlink="http://www.w3.org/1999/xlink" width="20" height="20" viewBox="0 0 20 20">
  <defs>
    <polygon id="design-a" points="0 .033 2.411 .033 2.411 4.496 0 4.496"/>
    <polygon id="design-c" points=".112 0 3.501 0 3.501 3.388 .112 3.388"/>
    <polygon id="design-e" points=".092 .093 15.657 .093 15.657 15.657 .092 15.657"/>
    <polygon id="design-g" points="0 0 3.389 0 3.389 3.389 0 3.389"/>
  </defs>
  <g fill="none" fill-rule="evenodd">
    <path fill="#000" d="M6.26730286,2.41144 L8.31930286,2.41144 C8.98410286,2.41144 9.52501714,1.87052571 9.52501714,1.20572571 C9.52501714,0.540925714 8.98410286,1.14285714e-05 8.31930286,1.14285714e-05 L6.26730286,1.14285714e-05 C5.60250286,1.14285714e-05 5.06158857,0.540925714 5.06158857,1.20572571 C5.06158857,1.87052571 5.60250286,2.41144 6.26730286,2.41144"/>
    <g transform="translate(0 5.029)">
      <mask id="design-b" fill="#fff">
        <use xlink:href="#design-a"/>
      </mask>
      <path fill="#000" d="M1.20569143,4.49642286 C1.87049143,4.49642286 2.41140571,3.95562286 2.41140571,3.29070857 L2.41140571,1.23870857 C2.41140571,0.573908571 1.87049143,0.0329942857 1.20569143,0.0329942857 C0.540891429,0.0329942857 -2.28571429e-05,0.573908571 -2.28571429e-05,1.23870857 L-2.28571429e-05,3.29070857 C-2.28571429e-05,3.95562286 0.540891429,4.49642286 1.20569143,4.49642286" mask="url(#design-b)"/>
    </g>
    <g transform="translate(11.086)">
      <mask id="design-d" fill="#fff">
        <use xlink:href="#design-c"/>
      </mask>
      <path fill="#000" d="M1.10803429,2.39313143 C1.20826286,2.95747429 1.70266286,3.38764571 2.29523429,3.38764571 C2.95992,3.38696 3.50026286,2.84661714 3.50083429,2.18307429 L3.50083429,1.20570286 C3.50083429,0.540902857 2.96003429,-1.14285714e-05 2.29523429,-1.14285714e-05 L1.31809143,-1.14285714e-05 C0.653291429,-1.14285714e-05 0.112262857,0.540902857 0.112262857,1.20570286 C0.112262857,1.79896 0.543005714,2.29347429 1.10803429,2.39313143" mask="url(#design-d)"/>
    </g>
    <g transform="translate(4.343 4.343)">
      <mask id="design-f" fill="#fff">
        <use xlink:href="#design-e"/>
      </mask>
      <path fill="#000" d="M3.48192,13.24576 L3.48192,9.04781714 L3.48192,3.48187429 L13.2458057,3.48187429 L13.2458057,13.24576 L3.48192,13.24576 Z M14.4514057,1.07056 L10.2221486,1.07056 C10.1149486,0.51456 9.62477714,0.0934171429 9.03803429,0.0934171429 C8.45129143,0.0934171429 7.96112,0.51456 7.85403429,1.07056 L2.27620571,1.07056 C1.61140571,1.07056 1.07049143,1.61136 1.07049143,2.27627429 L1.07049143,7.85398857 C0.514377143,7.96096 0.0930057143,8.45067429 0.0924342857,9.03684571 C0.0920914286,9.35890286 0.217234286,9.66187429 0.444777143,9.88976 C0.61792,10.06336 0.83472,10.1776457 1.07049143,10.2224457 L1.07049143,14.4514743 C1.07049143,15.1162743 1.61140571,15.6571886 2.27620571,15.6571886 L14.4514057,15.6571886 C15.11632,15.6571886 15.65712,15.1162743 15.65712,14.4514743 L15.65712,2.27627429 C15.65712,1.61136 15.11632,1.07056 14.4514057,1.07056 Z" mask="url(#design-f)"/>
    </g>
    <mask id="design-h" fill="#fff">
      <use xlink:href="#design-g"/>
    </mask>
    <path fill="#000" d="M2.18281143,0 L1.20566857,0 C0.540868571,0 -4.57142857e-05,0.540914286 -4.57142857e-05,1.20571429 L-4.57142857e-05,2.18285714 C-4.57142857e-05,2.84765714 0.540868571,3.38857143 1.20566857,3.38857143 C1.79892571,3.38857143 2.29332571,2.95805714 2.39309714,2.39302857 C2.95801143,2.29325714 3.38864,1.79885714 3.38864,1.20571429 C3.38864,0.540914286 2.84761143,0 2.18281143,0" mask="url(#design-h)"/>
    <path fill="#000" d="M2.39308571,12.1935314 C2.29331429,11.6286171 1.79891429,11.1981029 1.20565714,11.1981029 C0.540857143,11.1981029 5.71428571e-05,11.7389029 5.71428571e-05,12.4038171 L5.71428571e-05,13.38096 C5.71428571e-05,14.04576 0.540857143,14.58656 1.20565714,14.58656 L2.1828,14.58656 C2.84771429,14.58656 3.38862857,14.04576 3.38862857,13.38096 C3.38862857,12.7877029 2.958,12.2933029 2.39308571,12.1935314"/>
  </g>
</svg>
