<?xml version="1.0" encoding="UTF-8"?>
<svg xmlns="http://www.w3.org/2000/svg" width="20" height="18" viewBox="0 0 20 18">
  <path fill="#FFF" d="M182,0 L168,0 C166.343146,0 165,1.34314575 165,3 L165,11 C165,12.6568542 166.343146,14 168,14 L174,14 L174,16 L170,16 C169.447715,16 169,16.4477153 169,17 C169,17.5522847 169.447715,18 170,18 L180,18 C180.552285,18 181,17.5522847 181,17 C181,16.4477153 180.552285,16 180,16 L176,16 L176,14 L182,14 C183.656854,14 185,12.6568542 185,11 L185,3 C185,1.34314575 183.656854,0 182,0 Z M183,11 C183,11.5522847 182.552285,12 182,12 L168,12 C167.447715,12 167,11.5522847 167,11 L167,3 C167,2.44771525 167.447715,2 168,2 L182,2 C182.552285,2 183,2.44771525 183,3 L183,11 Z" transform="translate(-165)"/>
</svg>
