<?xml version="1.0" encoding="UTF-8"?>
<svg xmlns="http://www.w3.org/2000/svg" width="20" height="20" viewBox="0 0 20 20">
  <path fill="#D9BAA4" d="M10,0 C4.4771525,-6.66133815e-16 2.22044605e-15,4.4771525 1.77635684e-15,10 C1.33226763e-15,15.5228475 4.4771525,20 10,20 C15.5228475,20 20,15.5228475 20,10 C20,7.3478351 18.9464316,4.80429597 17.0710678,2.92893219 C15.195704,1.0535684 12.6521649,-2.22044605e-16 10,0 Z M10,2 C12.0547282,1.99918038 14.0297676,2.7949313 15.51,4.22 C13.9820227,5.11620159 12.3628779,5.8469957 10.68,6.4 C9.84248702,4.95682581 8.8822745,3.58843933 7.81,2.31 C8.52196154,2.10499737 9.25911209,2.00065186 10,2 Z M5.89,3.15 C6.93768265,4.34850526 7.87796919,5.63679821 8.7,7 C6.73710058,7.48740421 4.72250339,7.7358712 2.7,7.74 L2.34,7.74 C2.90720204,5.81964017 4.17393611,4.18180655 5.89,3.15 Z M4,15.31 C2.69875396,13.8487531 1.98607923,11.9566017 2,10 C2,9.9 2,9.8 2,9.71 L2.68,9.71 C5.04737543,9.68883576 7.4013936,9.35254745 9.68,8.71 C10,9.32 10.3,9.95 10.59,10.6 C9.03149126,11.1494213 7.58000759,11.9648235 6.3,13.01 L6,13.25 C5.28711776,13.8902351 4.6188897,14.57851 4,15.31 Z M10,18 C8.40608844,18.0035355 6.84819638,17.5260607 5.53,16.63 C6.01684066,16.0715936 6.53784048,15.5439143 7.09,15.05 L7.41,14.78 C8.59316413,13.7848972 9.94897258,13.0154759 11.41,12.51 C12.0113357,14.135992 12.4795432,15.8081619 12.81,17.51 C11.909803,17.8386802 10.9583132,18.0045984 10,18 Z M14.63,16.51 C14.3028293,14.9965631 13.8752162,13.5065987 13.35,12.05 L13.69,12.05 C13.7294068,12.0402576 13.7705932,12.0402576 13.81,12.05 L13.92,12.05 L14.02,12.05 L14.5,12.05 C15.5523578,12.0530113 16.5967888,12.2321532 17.59,12.58 C17.0443281,14.170361 16.0078867,15.546447 14.63,16.51 Z M14.5,10 C14.29,10 14.08,10 13.88,10 C13.7505118,9.98368602 13.6194882,9.98368602 13.49,10 C13.2182049,10.0166927 12.9476941,10.0500891 12.68,10.1 L12.58,10.1 C12.29,9.43 11.99,8.78 11.66,8.1 C13.4506235,7.48505671 15.1703912,6.68048703 16.79,5.7 C17.593438,6.98936829 18.0131346,8.48085198 18,10 C18,10.17 18,10.34 18,10.51 C16.8666838,10.1602179 15.6860073,9.9881765 14.5,10 Z"/>
</svg>
