<?xml version="1.0" encoding="UTF-8"?>
<svg xmlns="http://www.w3.org/2000/svg" width="18" height="20" viewBox="0 0 18 20">
  <path fill="#FFF" d="M184.71,14.71 L182.29,12.29 C182.102233,12.1006873 181.846638,11.9942017 181.58,11.9942017 C181.313362,11.9942017 181.057767,12.1006873 180.87,12.29 L177.29,15.87 C177.102813,16.0587188 176.998463,16.314197 177,16.58 L177,19 C177,19.5522847 177.447715,20 178,20 L180.42,20 C180.685803,20.0015368 180.941281,19.8971865 181.13,19.71 L184.71,16.13 C184.899313,15.9422334 185.005798,15.6866375 185.005798,15.42 C185.005798,15.1533625 184.899313,14.8977666 184.71,14.71 Z M180,18 L179,18 L179,17 L181.58,14.42 L182.58,15.42 L180,18 Z M174,18 L170,18 C169.447715,18 169,17.5522847 169,17 L169,3 C169,2.44771525 169.447715,2 170,2 L175,2 L175,5 C175,6.65685425 176.343146,8 178,8 L181,8 L181,9 C181,9.55228475 181.447715,10 182,10 C182.552285,10 183,9.55228475 183,9 L183,7 C183,7 183,7 183,6.94 C182.989584,6.8481349 182.969472,6.75763058 182.94,6.67 L182.94,6.58 C182.891919,6.47717975 182.827784,6.38266483 182.75,6.3 L176.75,0.3 C176.667335,0.222216205 176.57282,0.158081081 176.47,0.11 C176.44015,0.105760184 176.40985,0.105760184 176.38,0.11 L176.06,0 L170,0 C168.343146,-4.4408921e-16 167,1.34314575 167,3 L167,17 C167,18.6568542 168.343146,20 170,20 L174,20 C174.552285,20 175,19.5522847 175,19 C175,18.4477153 174.552285,18 174,18 Z M177,3.41 L179.59,6 L178,6 C177.447715,6 177,5.55228475 177,5 L177,3.41 Z M172,12 L178,12 C178.552285,12 179,11.5522847 179,11 C179,10.4477153 178.552285,10 178,10 L172,10 C171.447715,10 171,10.4477153 171,11 C171,11.5522847 171.447715,12 172,12 Z M172,8 L173,8 C173.552285,8 174,7.55228475 174,7 C174,6.44771525 173.552285,6 173,6 L172,6 C171.447715,6 171,6.44771525 171,7 C171,7.55228475 171.447715,8 172,8 Z M174,14 L172,14 C171.447715,14 171,14.4477153 171,15 C171,15.5522847 171.447715,16 172,16 L174,16 C174.552285,16 175,15.5522847 175,15 C175,14.4477153 174.552285,14 174,14 Z" transform="translate(-167)"/>
</svg>
