<svg xmlns="http://www.w3.org/2000/svg" width="18" height="20"><path fill="#fff" d="M17.7 14.7L15.3 12.3a1 1 0 0 0-1.42 0l-3.58 3.58a1 1 0 0 0-.29.71V19a1 1 0 0 0 1 1h2.42a1 1 0 0 0 .71-.29l3.58-3.58a1 1 0 0 0 0-1.42zM13 18h-1v-1l2.58-2.58 1 1L13 18zm-6 0H3a1 1 0 0 1-1-1V3a1 1 0 0 1 1-1h5v3a3 3 0 0 0 3 3h3v1a1 1 0 1 0 2 0V6.94a1.31 1.31 0 0 0-.06-.27v-.1a1.07 1.07 0 0 0-.19-.28l-6-6a1.07 1.07 0 0 0-.28-.19.32.32 0 0 0-.09 0L9.06 0H3a3 3 0 0 0-3 3v14a3 3 0 0 0 3 3h4a1 1 0 1 0 0-2zm3-14.6L12.6 6H11a1 1 0 0 1-1-1V3.4zM5 12h6a1 1 0 1 0 0-2H5a1 1 0 1 0 0 2zm0-4h1a1 1 0 1 0 0-2H5a1 1 0 1 0 0 2zm2 6H5a1 1 0 1 0 0 2h2a1 1 0 1 0 0-2z"/></svg>