<?xml version="1.0" encoding="UTF-8"?>
<svg xmlns="http://www.w3.org/2000/svg" width="169" height="23" viewBox="0 0 169 23">
  <path fill="#FFF" fill-rule="evenodd" d="M89.6636477,52.1728516 L89.6636477,57.8564453 L99.9175539,57.8564453 L99.9175539,61.0351562 L89.6636477,61.0351562 L89.6636477,66.8212891 L101.484937,66.8212891 L101.484937,70 L86.1187258,70 L86.1187258,48.9941406 L101.118726,48.9941406 L101.118726,52.1728516 L89.6636477,52.1728516 Z M123.38986,48.9941406 C125.469949,48.9941406 127.335164,49.4457963 128.985563,50.3491211 C130.635962,51.2524459 131.927453,52.5024334 132.860075,54.0991211 C133.792697,55.6958088 134.259001,57.4951072 134.259001,59.4970703 C134.259001,61.4990334 133.787814,63.2958905 132.845427,64.8876953 C131.903039,66.4795001 130.601783,67.7294876 128.941618,68.6376953 C127.281453,69.545903 125.401589,70 123.30197,70 L114.776579,70 L114.776579,48.9941406 L123.38986,48.9941406 Z M118.321501,66.8212891 L123.477751,66.8212891 C124.815648,66.8212891 126.036339,66.5112336 127.13986,65.8911133 C128.243381,65.270993 129.110072,64.4067438 129.739958,63.2983398 C130.369844,62.1899359 130.684782,60.9326242 130.684782,59.5263672 C130.684782,58.1298758 130.360078,56.8725642 129.710661,55.7543945 C129.061244,54.6362249 128.175022,53.7597688 127.05197,53.125 C125.928917,52.4902312 124.688695,52.1728516 123.331266,52.1728516 L118.321501,52.1728516 L118.321501,66.8212891 Z M155.534041,70 L152.033065,70 L152.033065,63.1298828 L144.196151,48.9941406 L147.77037,48.9941406 L153.76158,59.2333984 L159.650252,48.9941406 L163.253768,48.9941406 L155.534041,63.0126953 L155.534041,70 Z M183.415527,48.90625 C184.89991,48.90625 186.347649,49.1918917 187.758789,49.7631836 C189.169929,50.3344755 190.383296,51.1279246 191.398926,52.1435547 L189.333496,54.7363281 C188.571774,53.9160115 187.670904,53.2641626 186.630859,52.7807617 C185.590815,52.2973609 184.53858,52.0556641 183.474121,52.0556641 C182.097161,52.0556641 180.834967,52.3803678 179.6875,53.0297852 C178.540033,53.6792025 177.634281,54.5703068 176.970215,55.703125 C176.306149,56.8359432 175.974121,58.0810479 175.974121,59.4384766 C175.974121,60.7959052 176.306149,62.04101 176.970215,63.1738281 C177.634281,64.3066463 178.540033,65.2026334 179.6875,65.8618164 C180.834967,66.5209994 182.097161,66.8505859 183.474121,66.8505859 C184.509283,66.8505859 185.544428,66.6308616 186.57959,66.1914062 C187.614751,65.7519509 188.532711,65.1416055 189.333496,64.3603516 L191.428223,66.7041016 C190.344233,67.76856 189.08448,68.6083954 187.648926,69.2236328 C186.213372,69.8388703 184.763191,70.1464844 183.29834,70.1464844 C181.276845,70.1464844 179.431161,69.6777391 177.76123,68.7402344 C176.0913,67.8027297 174.777837,66.5185628 173.820801,64.8876953 C172.863765,63.2568278 172.385254,61.4502052 172.385254,59.4677734 C172.385254,57.504873 172.868648,55.7202229 173.835449,54.1137695 C174.802251,52.5073162 176.130363,51.2377976 177.819824,50.3051758 C179.509286,49.3725539 181.374502,48.90625 183.415527,48.90625 Z M207.547013,52.1728516 L207.547013,57.8564453 L217.80092,57.8564453 L217.80092,61.0351562 L207.547013,61.0351562 L207.547013,66.8212891 L219.368302,66.8212891 L219.368302,70 L204.002091,70 L204.002091,48.9941406 L219.002091,48.9941406 L219.002091,52.1728516 L207.547013,52.1728516 Z M251.600374,70 L251.571077,54.3115234 L244.935335,67.8027344 L242.620882,67.8027344 L235.999788,54.3115234 L235.999788,70 L232.659945,70 L232.659945,48.9941406 L236.864046,48.9941406 L243.792757,62.9541016 L250.692171,48.9941406 L254.866976,48.9941406 L254.866976,70 L251.600374,70 Z" transform="translate(-86 -48)"/>
</svg>
