<?xml version="1.0" encoding="UTF-8"?>
<svg xmlns="http://www.w3.org/2000/svg" width="40" height="36" viewBox="0 0 40 36">
  <path fill="#f5222e" d="M30,18.6545455 C34.3425613,18.6903542 38.1040553,15.649781 38.9793146,11.3961893 C39.8545738,7.14259769 37.5991563,2.86392788 33.5952564,1.18228992 C29.5913565,-0.499348041 24.9571807,0.885692588 22.5327047,4.48861322 C20.1082288,8.09153384 20.5705588,12.9061132 23.6363636,15.9818182 C25.323741,17.6746445 27.6099132,18.6348368 30,18.6545455 Z M33.8545455,13.4181818 C32.2221735,15.0375069 29.7496336,15.4592931 27.6727273,14.4727273 L34.9454545,7.2 C35.9401354,9.29395209 35.5026062,11.7878686 33.8545455,13.4181818 Z M26.1454545,5.70909091 C27.167399,4.68587282 28.553852,4.11036401 30,4.10909091 C30.8065449,4.11660239 31.6013859,4.30289325 32.3272727,4.65454545 L25.0545455,11.9272727 C24.0598646,9.83332063 24.4973938,7.33940412 26.1454545,5.70909091 Z M35.4545455,20.4727273 C34.4503914,20.4727273 33.6363636,21.286755 33.6363636,22.2909091 L33.6363636,29.5636364 C33.6363636,30.5677905 32.8223359,31.3818182 31.8181818,31.3818182 L6.36363636,31.3818182 C5.35948227,31.3818182 4.54545455,30.5677905 4.54545455,29.5636364 L4.54545455,12.1272727 L15.2363636,22.8181818 C16.2538491,23.8369599 17.6328841,24.4121025 19.0727273,24.4181818 C20.5520172,24.4220306 21.9694296,23.8248799 23,22.7636364 C23.6811885,22.0589152 23.6811885,20.9410848 23,20.2363636 C22.6579264,19.8865223 22.1892886,19.6893172 21.7,19.6893172 C21.2107114,19.6893172 20.7420736,19.8865223 20.4,20.2363636 C19.6930118,20.9293507 18.5615337,20.9293507 17.8545455,20.2363636 L7.10909091,9.56363636 L15.4545455,9.56363636 C16.4586995,9.56363636 17.2727273,8.74960864 17.2727273,7.74545455 C17.2727273,6.74130045 16.4586995,5.92727273 15.4545455,5.92727273 L6.36363636,5.92727273 C3.35117409,5.92727273 0.909090909,8.36935591 0.909090909,11.3818182 L0.909090909,29.5636364 C0.909090909,32.5760986 3.35117409,35.0181818 6.36363636,35.0181818 L31.8181818,35.0181818 C34.8306441,35.0181818 37.2727273,32.5760986 37.2727273,29.5636364 L37.2727273,22.2909091 C37.2727273,21.286755 36.4586995,20.4727273 35.4545455,20.4727273 Z"/>
</svg>
