<?xml version="1.0" encoding="UTF-8"?>
<svg xmlns="http://www.w3.org/2000/svg" width="20" height="20" viewBox="0 0 20 20">
  <path fill="#D9BAA4" fill-rule="evenodd" d="M11,0.2467 C6.0954118,0.24690338 1.91478431,3.8039293 1.1291332,8.64518304 C0.343482095,13.4864368 3.18469825,18.1829856 7.83752,19.73419 C8.33752,19.82171 8.52502,19.52172 8.52502,19.25919 C8.52502,19.0217 8.51251,18.23419 8.51251,17.3967 C6,17.85919 5.35,16.78423 5.15,16.22173 C4.92807573,15.6746549 4.5762755,15.1898468 4.125,14.8092 C3.775,14.6217 3.275,14.1592 4.11249,14.14672 C4.76149633,14.217144 5.33535649,14.5997038 5.65,15.17169 C5.92623139,15.6679215 6.38859773,16.0338149 6.93503253,16.1886001 C7.48146733,16.3433853 8.06703767,16.2743343 8.56248,15.99669 C8.60577105,15.4883126 8.83233959,15.012992 9.2,14.65923 C6.975,14.40923 4.65,13.54669 4.65,9.72173 C4.63594771,8.7278755 5.00268534,7.76630734 5.675,7.03423 C5.36928179,6.17044946 5.40505295,5.22251374 5.775,4.38423 C5.775,4.38423 6.61247,4.12172 8.525,5.40923 C10.1612881,4.9592033 11.8887119,4.9592033 13.525,5.40923 C15.43748,4.10923 16.275,4.38423 16.275,4.38423 C16.6449973,5.22250216 16.6807692,6.17045722 16.375,7.03423 C17.0493392,7.76505435 17.416397,8.72746208 17.4,9.72173 C17.4,13.5592 15.06248,14.40923 12.8375,14.65923 C13.3203926,15.1486682 13.5667298,15.8238147 13.5125,16.50923 C13.5125,17.84675 13.49999,18.92171 13.49999,19.25923 C13.49999,19.52174 13.68749,19.83423 14.18749,19.73423 C18.8317358,18.1704977 21.6599115,13.4731081 20.8688802,8.63693735 C20.0778489,3.80076661 15.9004358,0.249250496 11,0.2467 Z" transform="translate(-1)"/>
</svg>
