<?xml version="1.0" encoding="UTF-8"?>
<svg xmlns="http://www.w3.org/2000/svg" width="30" height="30" viewBox="0 0 30 30">
  <g fill-rule="evenodd">
    <path d="M15,26.3157895 C8.76052632,26.3157895 3.68421053,21.2394737 3.68421053,15 C3.68421053,8.76052632 8.76052632,3.68421053 15,3.68421053 C21.2394737,3.68421053 26.3157895,8.76052632 26.3157895,15 C26.3157895,21.2394737 21.2394737,26.3157895 15,26.3157895 M15,0 C6.72894737,0 0,6.72894737 0,15 C0,23.2710526 6.72894737,30 15,30 C23.2710526,30 30,23.2710526 30,15 C30,6.72894737 23.2710526,0 15,0"/>
    <path d="M11.7406842 6.83868421C8.96489474 6.83868421 6.7147193 9.08903509 6.7147193 11.8648246 6.7147193 14.640614 8.96489474 16.8907895 11.7406842 16.8907895 14.5164737 16.8907895 16.7666491 14.640614 16.7666491 11.8648246 16.7666491 9.08903509 14.5164737 6.83868421 11.7406842 6.83868421M20.8388246 14.4215965C19.123386 14.4215965 17.7325088 15.8122982 17.7325088 17.5279123 17.7325088 19.2435263 19.123386 20.6344035 20.8388246 20.6344035 22.5542632 20.6344035 23.9451404 19.2435263 23.9451404 17.5279123 23.9451404 15.8122982 22.5542632 14.4215965 20.8388246 14.4215965M13.536193 19.4606667C12.4758421 19.4606667 11.6163684 20.3201404 11.6163684 21.3804912 11.6163684 22.4408421 12.4758421 23.3004912 13.536193 23.3004912 14.5965439 23.3004912 15.4560175 22.4408421 15.4560175 21.3804912 15.4560175 20.3201404 14.5965439 19.4606667 13.536193 19.4606667"/>
  </g>
</svg>
