<?xml version="1.0" encoding="UTF-8"?>
<svg xmlns="http://www.w3.org/2000/svg" width="14" height="20" viewBox="0 0 14 20">
  <path fill="#FFF" d="M175.71,14.29 L175.56,14.17 C175.504255,14.1321536 175.443724,14.1018883 175.38,14.08 L175.2,14 C174.870558,13.9311289 174.52857,14.032598 174.29,14.27 C174.201669,14.3672009 174.130642,14.4788151 174.08,14.6 C173.925256,14.9725626 174.00953,15.40162 174.293697,15.6879727 C174.577864,15.9743255 175.006263,16.0618851 175.38,15.91 C175.499495,15.8520184 175.610519,15.7780023 175.71,15.69 C175.993745,15.4024393 176.076597,14.9723971 175.92,14.6 C175.870143,14.4843663 175.798894,14.3791896 175.71,14.29 Z M179,4.4408921e-16 L171,4.4408921e-16 C169.343146,0 168,1.34314575 168,3 L168,17 C168,18.6568542 169.343146,20 171,20 L179,20 C180.656854,20 182,18.6568542 182,17 L182,3 C182,1.34314575 180.656854,0 179,4.4408921e-16 Z M180,17 C180,17.5522847 179.552285,18 179,18 L171,18 C170.447715,18 170,17.5522847 170,17 L170,3 C170,2.44771525 170.447715,2 171,2 L179,2 C179.552285,2 180,2.44771525 180,3 L180,17 Z" transform="translate(-168)"/>
</svg>
