<?xml version="1.0" encoding="UTF-8"?>
<svg xmlns="http://www.w3.org/2000/svg" width="150" height="24" viewBox="0 0 150 24">
  <path fill="#FFF" fill-rule="evenodd" d="M126.165578,61.4192201 C126.165578,64.098874 127.526985,64.8597634 128.954802,64.8597634 L128.954802,65.2898313 L120.45431,65.2898313 L120.45431,64.8597634 C121.848922,64.8597634 122.845073,64.098874 122.845073,61.4192201 L122.845073,43.2571216 L114.809452,65.5875706 L114.410991,65.5875706 L105.146783,45.3412968 L105.146783,57.0523768 C105.146783,60.8899058 105.711268,64.8597634 109.397029,64.8597634 L109.397029,65.2898313 L100,65.2898313 L100,64.8597634 C104.117426,64.8597634 104.715117,60.7906593 104.715117,57.0523768 L104.715117,44.6134896 C103.453325,42.4631501 101.793073,42.4962322 100.996151,42.4300679 L100.996151,42 L107.603956,42 L116.237269,60.7244951 L122.845073,42 L128.722367,42 L128.722367,42.4300679 C127.29455,42.4300679 126.165578,43.0917108 126.165578,45.3412968 L126.165578,61.4192201 Z M142.937853,57.6779661 C142.937853,51.709052 141.249559,50.1920904 138.733669,50.1920904 C136.184675,50.1920904 134.463277,51.709052 134.463277,57.6779661 C134.463277,63.6468802 136.184675,65.1638418 138.733669,65.1638418 C141.249559,65.1638418 142.937853,63.6468802 142.937853,57.6779661 Z M146.327684,57.6779661 C146.327684,61.9952919 143.756204,65.5875706 138.646641,65.5875706 C133.570474,65.5875706 130.932203,61.9952919 130.932203,57.6779661 C130.932203,53.3276836 133.570474,49.7683616 138.646641,49.7683616 C143.756204,49.7683616 146.327684,53.3276836 146.327684,57.6779661 Z M163.700565,64.9092447 L163.700565,65.3050847 L158.096526,65.3050847 L158.096526,64.9092447 C159.364106,64.5463913 159.430821,63.9196445 159.430821,62.2373241 L159.430821,55.1451893 C159.430821,52.9020956 158.229956,51.4176953 156.028369,51.4176953 C154.293785,51.4176953 152.892776,53.0670289 152.625917,54.2545492 L152.625917,62.2703108 C152.625917,64.0845778 152.792703,64.5793779 153.993569,64.876258 L153.993569,65.3050847 L148.38953,65.3050847 L148.38953,64.876258 C149.65711,64.5134046 149.690468,63.9526311 149.690468,62.2703108 L149.690468,53.0670289 C149.690468,51.9124954 149.423609,51.4836686 148.022599,51.1208152 L148.022599,50.7249751 L152.625917,49.7683616 L152.625917,53.2319623 C153.326421,51.3187352 155.62808,49.7683616 157.729595,49.7683616 C160.431542,49.7683616 162.332913,51.0548418 162.332913,55.0462293 L162.332913,62.2373241 C162.332913,64.0515912 162.533057,64.6123646 163.700565,64.9092447 Z M181.355932,64.5 L181.355932,64.9284369 L177.553684,65.5546139 C176.753211,65.7193974 176.753211,65.0602637 176.753211,65.0602637 L176.753211,62.2589454 C176.152856,64.0056497 173.984907,65.5875706 171.750252,65.5875706 C169.348832,65.5875706 166.980765,64.7306968 166.980765,60.6111111 L166.980765,53.1958569 C166.980765,51.086629 167.014118,50.9218456 165.112994,50.7900188 L165.112994,50.3945386 L169.849128,49.7683616 L169.849128,60.5122411 C169.849128,63.0169492 171.350016,63.972693 173.284493,63.972693 C174.952146,63.972693 176.152856,62.819209 176.753211,61.4350282 L176.753211,53.1299435 C176.753211,51.1195857 176.819917,50.8888889 175.185617,50.7900188 L175.185617,50.3945386 L179.654926,49.7683616 L179.654926,62.5555556 C179.654926,64.1374765 179.955104,64.3352166 181.355932,64.5 Z M206.214689,64.9092447 L206.214689,65.3050847 L200.619823,65.3050847 L200.619823,64.9092447 C201.885329,64.5463913 201.951934,63.9196445 201.951934,62.2373241 L201.951934,55.1451893 C201.951934,52.7701489 201.052759,51.4176953 198.921382,51.4176953 C197.256243,51.4176953 195.857527,53.1000156 195.857527,54.3205225 L195.857527,62.2373241 C195.857527,64.0515912 196.024041,64.6123646 197.222941,64.9092447 L197.222941,65.3050847 L191.628075,65.3050847 L191.628075,64.9092447 C192.89358,64.5463913 192.960186,63.9196445 192.960186,62.2373241 L192.960186,55.1451893 C192.960186,52.7701489 192.061011,51.4176953 189.929633,51.4176953 C188.264495,51.4176953 187.032292,53.1330023 186.799173,54.2545492 L186.799173,62.2703108 C186.799173,64.0845778 186.965686,64.5793779 188.164586,64.876258 L188.164586,65.3050847 L182.56972,65.3050847 L182.56972,64.876258 C183.835226,64.5134046 183.868528,63.9526311 183.868528,62.2703108 L183.868528,53.1989756 C183.868528,52.044442 183.602106,51.4836686 182.20339,51.1208152 L182.20339,50.7249751 L186.799173,49.7683616 L186.799173,53.1659889 C187.531834,51.2857486 189.396789,49.7683616 191.494864,49.7683616 C193.826058,49.7683616 195.324682,50.8239351 195.757618,53.2979356 C196.357068,51.3517219 198.355235,49.7683616 200.486612,49.7683616 C203.21744,49.7683616 204.849276,51.0548418 204.849276,55.0462293 L204.849276,62.2373241 C204.849276,64.0515912 205.049092,64.6123646 206.214689,64.9092447 Z M211.016949,56.9717514 L218.785311,56.9717514 C218.785311,52.1433099 216.627433,50.1920904 215.033922,50.1920904 C213.141629,50.1920904 211.016949,52.8047403 211.016949,56.9717514 Z M220.683561,61.2372881 L221.080679,61.4020716 C220.716654,62.9510358 218.896531,65.5875706 214.991539,65.5875706 C210.854895,65.5875706 207.909605,62.1600753 207.909605,57.8097928 C207.909605,52.9322034 211.020361,49.7683616 215.123912,49.7683616 C218.962717,49.7683616 221.610169,52.2071563 221.610169,57.3813559 L211.020361,57.3813559 C211.152733,61.8305085 213.138323,63.6101695 215.752682,63.873823 C217.738271,64.0715631 220.087884,62.8521657 220.683561,61.2372881 Z M238.983051,64.9092447 L238.983051,65.3050847 L233.379012,65.3050847 L233.379012,64.9092447 C234.646592,64.5463913 234.713307,63.9196445 234.713307,62.2373241 L234.713307,55.1451893 C234.713307,52.9020956 233.512441,51.4176953 231.310855,51.4176953 C229.576271,51.4176953 228.175261,53.0670289 227.908402,54.2545492 L227.908402,62.2703108 C227.908402,64.0845778 228.075189,64.5793779 229.276055,64.876258 L229.276055,65.3050847 L223.672016,65.3050847 L223.672016,64.876258 C224.939596,64.5134046 224.972953,63.9526311 224.972953,62.2703108 L224.972953,53.0670289 C224.972953,51.9124954 224.706094,51.4836686 223.305085,51.1208152 L223.305085,50.7249751 L227.908402,49.7683616 L227.908402,53.2319623 C228.608907,51.3187352 230.910566,49.7683616 233.012081,49.7683616 C235.714028,49.7683616 237.615398,51.0548418 237.615398,55.0462293 L237.615398,62.2373241 C237.615398,64.0515912 237.815543,64.6123646 238.983051,64.9092447 Z M249.665348,62.5741627 L250,62.7397345 C249.531487,64.196767 248.025552,65.5875706 246.084569,65.5875706 C243.641607,65.5875706 242.169137,64.5279107 242.169137,60.5210716 L242.169137,50.4211878 L240.462411,50.4211878 L240.39548,49.9907009 L242.169137,49.9907009 L242.169137,45.28846 L245.080612,44.8248588 L245.080612,49.9907009 L249.062974,49.9907009 L248.962578,50.4211878 L245.080612,50.4211878 L245.080612,60.4217284 C245.080612,63.0708783 246.051103,63.9649663 247.623969,63.9649663 C248.594461,63.9649663 249.397626,63.2695645 249.665348,62.5741627 Z" transform="translate(-100 -42)"/>
</svg>
