<?xml version="1.0" encoding="UTF-8"?>
<svg xmlns="http://www.w3.org/2000/svg" width="110" height="36" viewBox="0 0 110 36">
  <path fill="#FFF" fill-rule="evenodd" d="M134.576172,42.2773438 C135.793626,42.2773438 136.74902,42.6451786 137.442383,43.3808594 C138.135746,44.1165401 138.482422,45.1158791 138.482422,46.3789062 L138.482422,53 L136.177734,53 L136.177734,47.0234375 C136.177734,46.2096313 135.954755,45.5716169 135.508789,45.109375 C135.062823,44.6471331 134.445967,44.4160156 133.658203,44.4160156 C132.766272,44.4420574 132.056643,44.7659474 131.529297,45.3876953 C131.00195,46.0094432 130.738281,46.792313 130.738281,47.7363281 L130.738281,53 L128.443359,53 L128.443359,47.0234375 C128.443359,46.2096313 128.218752,45.5716169 127.769531,45.109375 C127.32031,44.6471331 126.711592,44.4160156 125.943359,44.4160156 C125.038407,44.4420574 124.319013,44.7659474 123.785156,45.3876953 C123.251299,46.0094432 122.984375,46.792313 122.984375,47.7363281 L122.984375,53 L120.699219,53 L120.699219,42.3554688 L122.984375,42.3554688 L122.984375,44.4160156 C123.694014,42.9902272 124.979808,42.2773438 126.841797,42.2773438 C127.785812,42.2773438 128.575192,42.5003233 129.209961,42.9462891 C129.84473,43.3922548 130.289061,44.0221313 130.542969,44.8359375 C131.194014,43.1301998 132.538401,42.2773438 134.576172,42.2773438 Z M145.70173,54.4648438 C145.369697,55.3046917 144.910717,55.9345682 144.324777,56.3544922 C143.738836,56.7744162 143.045484,56.984375 142.244699,56.984375 C141.762925,56.984375 141.325104,56.909506 140.931222,56.7597656 C140.53734,56.6100253 140.154857,56.382163 139.783761,56.0761719 L140.760324,54.2988281 C141.014231,54.4876312 141.248604,54.6210934 141.463449,54.6992188 C141.678293,54.7773441 141.906156,54.8164062 142.147042,54.8164062 C142.869702,54.8164062 143.406806,54.4257852 143.758371,53.6445312 L144.119699,52.84375 L139.725167,42.3554688 L142.098214,42.3554688 L145.281808,50.421875 L148.240792,42.3554688 L150.54548,42.3554688 L145.70173,54.4648438 Z M132.779297,69.8808594 L132.779297,75.3398438 C132.017574,75.8737006 131.101242,76.3098941 130.030273,76.6484375 C128.959305,76.9869809 127.935552,77.15625 126.958984,77.15625 C125.559238,77.15625 124.289719,76.8437531 123.150391,76.21875 C122.011062,75.5937469 121.114261,74.7376356 120.459961,73.6503906 C119.805661,72.5631456 119.478516,71.3457099 119.478516,69.9980469 C119.478516,68.6634048 119.815426,67.454107 120.489258,66.3701172 C121.163089,65.2861274 122.085932,64.4332713 123.257812,63.8115234 C124.429693,63.1897755 125.744784,62.8789062 127.203125,62.8789062 C128.244797,62.8789062 129.278315,63.0660789 130.303711,63.4404297 C131.329107,63.8147805 132.199866,64.3209604 132.916016,64.9589844 L130.923828,67.3808594 C130.416013,66.912107 129.828454,66.541017 129.161133,66.2675781 C128.493812,65.9941393 127.834639,65.8574219 127.183594,65.8574219 C126.421871,65.8574219 125.730146,66.0413393 125.108398,66.4091797 C124.486651,66.7770201 124.000002,67.2734344 123.648438,67.8984375 C123.296873,68.5234406 123.121094,69.2233034 123.121094,69.9980469 C123.121094,70.7858112 123.300128,71.4970671 123.658203,72.1318359 C124.016278,72.7666047 124.509437,73.2662742 125.137695,73.6308594 C125.765954,73.9954445 126.460934,74.1777344 127.222656,74.1777344 C127.580731,74.1777344 127.976235,74.1175136 128.40918,73.9970703 C128.842125,73.876627 129.273435,73.7122406 129.703125,73.5039062 L129.703125,69.8808594 L132.779297,69.8808594 Z M140.516183,66.1015625 C141.675043,66.1015625 142.702051,66.3277972 143.597238,66.7802734 C144.492425,67.2327497 145.182522,67.8756469 145.66755,68.7089844 C146.152579,69.5423219 146.395089,70.5058539 146.395089,71.5996094 C146.395089,72.6933648 146.152579,73.6568969 145.66755,74.4902344 C145.182522,75.3235719 144.492425,75.9697243 143.597238,76.4287109 C142.702051,76.8876976 141.675043,77.1171875 140.516183,77.1171875 C139.344302,77.1171875 138.315667,76.8876976 137.430246,76.4287109 C136.544824,75.9697243 135.854727,75.3235719 135.359933,74.4902344 C134.865139,73.6568969 134.617746,72.6933648 134.617746,71.5996094 C134.617746,70.5058539 134.865139,69.5423219 135.359933,68.7089844 C135.854727,67.8756469 136.544824,67.2327497 137.430246,66.7802734 C138.315667,66.3277972 139.344302,66.1015625 140.516183,66.1015625 Z M140.516183,68.8359375 C139.800034,68.8359375 139.218985,69.0963516 138.773019,69.6171875 C138.327053,70.1380234 138.104074,70.8118448 138.104074,71.6386719 C138.104074,72.4785198 138.327053,73.1555964 138.773019,73.6699219 C139.218985,74.1842474 139.800034,74.4414062 140.516183,74.4414062 C141.225822,74.4414062 141.803616,74.1842474 142.249581,73.6699219 C142.695547,73.1555964 142.918527,72.4785198 142.918527,71.6386719 C142.918527,70.8118448 142.695547,70.1380234 142.249581,69.6171875 C141.803616,69.0963516 141.225822,68.8359375 140.516183,68.8359375 Z M153.536272,66.1015625 C154.695132,66.1015625 155.72214,66.3277972 156.617327,66.7802734 C157.512514,67.2327497 158.202611,67.8756469 158.68764,68.7089844 C159.172668,69.5423219 159.415179,70.5058539 159.415179,71.5996094 C159.415179,72.6933648 159.172668,73.6568969 158.68764,74.4902344 C158.202611,75.3235719 157.512514,75.9697243 156.617327,76.4287109 C155.72214,76.8876976 154.695132,77.1171875 153.536272,77.1171875 C152.364391,77.1171875 151.335756,76.8876976 150.450335,76.4287109 C149.564914,75.9697243 148.874816,75.3235719 148.380022,74.4902344 C147.885228,73.6568969 147.637835,72.6933648 147.637835,71.5996094 C147.637835,70.5058539 147.885228,69.5423219 148.380022,68.7089844 C148.874816,67.8756469 149.564914,67.2327497 150.450335,66.7802734 C151.335756,66.3277972 152.364391,66.1015625 153.536272,66.1015625 Z M153.536272,68.8359375 C152.820123,68.8359375 152.239074,69.0963516 151.793108,69.6171875 C151.347143,70.1380234 151.124163,70.8118448 151.124163,71.6386719 C151.124163,72.4785198 151.347143,73.1555964 151.793108,73.6699219 C152.239074,74.1842474 152.820123,74.4414062 153.536272,74.4414062 C154.245911,74.4414062 154.823705,74.1842474 155.269671,73.6699219 C155.715637,73.1555964 155.938616,72.4785198 155.938616,71.6386719 C155.938616,70.8118448 155.715637,70.1380234 155.269671,69.6171875 C154.823705,69.0963516 154.245911,68.8359375 153.536272,68.8359375 Z M172.415737,77 L168.958705,77 L168.958705,75.5839844 C168.170941,76.6256562 167.090223,77.1432292 165.716518,77.1367188 C164.713909,77.1367188 163.833384,76.9039737 163.074916,76.4384766 C162.316449,75.9729794 161.727262,75.3203167 161.307338,74.4804688 C160.887414,73.6406208 160.677455,72.6673232 160.677455,71.5605469 C160.677455,70.4667914 160.884159,69.5065146 161.297573,68.6796875 C161.710986,67.8528604 162.292035,67.2132184 163.040737,66.7607422 C163.789438,66.308266 164.655315,66.0820312 165.638393,66.0820312 C166.348032,66.0820312 166.982791,66.2154935 167.54269,66.4824219 C168.102588,66.7493503 168.574589,67.1367162 168.958705,67.6445312 L168.958705,62.15625 L172.415737,62.15625 L172.415737,77 Z M166.556362,74.4609375 C167.279022,74.4609375 167.86007,74.2005234 168.299526,73.6796875 C168.738981,73.1588516 168.958705,72.4785198 168.958705,71.6386719 C168.958705,70.8118448 168.738981,70.1380234 168.299526,69.6171875 C167.86007,69.0963516 167.279022,68.8359375 166.556362,68.8359375 C165.833702,68.8359375 165.25428,69.0930964 164.81808,69.6074219 C164.38188,70.1217474 164.157273,70.7988239 164.144252,71.6386719 C164.157273,72.4785198 164.383508,73.1588516 164.822963,73.6796875 C165.262419,74.2005234 165.840212,74.4609375 166.556362,74.4609375 Z M181.597935,62.9960938 C183.355757,62.9960938 184.718048,63.4127563 185.684849,64.2460938 C186.651651,65.0794312 187.135045,66.2578049 187.135045,67.78125 C187.135045,69.3697996 186.651651,70.6002561 185.684849,71.4726562 C184.718048,72.3450564 183.355757,72.78125 181.597935,72.78125 L178.375279,72.78125 L178.375279,77 L176.011998,77 L176.011998,62.9960938 L181.597935,62.9960938 Z M178.375279,70.6621094 L181.500279,70.6621094 C182.594035,70.6621094 183.430615,70.4244815 184.010045,69.9492188 C184.589475,69.473956 184.879185,68.770838 184.879185,67.8398438 C184.879185,66.9348913 184.589475,66.2545596 184.010045,65.7988281 C183.430615,65.3430967 182.594035,65.1152344 181.500279,65.1152344 L178.375279,65.1152344 L178.375279,70.6621094 Z M189.715681,77 L189.715681,62.15625 L192.020368,62.15625 L192.020368,77 L189.715681,77 Z M202.17913,75.7011719 C201.417407,76.6321661 200.245544,77.0976562 198.663505,77.0976562 C197.914803,77.0976562 197.257257,76.9544285 196.690848,76.6679688 C196.124439,76.381509 195.688246,75.9892603 195.382255,75.4912109 C195.076263,74.9931616 194.92327,74.4283886 194.92327,73.796875 C194.92327,72.8203076 195.276457,72.0472034 195.98284,71.4775391 C196.689224,70.9078748 197.67717,70.6165365 198.946708,70.6035156 L202.159598,70.6035156 L202.159598,70.28125 C202.159598,69.6041633 201.943129,69.0784524 201.510184,68.7041016 C201.077239,68.3297507 200.447363,68.1425781 199.620536,68.1425781 C198.591885,68.1425781 197.546973,68.5006475 196.48577,69.2167969 L195.538505,67.6152344 C196.352311,67.1334611 197.083098,66.7900401 197.730887,66.5849609 C198.378677,66.3798818 199.174568,66.2773438 200.118583,66.2773438 C201.479267,66.2773438 202.533944,66.6077441 203.282645,67.2685547 C204.031347,67.9293653 204.412202,68.8456973 204.425223,70.0175781 L204.444755,77 L202.17913,77 L202.17913,75.7011719 Z M199.14202,75.28125 C199.955826,75.28125 200.645924,75.0908222 201.212333,74.7099609 C201.778742,74.3290997 202.094494,73.8457061 202.159598,73.2597656 L202.159598,72.2832031 L199.278739,72.2832031 C198.517016,72.2832031 197.960381,72.3922515 197.608817,72.6103516 C197.257253,72.8284516 197.081473,73.1914037 197.081473,73.6992188 C197.081473,74.180992 197.265391,74.5651027 197.633231,74.8515625 C198.001071,75.1380223 198.503996,75.28125 199.14202,75.28125 Z M212.171875,66.2773438 C213.11589,66.2773438 213.960608,66.4270818 214.706055,66.7265625 C215.451501,67.0260432 216.071612,67.4557264 216.566406,68.015625 L215.306641,69.5 C214.531897,68.6992147 213.545579,68.2988281 212.347656,68.2988281 C211.403641,68.2988281 210.627282,68.6129526 210.018555,69.2412109 C209.409828,69.8694693 209.105469,70.688146 209.105469,71.6972656 C209.105469,72.6998748 209.40169,73.5169239 209.994141,74.1484375 C210.586592,74.7799511 211.345048,75.0957031 212.269531,75.0957031 C213.630215,75.0957031 214.675127,74.6692751 215.404297,73.8164062 L216.683594,75.0957031 C216.201821,75.7337271 215.578454,76.2236311 214.813477,76.5654297 C214.048499,76.9072283 213.167974,77.078125 212.171875,77.078125 C211.130203,77.078125 210.202478,76.8518903 209.388672,76.3994141 C208.574866,75.9469378 207.941734,75.3138062 207.489258,74.5 C207.036782,73.6861938 206.810547,72.7519584 206.810547,71.6972656 C206.810547,70.629552 207.036782,69.6871786 207.489258,68.8701172 C207.941734,68.0530558 208.574866,67.4166689 209.388672,66.9609375 C210.202478,66.5052061 211.130203,66.2773438 212.171875,66.2773438 Z M223.336496,66.2773438 C225.016192,66.2773438 226.272689,66.7509718 227.106027,67.6982422 C227.939364,68.6455125 228.356027,69.978507 228.356027,71.6972656 C228.356027,71.8730478 228.343006,72.1595032 228.316964,72.5566406 L220.270089,72.5566406 C220.458892,73.3834677 220.846258,74.0345028 221.432199,74.5097656 C222.018139,74.9850284 222.731023,75.2226562 223.570871,75.2226562 C224.14379,75.2226562 224.69066,75.1152354 225.211496,74.9003906 C225.732332,74.6855458 226.184801,74.3795593 226.568918,73.9824219 L227.789621,75.28125 C227.255764,75.8541695 226.616122,76.2968734 225.870675,76.609375 C225.125229,76.9218766 224.300042,77.078125 223.395089,77.078125 C222.314355,77.078125 221.363843,76.8518903 220.543527,76.3994141 C219.72321,75.9469378 219.086823,75.3138062 218.634347,74.5 C218.181871,73.6861938 217.955636,72.7519584 217.955636,71.6972656 C217.955636,70.6425729 218.181871,69.7067098 218.634347,68.8896484 C219.086823,68.0725871 219.72321,67.432945 220.543527,66.9707031 C221.363843,66.5084612 222.294824,66.2773438 223.336496,66.2773438 Z M226.315011,70.8769531 C226.275949,70.0240843 225.989493,69.3518905 225.455636,68.8603516 C224.921779,68.3688126 224.221917,68.1230469 223.356027,68.1230469 C222.516179,68.1230469 221.819571,68.3688126 221.266183,68.8603516 C220.712795,69.3518905 220.367746,70.0240843 220.231027,70.8769531 L226.315011,70.8769531 Z" transform="translate(-119 -42)"/>
</svg>
