<?xml version="1.0" encoding="UTF-8"?>
<svg xmlns="http://www.w3.org/2000/svg" xmlns:xlink="http://www.w3.org/1999/xlink" width="17" height="20" viewBox="0 0 17 20">
  <defs>
    <polygon id="project-a" points="0 0 16.023 0 16.023 19.971 0 19.971"/>
  </defs>
  <g fill="none" fill-rule="evenodd">
    <mask id="project-b" fill="#fff">
      <use xlink:href="#project-a"/>
    </mask>
    <path fill="#000" d="M10.9725233,5.92227907 C10.4917093,5.92227907 10.1004302,5.53111628 10.1004302,5.05018605 L10.1004302,3.7582093 L12.2645,5.92227907 L10.9725233,5.92227907 Z M2.20415116,3.07611628 C2.20415116,2.59518605 2.59519767,2.20390698 3.07612791,2.20390698 L7.89647674,2.20390698 L7.89647674,5.05018605 C7.89647674,6.74634884 9.27636047,8.12634884 10.9725233,8.12634884 L13.8188023,8.12634884 L13.8188023,16.8947209 C13.8188023,17.3756512 13.4275233,17.7669302 12.9467093,17.7669302 L3.07612791,17.7669302 C2.59519767,17.7669302 2.20415116,17.3756512 2.20415116,16.8947209 L2.20415116,3.07611628 Z M16.0220581,6.95204651 C16.0114767,6.85948837 15.9918256,6.76809302 15.9635698,6.68018605 L15.9635698,6.58425581 L15.9527558,6.56111628 C15.9001977,6.44844186 15.8300814,6.3454186 15.742407,6.25204651 L9.81752326,0.32727907 C9.72682558,0.241930233 9.62368605,0.172046512 9.51112791,0.119488372 L9.48787209,0.10855814 L9.39159302,0.10855814 C9.29310465,0.0589069767 9.18810465,0.0230930233 9.07938372,0.00204651163 L3.07612791,-4.65116279e-05 C1.37996512,-4.65116279e-05 8.13953488e-05,1.37995349 8.13953488e-05,3.07611628 L8.13953488e-05,16.8947209 C8.13953488e-05,18.591 1.37996512,19.9708837 3.07612791,19.9708837 L12.9467093,19.9708837 C14.6427558,19.9708837 16.0227558,18.591 16.0227558,16.8947209 L16.0227558,6.96506977 L16.0220581,6.95204651 Z" mask="url(#project-b)"/>
  </g>
</svg>
