<?xml version="1.0" encoding="UTF-8"?>
<svg xmlns="http://www.w3.org/2000/svg" width="20" height="30" viewBox="0 0 20 30">
  <g fill-rule="evenodd">
    <path fill-rule="nonzero" d="M9,2 C5.13400675,2 2,5.13400675 2,9 L2,21 C2,24.8659932 5.13400675,28 9,28 L11,28 C14.8659932,28 18,24.8659932 18,21 L18,9 C18,5.13400675 14.8659932,2 11,2 L9,2 Z M9,0 L11,0 C15.9705627,-9.13077564e-16 20,4.02943725 20,9 L20,21 C20,25.9705627 15.9705627,30 11,30 L9,30 C4.02943725,30 0,25.9705627 0,21 L0,9 C0,4.02943725 4.02943725,9.13077564e-16 9,0 Z"/>
    <circle cx="10" cy="8" r="2"/>
  </g>
</svg>
