<?xml version="1.0" encoding="UTF-8"?>
<svg xmlns="http://www.w3.org/2000/svg" width="165" height="34" viewBox="0 0 165 34">
  <path fill="#FFF" fill-rule="evenodd" d="M100.466811,65.40625 C101.772807,65.40625 103.07325,65.5860985 104.368178,65.9458008 C105.663106,66.3055031 106.875008,66.8173795 108.00392,67.4814453 L105.995131,71.2832031 C103.72624,70.0546814 101.800478,69.4404297 100.217787,69.4404297 C99.675467,69.4404297 99.2410638,69.5483388 98.9145647,69.7641602 C98.5880657,69.9799815 98.4248186,70.2926412 98.4248186,70.7021484 C98.4248186,71.1337912 98.6738396,71.4796536 99.1718889,71.7397461 C99.6699383,71.9998385 100.483407,72.290363 101.612319,72.6113281 C102.907247,72.9765643 103.986338,73.3445619 104.849623,73.715332 C105.712909,74.0861021 106.459972,74.6505496 107.090834,75.4086914 C107.721697,76.1668332 108.037123,77.1490825 108.037123,78.3554688 C108.037123,80.1927175 107.323263,81.6315052 105.895522,82.671875 C104.46778,83.7122448 102.608424,84.2324219 100.317397,84.2324219 C98.7789776,84.2324219 97.2959195,84.0110699 95.868178,83.5683594 C94.4404365,83.1256488 93.1842642,82.489262 92.0996233,81.6591797 L93.9589983,77.9072266 C94.9772326,78.637699 96.0590903,79.2021464 97.2046038,79.6005859 C98.3501173,79.9990254 99.4375088,80.1982422 100.466811,80.1982422 C101.075538,80.1982422 101.559745,80.0903331 101.919448,79.8745117 C102.27915,79.6586903 102.458998,79.3460307 102.458998,78.9365234 C102.458998,78.4606096 102.19891,78.0870782 101.678725,77.815918 C101.15854,77.5447578 100.345072,77.2486995 99.2382952,76.9277344 C97.9655024,76.5624982 96.9113137,76.1945006 96.0756975,75.8237305 C95.2400814,75.4529604 94.5206875,74.8995805 93.9174944,74.1635742 C93.3143013,73.4275679 93.0127093,72.4563862 93.0127093,71.25 C93.0127093,69.4127512 93.7044341,67.9794973 95.0879046,66.9501953 C96.471375,65.9208933 98.2643259,65.40625 100.466811,65.40625 Z M120.309947,65.4726562 C122.280009,65.4726562 124.025922,65.8572553 125.54774,66.6264648 C127.069557,67.3956744 128.242723,68.4885997 129.067271,69.9052734 C129.89182,71.3219472 130.304088,72.9599516 130.304088,74.8193359 C130.304088,76.6787202 129.89182,78.3167247 129.067271,79.7333984 C128.242723,81.1500722 127.069557,82.2485313 125.54774,83.0288086 C124.025922,83.8090859 122.280009,84.1992188 120.309947,84.1992188 C118.31775,84.1992188 116.569069,83.8090859 115.063853,83.0288086 C113.558637,82.2485313 112.385472,81.1500722 111.544322,79.7333984 C110.703172,78.3167247 110.282603,76.6787202 110.282603,74.8193359 C110.282603,72.9599516 110.703172,71.3219472 111.544322,69.9052734 C112.385472,68.4885997 113.558637,67.3956744 115.063853,66.6264648 C116.569069,65.8572553 118.31775,65.4726562 120.309947,65.4726562 Z M120.309947,70.1210938 C119.092493,70.1210938 118.10471,70.5637977 117.346568,71.4492188 C116.588426,72.3346398 116.209361,73.4801362 116.209361,74.8857422 C116.209361,76.3134837 116.588426,77.4645139 117.346568,78.3388672 C118.10471,79.2132205 119.092493,79.6503906 120.309947,79.6503906 C121.516333,79.6503906 122.498583,79.2132205 123.256724,78.3388672 C124.014866,77.4645139 124.393931,76.3134837 124.393931,74.8857422 C124.393931,73.4801362 124.014866,72.3346398 123.256724,71.4492188 C122.498583,70.5637977 121.516333,70.1210938 120.309947,70.1210938 Z M150.578864,84 L146.976325,72.3789062 L143.357185,84 L137.513435,84 L130.823005,65.671875 L136.799568,65.671875 L140.584724,78.3554688 L144.253669,65.671875 L149.864997,65.671875 L153.633552,78.3554688 L157.3357,65.671875 L163.079841,65.671875 L156.389411,84 L150.578864,84 Z M173.078251,65.4726562 C176.066547,65.4726562 178.360306,66.3386958 179.959598,68.0708008 C181.55889,69.8029058 182.358524,72.2128752 182.358524,75.3007812 C182.358524,75.7988306 182.347456,76.1695951 182.325321,76.4130859 L169.442508,76.4130859 C169.741338,77.4977268 170.261515,78.3360973 171.003055,78.9282227 C171.744595,79.520348 172.663206,79.8164062 173.758915,79.8164062 C174.577929,79.8164062 175.358195,79.658693 176.099735,79.3432617 C176.841275,79.0278305 177.521932,78.5602245 178.141727,77.9404297 L181.229618,80.9785156 C180.27779,82.0188854 179.121226,82.8157524 177.759891,83.3691406 C176.398556,83.9225288 174.893363,84.1992188 173.244266,84.1992188 C171.274204,84.1992188 169.558727,83.8146197 168.097782,83.0454102 C166.636837,82.2762006 165.507942,81.1888091 164.711063,79.7832031 C163.914184,78.3775971 163.515751,76.7451265 163.515751,74.8857422 C163.515751,73.0263579 163.919718,71.3828196 164.727665,69.9550781 C165.535611,68.5273366 166.658973,67.4233437 168.097782,66.6430664 C169.536591,65.8627891 171.196731,65.4726562 173.078251,65.4726562 Z M176.68079,73.2587891 C176.68079,72.1409449 176.357062,71.2444695 175.709598,70.5693359 C175.062134,69.8942024 174.207162,69.5566406 173.144657,69.5566406 C172.148558,69.5566406 171.310188,69.8886686 170.62952,70.5527344 C169.948853,71.2168002 169.514449,72.1188094 169.326297,73.2587891 L176.68079,73.2587891 Z M192.556152,65.40625 C193.862148,65.40625 195.162591,65.5860985 196.45752,65.9458008 C197.752448,66.3055031 198.96435,66.8173795 200.093262,67.4814453 L198.084473,71.2832031 C195.815581,70.0546814 193.889819,69.4404297 192.307129,69.4404297 C191.764808,69.4404297 191.330405,69.5483388 191.003906,69.7641602 C190.677407,69.9799815 190.51416,70.2926412 190.51416,70.7021484 C190.51416,71.1337912 190.763181,71.4796536 191.26123,71.7397461 C191.75928,71.9998385 192.572748,72.290363 193.70166,72.6113281 C194.996589,72.9765643 196.075679,73.3445619 196.938965,73.715332 C197.80225,74.0861021 198.549313,74.6505496 199.180176,75.4086914 C199.811038,76.1668332 200.126465,77.1490825 200.126465,78.3554688 C200.126465,80.1927175 199.412605,81.6315052 197.984863,82.671875 C196.557122,83.7122448 194.697765,84.2324219 192.406738,84.2324219 C190.868319,84.2324219 189.385261,84.0110699 187.95752,83.5683594 C186.529778,83.1256488 185.273606,82.489262 184.188965,81.6591797 L186.04834,77.9072266 C187.066574,78.637699 188.148432,79.2021464 189.293945,79.6005859 C190.439459,79.9990254 191.52685,80.1982422 192.556152,80.1982422 C193.164879,80.1982422 193.649087,80.0903331 194.008789,79.8745117 C194.368491,79.6586903 194.54834,79.3460307 194.54834,78.9365234 C194.54834,78.4606096 194.288251,78.0870782 193.768066,77.815918 C193.247882,77.5447578 192.434413,77.2486995 191.327637,76.9277344 C190.054844,76.5624982 189.000655,76.1945006 188.165039,75.8237305 C187.329423,75.4529604 186.610029,74.8995805 186.006836,74.1635742 C185.403643,73.4275679 185.102051,72.4563862 185.102051,71.25 C185.102051,69.4127512 185.793776,67.9794973 187.177246,66.9501953 C188.560717,65.9208933 190.353667,65.40625 192.556152,65.40625 Z M203.899289,84 L203.899289,65.671875 L209.75964,65.671875 L209.75964,84 L203.899289,84 Z M206.854367,57.3046875 C207.761923,57.3046875 208.506219,57.5952119 209.087277,58.1762695 C209.668334,58.7573271 209.958859,59.5016231 209.958859,60.4091797 C209.958859,61.3167363 209.668334,62.0637992 209.087277,62.6503906 C208.506219,63.2369821 207.761923,63.5302734 206.854367,63.5302734 C205.94681,63.5302734 205.205281,63.2369821 204.629757,62.6503906 C204.054234,62.0637992 203.766476,61.3167363 203.766476,60.4091797 C203.766476,59.5016231 204.054234,58.7573271 204.629757,58.1762695 C205.205281,57.5952119 205.94681,57.3046875 206.854367,57.3046875 Z M232.458245,82.3398438 C232.458245,84.0442794 232.045977,85.5411719 231.221429,86.8305664 C230.39688,88.1199609 229.234782,89.1105109 227.7351,89.8022461 C226.235418,90.4939813 224.500573,90.8398438 222.530511,90.8398438 C220.992091,90.8398438 219.520101,90.6184918 218.114495,90.1757812 C216.708889,89.7330707 215.45825,89.146488 214.362542,88.4160156 L216.404534,84.4482422 C217.245684,85.0348337 218.158761,85.4858383 219.143792,85.8012695 C220.128823,86.1167008 221.108305,86.2744141 222.082268,86.2744141 C223.487874,86.2744141 224.594634,85.9340854 225.402581,85.253418 C226.210528,84.5727505 226.614495,83.6569068 226.614495,82.5058594 L226.614495,80.5634766 C226.005768,81.3603555 225.258705,81.9690734 224.373284,82.3896484 C223.487863,82.8102235 222.475178,83.0205078 221.335198,83.0205078 C219.796779,83.0205078 218.432698,82.6497433 217.242913,81.9082031 C216.053128,81.166663 215.12345,80.1235419 214.45385,78.7788086 C213.784251,77.4340753 213.449456,75.8873785 213.449456,74.1386719 C213.449456,72.4121007 213.778717,70.893073 214.437249,69.581543 C215.095781,68.270013 216.025459,67.2573278 217.226311,66.543457 C218.427164,65.8295863 219.796779,65.4726562 221.335198,65.4726562 C222.46411,65.4726562 223.471261,65.6829406 224.356682,66.1035156 C225.242104,66.5240906 225.9947,67.1272747 226.614495,67.9130859 L226.614495,65.671875 L232.458245,65.671875 L232.458245,82.3398438 Z M222.796136,78.7705078 C223.936115,78.7705078 224.857493,78.3554729 225.560296,77.5253906 C226.263099,76.6953083 226.614495,75.6217514 226.614495,74.3046875 C226.614495,72.9654881 226.263099,71.8836304 225.560296,71.059082 C224.857493,70.2345336 223.936115,69.8222656 222.796136,69.8222656 C221.645088,69.8222656 220.712643,70.2345336 219.998772,71.059082 C219.284902,71.8836304 218.927972,72.9654881 218.927972,74.3046875 C218.927972,75.6217514 219.284902,76.6953083 219.998772,77.5253906 C220.712643,78.3554729 221.645088,78.7705078 222.796136,78.7705078 Z M249.429311,65.40625 C251.454712,65.40625 253.078882,66.0454038 254.301869,67.3237305 C255.524857,68.6020572 256.136342,70.3092341 256.136342,72.4453125 L256.136342,84 L250.275991,84 L250.275991,74.0722656 C250.275991,73.0097603 249.988233,72.165856 249.412709,71.5405273 C248.837186,70.9151987 248.051386,70.6025391 247.055287,70.6025391 C246.014918,70.6025391 245.159946,70.9428677 244.490346,71.6235352 C243.820746,72.3042026 243.430613,73.1979111 243.319936,74.3046875 L243.319936,84 L237.426381,84 L237.426381,65.671875 L243.319936,65.671875 L243.319936,68.6601562 C244.614864,66.5240779 246.651302,65.4394533 249.429311,65.40625 Z" transform="translate(-92 -57)"/>
</svg>
