<?xml version="1.0" encoding="UTF-8"?>
<svg xmlns="http://www.w3.org/2000/svg" width="39" height="36" viewBox="0 0 39 36">
  <path d="M27.2190476,11.7809524 C27.5766983,12.1415479 28.0635475,12.3443778 28.5714286,12.3443778 C29.0793096,12.3443778 29.5661589,12.1415479 29.9238095,11.7809524 L37.5428571,4.16190476 C38.2897565,3.41500539 38.2897565,2.20404223 37.5428571,1.45714286 C36.7959578,0.710243481 35.5849946,0.710243481 34.8380952,1.45714286 L28.5714286,7.74285714 L26.1142857,5.26666667 C25.6311265,4.78350749 24.9269067,4.59481235 24.266899,4.77166088 C23.6068913,4.94850942 23.0913666,5.46403412 22.914518,6.12404183 C22.7376695,6.78404955 22.9263646,7.48826939 23.4095238,7.97142857 L27.2190476,11.7809524 Z M36.1904762,10.4285714 C35.1385052,10.4285714 34.2857143,11.2813624 34.2857143,12.3333333 L34.2857143,29.4761905 C34.2857143,30.5281614 33.4329233,31.3809524 32.3809524,31.3809524 L5.71428571,31.3809524 C4.66231476,31.3809524 3.80952381,30.5281614 3.80952381,29.4761905 L3.80952381,11.2095238 L15.0095238,22.4285714 C16.0785614,23.4888797 17.5228845,24.0844063 19.0285714,24.0857143 C20.5721184,24.0777878 22.0503526,23.4618569 23.1428571,22.3714286 L26.4190476,19.0952381 C27.165947,18.3483387 27.165947,17.1373756 26.4190476,16.3904762 C25.6721482,15.6435768 24.4611851,15.6435768 23.7142857,16.3904762 L20.3809524,19.7238095 C19.6402981,20.449796 18.45494,20.449796 17.7142857,19.7238095 L6.4952381,8.52380952 L17.1428571,8.52380952 C18.1948281,8.52380952 19.047619,7.67101857 19.047619,6.61904762 C19.047619,5.56707667 18.1948281,4.71428571 17.1428571,4.71428571 L5.71428571,4.71428571 C2.55837286,4.71428571 8.45884209e-16,7.27265857 0,10.4285714 L0,29.4761905 C8.45884209e-16,32.6321033 2.55837286,35.1904762 5.71428571,35.1904762 L32.3809524,35.1904762 C35.5368652,35.1904762 38.0952381,32.6321033 38.0952381,29.4761905 L38.0952381,12.3333333 C38.0952381,11.2813624 37.2424471,10.4285714 36.1904762,10.4285714 Z"/>
</svg>
