<?xml version="1.0" encoding="UTF-8"?>
<svg xmlns="http://www.w3.org/2000/svg" width="150" height="32" viewBox="0 0 150 32">
  <path fill="#FFF" fill-rule="evenodd" d="M108.962004,48.5253304 L100,48.5253304 L100,43.9823789 L123.127753,43.9823789 L123.127753,48.5253304 L114.165749,48.5253304 L114.165749,73.222467 L108.962004,73.222467 L108.962004,48.5253304 Z M134.69163,70.8564756 L134.567731,70.8564756 C134.072134,71.7410197 133.273684,72.4666115 132.172357,73.0332725 C131.07103,73.5999336 129.818289,73.8832599 128.414097,73.8832599 C127.615635,73.8832599 126.782769,73.779604 125.915474,73.5722889 C125.048178,73.3649739 124.249728,73.019454 123.520099,72.5357189 C122.79047,72.0519839 122.184749,71.4162273 121.702919,70.6284302 C121.221088,69.8406331 120.980176,68.8662671 120.980176,67.7053029 C120.980176,66.2126347 121.400051,65.0240463 122.239813,64.1395022 C123.079575,63.2549581 124.160236,62.5777391 125.481828,62.107825 C126.803421,61.637911 128.26954,61.3269431 129.880231,61.1749121 C131.490922,61.022881 133.067173,60.9468667 134.609031,60.9468667 L134.609031,60.4493131 C134.609031,59.2054229 134.161623,58.2863401 133.266795,57.692037 C132.371967,57.0977339 131.305072,56.8005868 130.066079,56.8005868 C129.019819,56.8005868 128.014873,57.0217195 127.051211,57.4639916 C126.08755,57.9062636 125.2891,58.4452746 124.655837,59.0810407 L122.095264,56.0542564 C123.224125,55.0038603 124.525048,54.216075 125.998073,53.6908769 C127.471098,53.1656788 128.96475,52.9030837 130.479075,52.9030837 C132.241198,52.9030837 133.693552,53.151858 134.836178,53.6494141 C135.978805,54.1469702 136.880503,54.7965475 137.5413,55.5981656 C138.202096,56.3997837 138.66327,57.2981354 138.924835,58.2932475 C139.1864,59.2883597 139.317181,60.2834569 139.317181,61.2785691 L139.317181,73.3857063 L134.69163,73.3857063 L134.69163,70.8564756 Z M134.69163,64.3017621 L133.565922,64.3017621 C132.759855,64.3017621 131.912108,64.3361781 131.022656,64.405011 C130.133203,64.473844 129.313251,64.6252742 128.562775,64.8593062 C127.8123,65.0933382 127.186913,65.4237313 126.686595,65.8504956 C126.186278,66.2772598 125.936123,66.8623311 125.936123,67.6057269 C125.936123,68.0737909 126.040355,68.4661328 126.24882,68.7827643 C126.457285,69.0993959 126.728287,69.3540739 127.061831,69.5468062 C127.395376,69.7395384 127.770608,69.8772022 128.187539,69.9598018 C128.60447,70.0424013 129.021395,70.0837004 129.438326,70.0837004 C131.161641,70.0837004 132.468005,69.6294098 133.357458,68.720815 C134.24691,67.8122201 134.69163,66.5732457 134.69163,65.0038546 L134.69163,64.3017621 Z M145.099119,53.4836184 L149.828573,53.4836184 L149.828573,56.6765592 L149.911545,56.6765592 C150.35407,55.6813519 151.121561,54.8036475 152.214043,54.0434197 C153.306524,53.2831919 154.599505,52.9030837 156.093024,52.9030837 C157.392939,52.9030837 158.506147,53.1311486 159.432682,53.5872853 C160.359217,54.043422 161.119794,54.6446841 161.714436,55.3910896 C162.309078,56.137495 162.744681,56.9944663 163.021259,57.9620289 C163.297837,58.9295916 163.436123,59.924784 163.436123,60.9476359 L163.436123,73.3876652 L158.457751,73.3876652 L158.457751,62.3575059 C158.457751,61.7769683 158.416265,61.1687952 158.333292,60.5329683 C158.250319,59.8971414 158.070546,59.3235236 157.793968,58.8120976 C157.517391,58.3006716 157.137102,57.8790971 156.653091,57.5473613 C156.16908,57.2156255 155.526047,57.0497601 154.723972,57.0497601 C153.921897,57.0497601 153.230463,57.2087145 152.64965,57.5266279 C152.068837,57.8445414 151.591748,58.2522938 151.218368,58.7498974 C150.844988,59.2475011 150.561501,59.8211189 150.367896,60.4707682 C150.174292,61.1204174 150.077491,61.7769679 150.077491,62.4404395 L150.077491,73.3876652 L145.099119,73.3876652 L145.099119,53.4836184 Z M189.207048,73.3035643 L184.508005,73.3035643 L184.508005,70.3222724 L184.425566,70.3222724 C183.738568,71.4816695 182.783655,72.3650064 181.560798,72.9723096 C180.337942,73.5796129 179.025795,73.8832599 177.624319,73.8832599 C176.112924,73.8832599 174.759558,73.6003161 173.564181,73.0344199 C172.368805,72.4685237 171.352063,71.709406 170.513925,70.7570442 C169.675788,69.8046823 169.030019,68.686709 168.5766,67.4030909 C168.123182,66.1194727 167.896476,64.7461598 167.896476,63.2831112 C167.896476,61.8200625 168.130052,60.4536507 168.59721,59.1838349 C169.064369,57.9140191 169.723877,56.8098479 170.575755,55.8712884 C171.427632,54.9327289 172.444374,54.1943144 173.626011,53.6560229 C174.807647,53.1177314 176.099184,52.8485897 177.50066,52.8485897 C178.407498,52.8485897 179.218143,52.9521058 179.932621,53.159141 C180.647099,53.3661762 181.272258,53.6215157 181.808117,53.9251673 C182.343975,54.228819 182.804257,54.5600703 183.188976,54.9189313 C183.573695,55.2777923 183.889709,55.6228458 184.137028,55.9541021 L184.260687,55.9541021 L184.260687,42 L189.207048,42 L189.207048,73.3035643 Z M172.852423,63.2690067 C172.852423,64.0449094 172.969857,64.8208004 173.204727,65.5967031 C173.439598,66.3726058 173.791899,67.0653657 174.261641,67.6750036 C174.731383,68.2846414 175.325459,68.7834285 176.043887,69.1713798 C176.762315,69.5593312 177.605075,69.753304 178.57219,69.753304 C179.484041,69.753304 180.299169,69.5662588 181.017597,69.1921629 C181.736026,68.8180669 182.350826,68.3262074 182.862015,67.7165696 C183.373205,67.1069317 183.760045,66.4210994 184.022547,65.6590522 C184.28505,64.8970049 184.4163,64.1280414 184.4163,63.3521387 C184.4163,62.576236 184.28505,61.8003449 184.022547,61.0244422 C183.760045,60.2485395 183.373205,59.5557797 182.862015,58.9461418 C182.350826,58.336504 181.736026,57.8377169 181.017597,57.4497655 C180.299169,57.0618142 179.484041,56.8678414 178.57219,56.8678414 C177.605075,56.8678414 176.762315,57.0548866 176.043887,57.4289825 C175.325459,57.8030785 174.731383,58.294938 174.261641,58.9045758 C173.791899,59.5142136 173.439598,60.2000459 173.204727,60.9620932 C172.969857,61.7241405 172.852423,62.493104 172.852423,63.2690067 Z M209.361233,61.3281938 C209.361233,60.6949308 209.271025,60.0892099 209.090604,59.5110132 C208.910183,58.9328165 208.625678,58.4234604 208.23708,57.9829295 C207.848481,57.5423987 207.355801,57.1913559 206.759025,56.9297907 C206.162249,56.6682256 205.461395,56.5374449 204.656441,56.5374449 C203.157562,56.5374449 201.887697,56.9848524 200.846809,57.8796806 C199.80592,58.7745089 199.229971,59.9240018 199.118943,61.3281938 L209.361233,61.3281938 Z M214.317181,63.6409692 L214.317181,64.3017621 C214.317181,64.5220275 214.303358,64.7422896 214.275711,64.9625551 L199.139338,64.9625551 C199.194631,65.6784177 199.381241,66.3323208 199.699176,66.9242841 C200.017111,67.5162475 200.438713,68.0256036 200.963996,68.4523678 C201.489279,68.8791321 202.08367,69.2164085 202.747186,69.464207 C203.410701,69.7120056 204.101853,69.8359031 204.820661,69.8359031 C206.064753,69.8359031 207.115304,69.6087578 207.972345,69.1544604 C208.829386,68.7001629 209.53436,68.0737925 210.08729,67.2753304 L213.404851,69.9185022 C211.441951,72.5616872 208.594406,73.8832599 204.862131,73.8832599 C203.313928,73.8832599 201.890155,73.6423482 200.590771,73.1605176 C199.291386,72.678687 198.164809,71.9972511 197.211005,71.1161894 C196.257201,70.2351278 195.510758,69.1544668 194.971651,67.874174 C194.432545,66.5938813 194.162996,65.1415279 194.162996,63.5170705 C194.162996,61.9201462 194.432545,60.4677929 194.971651,59.159967 C195.510758,57.852141 196.25029,56.7370641 197.19027,55.8147026 C198.130251,54.8923412 199.243005,54.1764893 200.528566,53.6671256 C201.814128,53.1577618 203.203343,52.9030837 204.696253,52.9030837 C206.078577,52.9030837 207.357208,53.130229 208.532183,53.5845264 C209.707159,54.0388239 210.723152,54.7133766 211.580193,55.6082048 C212.437233,56.5030331 213.107651,57.6181101 213.591464,58.9534692 C214.075278,60.2888283 214.317181,61.8513126 214.317181,63.6409692 Z M242.670485,52.9030837 C243.967995,52.9030837 245.079144,53.1311486 246.003965,53.5872853 C246.928786,54.043422 247.687956,54.6446841 248.281498,55.3910896 C248.87504,56.137495 249.309837,56.9944663 249.585903,57.9620289 C249.861969,58.9295916 250,59.924784 250,60.9476359 L250,73.3876652 L245.030837,73.3876652 L245.030837,62.3575059 C245.030837,61.7769683 244.989428,61.1687952 244.906608,60.5329683 C244.823788,59.8971414 244.644348,59.3235236 244.368282,58.8120976 C244.092216,58.3006716 243.712631,57.8790971 243.229515,57.5473613 C242.7464,57.2156255 242.104556,57.0497601 241.303965,57.0497601 C240.53098,57.0497601 239.868432,57.2156255 239.3163,57.5473613 C238.764168,57.8790971 238.308666,58.3075827 237.94978,58.832831 C237.590894,59.3580793 237.328635,59.9455192 237.162996,60.5951685 C236.997356,61.2448177 236.914537,61.8875461 236.914537,62.523373 L236.914537,73.3876652 L231.945374,73.3876652 L231.945374,61.3623036 C231.945374,60.1182944 231.648608,59.0885468 231.055066,58.2730297 C230.461524,57.4575126 229.529815,57.0497601 228.259912,57.0497601 C227.514534,57.0497601 226.865788,57.2087145 226.313656,57.5266279 C225.761524,57.8445414 225.312924,58.2522938 224.967841,58.7498974 C224.622759,59.2475011 224.3605,59.8211189 224.181057,60.4707682 C224.001614,61.1204174 223.911894,61.7769679 223.911894,62.4404395 L223.911894,73.3876652 L218.942731,73.3876652 L218.942731,53.4836184 L223.663436,53.4836184 L223.663436,56.6765592 L223.746256,56.6765592 C223.967108,56.1789556 224.263875,55.7090036 224.636564,55.2666893 C225.009253,54.8243749 225.450952,54.4235335 225.961674,54.0641531 C226.472396,53.7047727 227.059028,53.4214193 227.721586,53.2140844 C228.384144,53.0067496 229.115708,52.9030837 229.9163,52.9030837 C231.462269,52.9030837 232.745957,53.2486366 233.767401,53.9397528 C234.788845,54.630869 235.575621,55.5431287 236.127753,56.6765592 C236.790312,55.4601947 237.67371,54.5272019 238.777974,53.8775527 C239.882238,53.2279034 241.179728,52.9030837 242.670485,52.9030837 Z" transform="translate(-100 -42)"/>
</svg>
