<?xml version="1.0" encoding="UTF-8"?>
<svg xmlns="http://www.w3.org/2000/svg" width="189" height="21" viewBox="0 0 189 21">
  <path fill="#FFF" d="M97,64.5269367 C97,66.9298803 96.3080679,68.8057002 94.8946041,70.0963348 C93.4939667,71.3752576 91.5133911,72 89,72 C86.4853184,72 84.5034972,71.3700187 83.1027689,70.0810981 C81.6918169,68.7827699 81,66.9121591 81,64.5269367 L81,53 L85.0626845,53 L85.0626845,64.0137882 C85.0626845,65.5865222 85.3932113,66.6773789 86.0011335,67.3154676 C86.5926191,67.936304 87.571553,68.2661692 89,68.2661692 C90.428447,68.2661692 91.4073809,67.936304 91.9988665,67.3154676 C92.6067887,66.6773789 92.9373155,65.5865222 92.9373155,64.0137882 L92.9373155,53 L97,53 L97,64.5269367 Z M102,72 L102,53 L106,53 L106,72 L102,72 Z M137.140421,56.6549061 L131.028994,56.6549061 L131.028994,71.7967128 L126.139852,71.7967128 L126.139852,56.6549061 L120,56.6549061 L120,52.8335393 L137.140421,52.8335393 L137.140421,56.6549061 Z M149.688134,64.8722813 L146.760335,64.8722813 L146.760335,71.7967128 L141.956469,71.7967128 L141.956469,52.8335393 L150.91042,52.8335393 C153.184451,52.8335393 154.932585,53.3507116 156.154877,54.3850717 C157.377168,55.4194318 157.988305,56.913485 157.988305,58.8672763 C157.988305,60.2464231 157.675631,61.3956949 157.050272,62.3151261 C156.424914,63.2345572 155.515315,63.914543 154.321449,64.3551038 L159.096889,71.7967128 L153.696094,71.7967128 L149.688134,64.8722813 Z M146.760335,61.3669674 L150.086088,61.3669674 C151.128352,61.3669674 151.886351,61.1754221 152.360107,60.7923258 C152.833864,60.4092294 153.070738,59.7962845 153.070738,58.9534726 C153.070738,58.1298155 152.833864,57.5264478 152.360107,57.1433515 C151.886351,56.7602551 151.128352,56.5687098 150.086088,56.5687098 L146.760335,56.5687098 L146.760335,61.3669674 Z M174.316576,67.5156327 L167.835621,67.5156327 L166.52806,71.7967128 L161.610493,71.7967128 L168.205149,52.8335393 L174.060749,52.8335393 L180.62698,71.7967128 L175.595712,71.7967128 L174.316576,67.5156327 Z M173.293267,64.1539792 L171.928856,59.6143104 L171.104524,56.626174 L171.047673,56.626174 L170.280192,59.5855783 L168.85893,64.1539792 L173.293267,64.1539792 Z M189.735239,71.7967128 L184.846098,71.7967128 L184.846098,52.8335393 L189.735239,52.8335393 L189.735239,71.7967128 Z M212.828718,71.7967128 L207.399496,71.7967128 L201.572322,61.5393599 L200.15106,58.6661518 L200.122635,58.6661518 L200.236336,62.2289298 L200.236336,71.7967128 L195.915699,71.7967128 L195.915699,52.8335393 L201.34492,52.8335393 L207.172095,63.0908922 L208.593357,65.9641003 L208.621782,65.9641003 L208.508081,62.4013223 L208.508081,52.8335393 L212.828718,52.8335393 L212.828718,71.7967128 Z M223.898319,71.7967128 L219.009177,71.7967128 L219.009177,52.8335393 L223.898319,52.8335393 L223.898319,71.7967128 Z M246.991797,71.7967128 L241.562576,71.7967128 L235.735402,61.5393599 L234.31414,58.6661518 L234.285714,58.6661518 L234.399415,62.2289298 L234.399415,71.7967128 L230.078779,71.7967128 L230.078779,52.8335393 L235.508,52.8335393 L241.335174,63.0908922 L242.756436,65.9641003 L242.784862,65.9641003 L242.671161,62.4013223 L242.671161,52.8335393 L246.991797,52.8335393 L246.991797,71.7967128 Z M270,61.5393599 L270,71.7967128 L266.588971,71.7967128 L266.446845,69.5556105 C265.36668,71.2412343 263.575908,72.0840336 261.074474,72.0840336 C259.368951,72.0840336 257.857691,71.7057317 256.540648,70.9491164 C255.223605,70.1925012 254.195569,69.0815385 253.456509,67.616195 C252.717449,66.1508515 252.347925,64.3934235 252.347925,62.3438581 C252.347925,60.3134476 252.726924,58.5655968 253.484935,57.1002533 C254.242945,55.6349099 255.323093,54.5095813 256.725412,53.7242338 C258.127731,52.9388863 259.785854,52.5462185 261.699829,52.5462185 C263.841208,52.5462185 265.565656,52.9293091 266.873223,53.6955017 C268.180791,54.4616944 269.213565,55.6971615 269.971575,57.4019402 L265.451961,59.2120613 C265.224558,58.2734753 264.798184,57.574335 264.172825,57.1146194 C263.547467,56.6549038 262.770518,56.4250494 261.841956,56.4250494 C260.401736,56.4250494 259.2979,56.9230672 258.530415,57.9191176 C257.76293,58.9151681 257.379193,60.3804896 257.379193,62.3151261 C257.379193,66.2993279 258.91414,68.2913989 261.984082,68.2913989 C263.140047,68.2913989 264.073334,68.0232355 264.783968,67.4869006 C265.494603,66.9505658 265.849915,66.1748073 265.849915,65.1596021 L265.849915,64.8722813 L261.188175,64.8722813 L261.188175,61.5393599 L270,61.5393599 Z" transform="translate(-81 -52)"/>
</svg>
