<svg xmlns="http://www.w3.org/2000/svg" width="156" height="15"><path fill="#fff" fill-rule="evenodd" d="M7.832 5.273h2.95l-3.75 9.492H3.926L0 5.273h3.164l2.402 6.445h.04l2.227-6.445zm9.258 5.332l-.83.03a4.22 4.22 0 0 0-.957.166c-.306.09-.566.228-.78.4s-.322.436-.322.762c0 .352.15.612.45.78s.612.254.937.254a2.94 2.94 0 0 0 .83-.117c.267-.078.504-.19.713-.332a1.61 1.61 0 0 0 .498-.547c.124-.22.185-.482.185-.78v-.625H17.1zm.723 2.97h-.04c-.326.508-.76.872-1.3 1.094a4.47 4.47 0 0 1-1.709.332 4.41 4.41 0 0 1-1.279-.185 3.22 3.22 0 0 1-1.084-.557 2.68 2.68 0 0 1-.742-.918c-.183-.364-.273-.788-.273-1.27 0-.547.1-1.01.302-1.387a2.71 2.71 0 0 1 .82-.937 4.07 4.07 0 0 1 1.182-.576c.442-.137.9-.237 1.377-.303a13.21 13.21 0 0 1 1.426-.117l1.318-.02c0-.52-.185-.934-.556-1.24s-.81-.46-1.318-.46a2.87 2.87 0 0 0-1.318.303c-.397.202-.752.48-1.064.83l-1.563-1.602c.547-.508 1.185-.89 1.914-1.143a6.84 6.84 0 0 1 2.266-.381c.86 0 1.565.107 2.12.322s.996.53 1.328.947.563.928.693 1.533.195 1.305.195 2.1v4.824h-2.695v-1.19zm4.57 1.19V0h2.93v14.766h-2.93zm11.543-5.82c.013-.495-.15-.918-.488-1.27s-.775-.527-1.31-.527c-.326 0-.612.052-.86.156a2.16 2.16 0 0 0-.635.4c-.176.163-.313.352-.4.566s-.153.44-.166.674h3.867zm2.48 4.18c-.47.6-1.06 1.06-1.777 1.387S33.17 15 32.402 15a5.98 5.98 0 0 1-2.06-.352c-.645-.234-1.204-.57-1.68-1.006s-.85-.96-1.123-1.572-.4-1.295-.4-2.05.137-1.44.4-2.05.647-1.136 1.123-1.572 1.035-.772 1.68-1.006 1.33-.352 2.06-.352c.677 0 1.292.117 1.846.352s1.022.57 1.406 1.006.68.96.89 1.572.313 1.296.313 2.05v.918h-6.797c.117.56.37 1.006.762 1.338s.872.498 1.445.498c.482 0 .89-.107 1.22-.322a3.28 3.28 0 0 0 .869-.83l2.05 1.504zm2.226-7.85h2.812v1.29h.04a2.38 2.38 0 0 1 .391-.547 2.85 2.85 0 0 1 .606-.488 3.47 3.47 0 0 1 .801-.352c.3-.09.625-.137.977-.137.742 0 1.34.114 1.797.342a2.6 2.6 0 0 1 1.065.947c.254.404.426.88.518 1.426s.137 1.14.137 1.777v5.234h-2.93v-4.65l-.03-.85c-.02-.293-.078-.563-.176-.81a1.4 1.4 0 0 0-.449-.605c-.202-.156-.492-.234-.87-.234s-.684.068-.918.205a1.4 1.4 0 0 0-.537.547c-.124.228-.205.485-.244.77s-.06.586-.06.9v4.727h-2.93V5.273zm17.675 2.344H53.73v3.164c0 .26.013.498.04.713s.084.4.176.557.23.277.42.36.44.127.752.127c.156 0 .36-.016.615-.05s.446-.107.576-.225v2.44c-.326.117-.664.195-1.016.234s-.697.06-1.035.06c-.495 0-.95-.052-1.367-.156a3.11 3.11 0 0 1-1.094-.498 2.33 2.33 0 0 1-.732-.889c-.176-.364-.264-.807-.264-1.328V7.617h-1.875V5.274H50.8V2.46h2.93v2.812h2.578v2.344zm1.523 7.148V5.273h2.93v9.492h-2.93zm-.234-12.48c0-.47.166-.87.498-1.2s.732-.498 1.2-.498.87.166 1.2.498.498.732.498 1.2-.166.87-.498 1.2-.732.498-1.2.498-.87-.166-1.2-.498-.498-.732-.498-1.2zm5.273 2.988h2.812v1.29h.04a2.38 2.38 0 0 1 .39-.547c.17-.182.37-.345.606-.488a3.47 3.47 0 0 1 .801-.352c.3-.09.625-.137.977-.137.742 0 1.34.114 1.797.342a2.6 2.6 0 0 1 1.065.947c.254.404.426.88.518 1.426s.137 1.14.137 1.777v5.234h-2.93v-4.65l-.03-.85a2.67 2.67 0 0 0-.176-.811 1.4 1.4 0 0 0-.449-.605c-.202-.156-.492-.234-.87-.234s-.684.068-.918.205a1.4 1.4 0 0 0-.537.547c-.124.228-.205.485-.244.77s-.06.586-.06.9v4.727h-2.93V5.273zm14.18 4.746c0 .716.205 1.296.615 1.738s.986.664 1.73.664 1.318-.22 1.728-.664.615-1.022.615-1.738-.205-1.295-.615-1.738-.986-.664-1.728-.664-1.318.222-1.73.664-.615 1.022-.615 1.738zM74.354 0h2.93v6.29h.04c.34-.456.772-.778 1.3-.967a5.04 5.04 0 0 1 1.709-.283c.677 0 1.283.14 1.817.42a4.2 4.2 0 0 1 1.357 1.123c.37.47.657 1.006.86 1.61s.302 1.24.302 1.904a5.65 5.65 0 0 1-.332 1.973c-.222.6-.537 1.117-.947 1.553a4.27 4.27 0 0 1-1.475 1.016c-.573.24-1.21.36-1.914.36-.34 0-.658-.046-.957-.137s-.576-.208-.83-.352-.475-.303-.664-.48a3.22 3.22 0 0 1-.459-.518h-.04v1.25h-2.695V0zm14.61 10.02c0 .716.205 1.296.615 1.738s.986.664 1.728.664 1.318-.22 1.728-.664.615-1.022.615-1.738-.205-1.295-.615-1.738-.986-.664-1.728-.664-1.318.222-1.728.664-.615 1.022-.615 1.738zm-2.93 0c0-.755.137-1.44.4-2.05s.647-1.136 1.123-1.572 1.035-.77 1.68-1.006 1.33-.352 2.06-.352 1.416.117 2.06.352 1.204.57 1.68 1.006.85.96 1.123 1.572.4 1.296.4 2.05-.137 1.44-.4 2.05a4.72 4.72 0 0 1-1.123 1.572c-.475.436-1.035.772-1.68 1.006s-1.33.352-2.06.352-1.416-.117-2.06-.352-1.205-.57-1.68-1.006a4.71 4.71 0 0 1-1.123-1.572c-.274-.612-.4-1.295-.4-2.05zm21.406 4.746h-2.812v-1.29h-.04c-.104.182-.238.365-.4.547s-.36.345-.596.488-.502.26-.8.352-.625.137-.976.137c-.742 0-1.345-.114-1.807-.342s-.82-.543-1.074-.947-.423-.88-.508-1.426-.127-1.14-.127-1.777V5.273h2.93v4.65l.03.85a2.68 2.68 0 0 0 .176.811 1.4 1.4 0 0 0 .449.605c.202.156.49.234.87.234s.683-.068.918-.205a1.4 1.4 0 0 0 .537-.547c.123-.228.205-.485.244-.772s.058-.586.058-.898V5.273h2.93v9.492zm2.07-9.492h2.93v1.523h.04c.312-.586.684-1.025 1.113-1.318s.97-.44 1.62-.44l.508.02a2.52 2.52 0 0 1 .469.078v2.676c-.208-.065-.414-.114-.615-.147a4.02 4.02 0 0 0-.635-.049c-.56 0-1.003.078-1.328.234s-.576.374-.752.654-.3.615-.342 1.006-.078.82-.078 1.29v3.965h-2.93V5.273zm7.95 0h2.93v1.523h.04c.312-.586.684-1.025 1.113-1.318s.97-.44 1.62-.44l.508.02c.17.013.326.04.47.078v2.676c-.208-.065-.413-.114-.615-.147a4.02 4.02 0 0 0-.635-.049c-.56 0-1.003.078-1.328.234s-.576.374-.752.654-.3.615-.342 1.006-.078.82-.078 1.29v3.965h-2.93V5.273zm14.102 3.672c.013-.495-.15-.918-.488-1.27s-.775-.527-1.31-.527c-.325 0-.612.052-.86.156a2.16 2.16 0 0 0-.635.4c-.176.163-.313.352-.4.566s-.153.44-.166.674h3.867zm2.48 4.18a4.67 4.67 0 0 1-1.777 1.387c-.716.325-1.458.488-2.227.488a5.98 5.98 0 0 1-2.06-.352c-.645-.234-1.204-.57-1.68-1.006a4.71 4.71 0 0 1-1.123-1.572c-.273-.612-.4-1.295-.4-2.05s.137-1.44.4-2.05.647-1.136 1.123-1.572 1.035-.772 1.68-1.006 1.33-.352 2.06-.352c.677 0 1.292.117 1.846.352s1.022.57 1.406 1.006.68.96.888 1.572.313 1.296.313 2.05v.918h-6.797c.117.56.37 1.006.762 1.338s.872.498 1.445.498c.482 0 .888-.107 1.22-.322s.622-.49.87-.83l2.05 1.504zm7.46-2.52l-.83.03a4.22 4.22 0 0 0-.957.166c-.306.09-.566.228-.78.4s-.322.436-.322.762c0 .352.15.612.45.78s.612.254.937.254a2.94 2.94 0 0 0 .83-.117 2.47 2.47 0 0 0 .713-.332c.208-.143.374-.325.498-.547s.186-.482.186-.78v-.625h-.723zm.723 2.97h-.04c-.326.508-.76.872-1.3 1.094a4.47 4.47 0 0 1-1.709.332 4.41 4.41 0 0 1-1.279-.185c-.4-.124-.772-.31-1.084-.557a2.68 2.68 0 0 1-.742-.918c-.183-.364-.273-.788-.273-1.27 0-.547.1-1.01.302-1.387a2.71 2.71 0 0 1 .82-.937 4.07 4.07 0 0 1 1.182-.576c.442-.137.9-.237 1.377-.303a13.21 13.21 0 0 1 1.426-.117l1.318-.02c0-.52-.186-.934-.557-1.24s-.81-.46-1.318-.46a2.87 2.87 0 0 0-1.318.303c-.397.202-.752.48-1.064.83l-1.563-1.602c.547-.508 1.185-.89 1.914-1.143a6.84 6.84 0 0 1 2.266-.381c.86 0 1.565.107 2.12.322s.996.53 1.328.947.563.928.693 1.533.195 1.305.195 2.1v4.824h-2.695v-1.19zm13.672 1.19h-2.812v-1.29h-.04a3.26 3.26 0 0 1-.4.547c-.163.183-.36.345-.596.488s-.5.26-.8.352-.625.137-.977.137c-.742 0-1.345-.114-1.807-.342s-.82-.543-1.074-.947-.423-.88-.508-1.426a11.61 11.61 0 0 1-.127-1.777V5.273h2.93v4.65l.03.85c.02.293.078.563.176.81a1.4 1.4 0 0 0 .449.605c.202.156.49.234.87.234s.683-.068.918-.205a1.4 1.4 0 0 0 .537-.547c.123-.228.205-.485.244-.772s.058-.586.058-.898V5.273h2.93v9.492z"/></svg>