<?xml version="1.0" encoding="UTF-8"?>
<svg xmlns="http://www.w3.org/2000/svg" width="156" height="15" viewBox="0 0 156 15">
  <path fill="white" fill-rule="evenodd" d="M51.8320716,13.2734717 L54.7813564,13.2734717 L51.031289,22.7655272 L47.9258222,22.7655272 L44,13.2734717 L47.164085,13.2734717 L49.566433,19.7187784 L49.6054785,19.7187784 L51.8320716,13.2734717 Z M61.0898639,18.6054419 C60.8682731,18.6054419 60.591759,18.6152282 60.2598221,18.6348009 C59.9277854,18.6543736 59.6085309,18.7098961 59.3028574,18.8007693 C58.9967845,18.892042 58.7364477,19.0287512 58.5215476,19.2108971 C58.3067473,19.3934424 58.1992972,19.647388 58.1992972,19.9726342 C58.1992972,20.3241437 58.3487887,20.58478 58.6484705,20.7538441 C58.9479526,20.9232078 59.2605165,21.0077898 59.5858625,21.0077898 C59.8722629,21.0077898 60.1489768,20.9687443 60.4161041,20.8905534 C60.6828319,20.8124623 60.9206001,20.7020165 61.1290093,20.5586165 C61.3371189,20.4154164 61.5029875,20.2332705 61.6270144,20.0117796 C61.7507418,19.7904883 61.8124557,19.5301516 61.8124557,19.2304698 L61.8124557,18.6054419 L61.0898639,18.6054419 Z M61.8124557,21.5741995 L61.7736099,21.5741995 C61.4479643,22.0819909 61.0147687,22.4466821 60.4747223,22.6679733 C59.9342764,22.8891647 59.3644714,22.9999101 58.7658068,22.9999101 C58.3230246,22.9999101 57.8964199,22.9379965 57.486392,22.8144689 C57.0763641,22.6908414 56.7147687,22.5053003 56.4026042,22.2577457 C56.0900404,22.0106904 55.8424858,21.7045176 55.6603399,21.3398265 C55.4776948,20.9754349 55.3869214,20.5521256 55.3869214,20.0702979 C55.3869214,19.5234609 55.4874811,19.0614057 55.6893994,18.6835329 C55.8913176,18.3060596 56.1646363,17.9935956 56.5098546,17.7461409 C56.8545736,17.4988859 57.2486238,17.3066541 57.6914059,17.1699449 C58.1338885,17.0332356 58.5928481,16.9324762 59.0685843,16.8671673 C59.5437213,16.8021581 60.0188584,16.7631125 60.494295,16.7499309 C60.969432,16.7372486 61.4088189,16.7304581 61.8124557,16.7304581 C61.8124557,16.2097846 61.6270144,15.7962616 61.2560321,15.4902886 C60.8847501,15.1844153 60.4453632,15.0312291 59.9375718,15.0312291 C59.4557441,15.0312291 59.0162573,15.1322881 58.6191115,15.3340066 C58.2218658,15.5360247 57.8673604,15.8125389 57.5548964,16.1640484 L55.9921769,14.5624831 C56.5392136,14.0546917 57.1768239,13.6738231 57.9062062,13.4199773 C58.6352889,13.1660317 59.3906349,13.0391088 60.1719447,13.0391088 C61.0314455,13.0391088 61.7373605,13.146459 62.290988,13.3613591 C62.8443159,13.5761594 63.2870981,13.8920187 63.6192346,14.3085375 C63.9512713,14.7254557 64.1823489,15.2363429 64.3124673,15.8417981 C64.4423861,16.4472533 64.5077948,17.1472765 64.5077948,17.9414683 L64.5077948,22.765637 L61.8124557,22.765637 L61.8124557,21.5741995 Z M66.3827087,22.7655971 L66.3827087,8 L69.3124207,8 L69.3124207,22.7655971 L66.3827087,22.7655971 Z M77.9254527,16.9453582 C77.9383347,16.4506485 77.7757616,16.0273392 77.4371341,15.6758297 C77.0984067,15.3242203 76.662415,15.1483656 76.1285599,15.1483656 C75.8030142,15.1483656 75.516514,15.2005928 75.269259,15.3046476 C75.0218042,15.4091018 74.8102994,15.5424158 74.6345446,15.7050888 C74.4585901,15.8680614 74.3219807,16.0566982 74.224317,16.2713986 C74.1267531,16.4862988 74.0711307,16.7109853 74.0582487,16.9453582 L77.9254527,16.9453582 Z M80.4059915,21.1249264 C79.9372456,21.7240903 79.3445725,22.1863453 78.6285716,22.5116914 C77.9123709,22.8370374 77.1702065,22.9999101 76.4019784,22.9999101 C75.6725962,22.9999101 74.9859543,22.8827736 74.3415534,22.6484006 C73.696853,22.4140276 73.137134,22.0789951 72.6618971,21.6425042 C72.1862608,21.2064127 71.8121827,20.6824438 71.5387642,20.0702979 C71.2652459,19.4584516 71.1286365,18.7748056 71.1286365,18.0195594 C71.1286365,17.2645129 71.2652459,16.5809667 71.5387642,15.9688208 C71.8121827,15.3568747 72.1862608,14.832806 72.6618971,14.3965147 C73.137134,13.9603234 73.696853,13.6249913 74.3415534,13.3906183 C74.9859543,13.1563452 75.6725962,13.0391088 76.4019784,13.0391088 C77.078834,13.0391088 77.6942753,13.1563452 78.2478029,13.3906183 C78.8009311,13.6249913 79.2698768,13.9603234 79.6540407,14.3965147 C80.0378052,14.832806 80.3341917,15.3568747 80.5426009,15.9688208 C80.7507105,16.5809667 80.8551648,17.2645129 80.8551648,18.0195594 L80.8551648,18.9374786 L74.0582487,18.9374786 C74.1753853,19.4974972 74.4292311,19.9432752 74.8200857,20.2753118 C75.2105409,20.6074484 75.6922687,20.773317 76.2653691,20.773317 C76.7468972,20.773317 77.1539292,20.6659668 77.4860658,20.4511665 C77.8182023,20.2363662 78.1075985,19.959852 78.3551531,19.6211247 L80.4059915,21.1249264 Z M82.6322651,13.2734817 L85.4446409,13.2734817 L85.4446409,14.5624831 L85.4837863,14.5624831 C85.5748592,14.3803373 85.7050775,14.1981915 85.8743413,14.0156462 C86.0436052,13.8334005 86.2455234,13.6708273 86.4798964,13.5273275 C86.7142694,13.3842272 86.981097,13.2670907 87.2807789,13.175818 C87.5799614,13.0848449 87.9057069,13.0391088 88.2573163,13.0391088 C88.9994807,13.0391088 89.5981454,13.1531496 90.0540093,13.3809318 C90.5096735,13.6088138 90.8645783,13.9246731 91.118524,14.3281102 C91.3724696,14.7318468 91.5448291,15.2070837 91.6362016,15.7538208 C91.726975,16.3007577 91.7727111,16.8934307 91.7727111,17.5312407 L91.7727111,22.765637 L88.8430989,22.765637 L88.8430989,18.1171232 C88.8430989,17.8437048 88.8333126,17.5605998 88.8137399,17.2676086 C88.7944668,16.9746174 88.7357487,16.7044943 88.638085,16.4570396 C88.5405211,16.2097846 88.3905304,16.0077665 88.1889117,15.8515844 C87.9868936,15.6953025 87.6972977,15.6172115 87.3198244,15.6172115 C86.9419517,15.6172115 86.6360785,15.6855161 86.4017055,15.8222254 C86.1673325,15.9590345 85.9882824,16.1414799 85.8647547,16.3691622 C85.7408276,16.5971441 85.6594412,16.8543852 85.6206953,17.1405858 C85.5815499,17.4271859 85.5619772,17.7265682 85.5619772,18.0391321 L85.5619772,22.765637 L82.6322651,22.765637 L82.6322651,13.2734817 Z M100.307702,15.6172314 L97.7296992,15.6172314 L97.7296992,18.7813165 C97.7296992,19.0418529 97.7425812,19.2793216 97.7687447,19.4941219 C97.7945087,19.709022 97.8531269,19.8945631 97.9444994,20.0507452 C98.0352728,20.2070271 98.1754772,20.3275589 98.3643137,20.4120411 C98.5529504,20.4969226 98.8037006,20.5390638 99.1162644,20.5390638 C99.2727461,20.5390638 99.4776602,20.5229863 99.7316058,20.490232 C99.9855515,20.4578771 100.177484,20.3828818 100.307702,20.2655455 L100.307702,22.7069389 C99.9821562,22.8242752 99.6437285,22.9023662 99.2920192,22.9414118 C98.9406095,22.9803574 98.5953912,22.9999301 98.2570633,22.9999301 C97.762054,22.9999301 97.3061901,22.9478028 96.8896713,22.8436482 C96.4729527,22.7395934 96.1083615,22.5737248 95.7959973,22.345643 C95.4834334,22.1180606 95.239374,21.8216742 95.0636192,21.4570829 C94.8877646,21.0926913 94.7999871,20.6499092 94.7999871,20.1289361 L94.7999871,15.6172314 L92.9250033,15.6172314 L92.9250033,13.2735017 L94.7999871,13.2735017 L94.7999871,10.461026 L97.7296992,10.461026 L97.7296992,13.2735017 L100.307702,13.2735017 L100.307702,15.6172314 Z M101.831146,22.7655971 L101.831146,13.2734418 L104.760858,13.2734418 L104.760858,22.7655971 L101.831146,22.7655971 Z M101.596773,10.2852114 C101.596773,9.81646543 101.762742,9.41592431 102.094878,9.08398748 C102.426715,8.75205064 102.827256,8.5858825 103.296002,8.5858825 C103.764648,8.5858825 104.16499,8.75205064 104.497126,9.08398748 C104.829063,9.41592431 104.995231,9.81646543 104.995231,10.2852114 C104.995231,10.7538575 104.829063,11.1542987 104.497126,11.4862355 C104.16499,11.818472 103.764648,11.9843405 103.296002,11.9843405 C102.827256,11.9843405 102.426715,11.818472 102.094878,11.4862355 C101.762742,11.1542987 101.596773,10.7538575 101.596773,10.2852114 Z M106.870125,13.2734817 L109.682501,13.2734817 L109.682501,14.5624831 L109.721646,14.5624831 C109.812719,14.3803373 109.942838,14.1981915 110.112102,14.0156462 C110.281365,13.8334005 110.483384,13.6708273 110.717657,13.5273275 C110.95203,13.3842272 111.218857,13.2670907 111.518539,13.175818 C111.817722,13.0848449 112.143467,13.0391088 112.495077,13.0391088 C113.237341,13.0391088 113.836005,13.1531496 114.29177,13.3809318 C114.747434,13.6088138 115.102438,13.9246731 115.356284,14.3281102 C115.61023,14.7318468 115.782689,15.2070837 115.873962,15.7538208 C115.964735,16.3007577 116.010571,16.8934307 116.010571,17.5312407 L116.010571,22.765637 L113.080859,22.765637 L113.080859,18.1171232 C113.080859,17.8437048 113.071173,17.5605998 113.0515,17.2676086 C113.032227,16.9746174 112.973609,16.7044943 112.875845,16.4570396 C112.778381,16.2097846 112.628391,16.0077665 112.426672,15.8515844 C112.224754,15.6953025 111.935058,15.6172115 111.557585,15.6172115 C111.179712,15.6172115 110.873839,15.6855161 110.639466,15.8222254 C110.405093,15.9590345 110.226043,16.1414799 110.102515,16.3691622 C109.978588,16.5971441 109.897201,16.8543852 109.858456,17.1405858 C109.81931,17.4271859 109.799837,17.7265682 109.799837,18.0391321 L109.799837,22.765637 L106.870125,22.765637 L106.870125,13.2734817 Z M121.04956,18.0195494 C121.04956,18.7357501 121.254574,19.3153413 121.664602,19.7578239 C122.07473,20.2006061 122.650926,20.4218973 123.39319,20.4218973 C124.135354,20.4218973 124.71165,20.2006061 125.121678,19.7578239 C125.531806,19.3153413 125.73682,18.7357501 125.73682,18.0195494 C125.73682,17.3035484 125.531806,16.724057 125.121678,16.2812749 C124.71165,15.8387923 124.135354,15.6172015 123.39319,15.6172015 C122.650926,15.6172015 122.07473,15.8387923 121.664602,16.2812749 C121.254574,16.724057 121.04956,17.3035484 121.04956,18.0195494 Z M118.354221,8.00002996 L121.283933,8.00002996 L121.283933,14.2890547 L121.322679,14.2890547 C121.661307,13.8333905 122.094302,13.51124 122.621667,13.3222038 C123.149031,13.1336668 123.718436,13.0390988 124.330582,13.0390988 C125.007537,13.0390988 125.613093,13.1792033 126.147147,13.4590129 C126.680803,13.739122 127.133471,14.1132999 127.504453,14.5820459 C127.875636,15.0507918 128.161836,15.5879423 128.363954,16.1933975 C128.565673,16.7988527 128.666432,17.4336669 128.666432,18.0976404 C128.666432,18.8139409 128.555886,19.4715234 128.334595,20.0702879 C128.112805,20.669352 127.797445,21.1869298 127.387417,21.6230213 C126.976989,22.0594124 126.485475,22.3978402 125.912774,22.6386043 C125.339674,22.8794682 124.701864,23 123.998745,23 C123.660018,23 123.340963,22.9542638 123.041481,22.8631909 C122.741799,22.7720181 122.465484,22.6550813 122.211639,22.5116814 C121.957693,22.3684812 121.736202,22.2090037 121.547565,22.0331491 C121.358529,21.8573943 121.205642,21.6850348 121.088406,21.5155713 L121.04956,21.5155713 L121.04956,22.765627 L118.354221,22.765627 L118.354221,8.00002996 Z M132.963307,18.0195494 C132.963307,18.7357501 133.16832,19.3153413 133.578648,19.7578239 C133.988776,20.2006061 134.564972,20.4218973 135.307136,20.4218973 C136.049301,20.4218973 136.625397,20.2006061 137.035624,19.7578239 C137.445752,19.3153413 137.650766,18.7357501 137.650766,18.0195494 C137.650766,17.3035484 137.445752,16.724057 137.035624,16.2812749 C136.625397,15.8387923 136.049301,15.6172015 135.307136,15.6172015 C134.564972,15.6172015 133.988776,15.8387923 133.578648,16.2812749 C133.16832,16.724057 132.963307,17.3035484 132.963307,18.0195494 Z M130.033594,18.0195494 C130.033594,17.2645029 130.170404,16.5809567 130.443922,15.9688109 C130.717141,15.3568647 131.091418,14.832796 131.566855,14.3965047 C132.041992,13.9604132 132.602111,13.6250811 133.246511,13.3906083 C133.890912,13.1563352 134.577554,13.0390988 135.307136,13.0390988 C136.036219,13.0390988 136.72306,13.1563352 137.367561,13.3906083 C138.012262,13.6250811 138.571781,13.9604132 139.047217,14.3965047 C139.522454,14.832796 139.896932,15.3568647 140.17045,15.9688109 C140.443869,16.5809567 140.580478,17.2645029 140.580478,18.0195494 C140.580478,18.7747956 140.443869,19.4584417 140.17045,20.0702879 C139.896932,20.6824338 139.522454,21.2065025 139.047217,21.6424942 C138.571781,22.0789851 138.012262,22.4140176 137.367561,22.6484905 C136.72306,22.8827636 136.036219,23 135.307136,23 C134.577554,23 133.890912,22.8827636 133.246511,22.6484905 C132.602111,22.4140176 132.041992,22.0789851 131.566855,21.6424942 C131.091418,21.2065025 130.717141,20.6824338 130.443922,20.0702879 C130.170404,19.4584417 130.033594,18.7747956 130.033594,18.0195494 Z M151.439486,22.7656071 L148.62711,22.7656071 L148.62711,21.4766056 L148.587965,21.4766056 C148.483511,21.6589512 148.350197,21.8412968 148.187723,22.0234426 C148.024651,22.2059879 147.826228,22.3684612 147.591955,22.5117613 C147.357482,22.6551612 147.090454,22.7719981 146.790972,22.8632708 C146.49129,22.9542438 146.166144,22.99998 145.814535,22.99998 C145.07227,22.99998 144.470011,22.8859392 144.007956,22.658157 C143.545701,22.4305745 143.1876,22.1147153 142.933655,21.7109786 C142.679709,21.3074417 142.510445,20.8320051 142.425763,20.2850682 C142.340982,19.7383311 142.29904,19.1459577 142.29904,18.507848 L142.29904,13.2734518 L145.228752,13.2734518 L145.228752,17.9219656 C145.228752,18.1952842 145.238439,18.478489 145.258011,18.7714802 C145.277584,19.0644714 145.336002,19.3347942 145.433666,19.5820492 C145.53153,19.8295039 145.680921,20.0312224 145.882839,20.1875044 C146.084558,20.3437863 146.374254,20.4218773 146.752226,20.4218773 C147.1296,20.4218773 147.435673,20.3535726 147.670046,20.2168634 C147.904519,20.0800543 148.083269,19.8979085 148.207296,19.6699266 C148.330724,19.4423441 148.41231,19.1851031 148.451356,18.8984031 C148.490301,18.6121026 148.509774,18.3124207 148.509774,17.9999567 L148.509774,13.2734518 L151.439486,13.2734518 L151.439486,22.7656071 Z M153.509638,13.2734817 L156.43935,13.2734817 L156.43935,14.7968561 L156.478395,14.7968561 C156.790659,14.2109736 157.161941,13.7714869 157.591642,13.4784957 C158.021242,13.1855045 158.561489,13.0391088 159.21258,13.0391088 C159.381944,13.0391088 159.551108,13.0457994 159.720372,13.0586815 C159.889535,13.0717632 160.045817,13.0976271 160.189217,13.1367725 L160.189217,15.8125389 C159.980808,15.7475296 159.775694,15.6986978 159.574076,15.6659435 C159.372058,15.6336885 159.160653,15.6172115 158.939361,15.6172115 C158.379343,15.6172115 157.936361,15.6953025 157.611115,15.8515844 C157.285469,16.0077665 157.034919,16.2260619 156.859164,16.5058715 C156.683409,16.7859806 156.569268,17.1210131 156.517241,17.5116681 C156.465313,17.9024228 156.43935,18.3320234 156.43935,18.8007693 L156.43935,22.765637 L153.509638,22.765637 L153.509638,13.2734817 Z M161.458706,13.2734817 L164.388418,13.2734817 L164.388418,14.7968561 L164.427464,14.7968561 C164.739828,14.2109736 165.11101,13.7714869 165.54071,13.4784957 C165.970311,13.1855045 166.510557,13.0391088 167.161648,13.0391088 C167.331012,13.0391088 167.500276,13.0457994 167.66944,13.0586815 C167.838604,13.0717632 167.994986,13.0976271 168.138286,13.1367725 L168.138286,15.8125389 C167.929877,15.7475296 167.724863,15.6986978 167.523144,15.6659435 C167.321226,15.6336885 167.109721,15.6172115 166.88843,15.6172115 C166.328411,15.6172115 165.885429,15.6953025 165.560183,15.8515844 C165.234637,16.0077665 164.983987,16.2260619 164.808232,16.5058715 C164.632577,16.7859806 164.518337,17.1210131 164.466409,17.5116681 C164.414482,17.9024228 164.388418,18.3320234 164.388418,18.8007693 L164.388418,22.765637 L161.458706,22.765637 L161.458706,13.2734817 Z M175.56022,16.9453582 C175.573102,16.4506485 175.410429,16.0273392 175.071901,15.6758297 C174.733174,15.3242203 174.297082,15.1483656 173.763227,15.1483656 C173.437781,15.1483656 173.151181,15.2005928 172.903926,15.3046476 C172.656471,15.4091018 172.445066,15.5424158 172.269312,15.7050888 C172.093357,15.8680614 171.956748,16.0566982 171.859084,16.2713986 C171.76152,16.4862988 171.705898,16.7109853 171.693016,16.9453582 L175.56022,16.9453582 Z M178.040659,21.1249264 C177.572013,21.7240903 176.97924,22.1863453 176.263239,22.5116914 C175.547038,22.8370374 174.804973,22.9999101 174.036646,22.9999101 C173.307363,22.9999101 172.620721,22.8827736 171.976221,22.6484006 C171.33162,22.4140276 170.771801,22.0789951 170.296664,21.6425042 C169.820928,21.2064127 169.44685,20.6824438 169.173431,20.0702979 C168.900013,19.4584516 168.763403,18.7748056 168.763403,18.0195594 C168.763403,17.2645129 168.900013,16.5809667 169.173431,15.9688208 C169.44685,15.3568747 169.820928,14.832806 170.296664,14.3965147 C170.771801,13.9603234 171.33162,13.6249913 171.976221,13.3906183 C172.620721,13.1563452 173.307363,13.0391088 174.036646,13.0391088 C174.713501,13.0391088 175.328942,13.1563452 175.88257,13.3906183 C176.435698,13.6249913 176.904644,13.9603234 177.288808,14.3965147 C177.672572,14.832806 177.968959,15.3568747 178.177268,15.9688208 C178.385477,16.5809667 178.489832,17.2645129 178.489832,18.0195594 L178.489832,18.9374786 L171.693016,18.9374786 C171.810052,19.4974972 172.063998,19.9432752 172.454753,20.2753118 C172.845308,20.6074484 173.326936,20.773317 173.900136,20.773317 C174.381664,20.773317 174.788596,20.6659668 175.120833,20.4511665 C175.452969,20.2363662 175.742365,19.959852 175.98982,19.6211247 L178.040659,21.1249264 Z M185.501229,18.6054419 C185.279738,18.6054419 185.003224,18.6152282 184.671287,18.6348009 C184.33915,18.6543736 184.019995,18.7098961 183.714322,18.8007693 C183.408149,18.892042 183.147912,19.0287512 182.933012,19.2108971 C182.718212,19.3934424 182.610762,19.647388 182.610762,19.9726342 C182.610762,20.3241437 182.760153,20.58478 183.059935,20.7538441 C183.359317,20.9232078 183.671881,21.0077898 183.997227,21.0077898 C184.283727,21.0077898 184.560441,20.9687443 184.827469,20.8905534 C185.094296,20.8124623 185.332065,20.7020165 185.540374,20.5586165 C185.748583,20.4154164 185.914452,20.2332705 186.038379,20.0117796 C186.162106,19.7904883 186.22392,19.5301516 186.22392,19.2304698 L186.22392,18.6054419 L185.501229,18.6054419 Z M186.22392,21.5741995 L186.185074,21.5741995 C185.859329,22.0819909 185.426133,22.4466821 184.886187,22.6679733 C184.345641,22.8891647 183.775836,22.9999101 183.177171,22.9999101 C182.734389,22.9999101 182.307884,22.9379965 181.897857,22.8144689 C181.487729,22.6908414 181.126233,22.5053003 180.813969,22.2577457 C180.501405,22.0106904 180.25395,21.7045176 180.071804,21.3398265 C179.889159,20.9754349 179.798386,20.5521256 179.798386,20.0702979 C179.798386,19.5234609 179.898846,19.0614057 180.100864,18.6835329 C180.302782,18.3060596 180.576101,17.9935956 180.921319,17.7461409 C181.266038,17.4988859 181.660088,17.3066541 182.10287,17.1699449 C182.545353,17.0332356 183.004313,16.9324762 183.479949,16.8671673 C183.955186,16.8021581 184.430223,16.7631125 184.90566,16.7499309 C185.380897,16.7372486 185.820184,16.7304581 186.22392,16.7304581 C186.22392,16.2097846 186.038379,15.7962616 185.667397,15.4902886 C185.296215,15.1844153 184.856828,15.0312291 184.349036,15.0312291 C183.867209,15.0312291 183.427722,15.1322881 183.030576,15.3340066 C182.63333,15.5360247 182.278725,15.8125389 181.966261,16.1640484 L180.403641,14.5624831 C180.950578,14.0546917 181.588288,13.6738231 182.317671,13.4199773 C183.046753,13.1660317 183.802,13.0391088 184.583409,13.0391088 C185.44281,13.0391088 186.148725,13.146459 186.702353,13.3613591 C187.25578,13.5761594 187.698563,13.8920187 188.030599,14.3085375 C188.362736,14.7254557 188.593813,15.2363429 188.723932,15.8417981 C188.853851,16.4472533 188.919259,17.1472765 188.919259,17.9414683 L188.919259,22.765637 L186.22392,22.765637 L186.22392,21.5741995 Z M199.895504,22.7656071 L197.083128,22.7656071 L197.083128,21.4766056 L197.043983,21.4766056 C196.939528,21.6589512 196.806314,21.8412968 196.643741,22.0234426 C196.480669,22.2059879 196.282246,22.3684612 196.047972,22.5117613 C195.8135,22.6551612 195.546472,22.7719981 195.24709,22.8632708 C194.947408,22.9542438 194.622162,22.99998 194.270552,22.99998 C193.528288,22.99998 192.926029,22.8859392 192.463973,22.658157 C192.001718,22.4305745 191.643618,22.1147153 191.389672,21.7109786 C191.135727,21.3074417 190.966563,20.8320051 190.881881,20.2850682 C190.796999,19.7383311 190.755058,19.1459577 190.755058,18.507848 L190.755058,13.2734518 L193.68477,13.2734518 L193.68477,17.9219656 C193.68477,18.1952842 193.694456,18.478489 193.714129,18.7714802 C193.733602,19.0644714 193.79202,19.3347942 193.889684,19.5820492 C193.987547,19.8295039 194.137039,20.0312224 194.338857,20.1875044 C194.540676,20.3437863 194.830271,20.4218773 195.208244,20.4218773 C195.585618,20.4218773 195.89169,20.3535726 196.126163,20.2168634 C196.360536,20.0800543 196.539287,19.8979085 196.663314,19.6699266 C196.786742,19.4423441 196.868328,19.1851031 196.907373,18.8984031 C196.946319,18.6121026 196.965792,18.3124207 196.965792,17.9999567 L196.965792,13.2734518 L199.895504,13.2734518 L199.895504,22.7656071 Z" transform="translate(-44 -8)"/>
</svg>
