<?xml version="1.0" encoding="UTF-8"?>
<svg xmlns="http://www.w3.org/2000/svg" width="540" height="28" viewBox="0 0 540 28">
  <path fill="#7F7165" fill-rule="evenodd" d="M471.064626,2676.90926 L471.55102,2676.90926 L472,2682.66826 C469.231293,2684.50067 466.986395,2684.98682 462.982993,2684.98682 C455.238095,2684.98682 450,2679.82615 450,2671.48682 C450,2663.07269 455.238095,2657.98682 462.982993,2657.98682 C466.836735,2657.98682 469.642857,2658.36078 472,2660.26798 L471.55102,2666.06438 L471.064626,2666.06438 C470.017007,2659.89402 466.013605,2658.47297 462.982993,2658.47297 C459.091837,2658.47297 454.789116,2660.19319 454.789116,2671.48682 C454.789116,2682.96743 459.204082,2684.50067 462.982993,2684.50067 C466.013605,2684.50067 470.578231,2682.59347 471.064626,2676.90926 Z M484,2674.98682 C479.832335,2676.04843 478,2677.71668 478,2679.99156 C478,2681.09108 478.646707,2682.98682 480.838323,2682.98682 C482.742515,2682.98682 483.640719,2681.54606 484,2680.63611 L484,2674.98682 Z M489.448037,2683.22469 C489.448037,2683.22469 490.297921,2683.22469 490.556582,2682.24998 L491,2682.43742 C490.778291,2683.56209 489.52194,2684.98667 487.600462,2684.98667 C487.600462,2684.98667 484.681293,2685.06165 484.459584,2681.8376 C483.942263,2683.63707 481.799076,2684.98667 479.212471,2684.98667 C479.212471,2684.98667 475,2684.98682 475,2681.12531 C475,2677.37642 478.140878,2676.55166 484.459584,2674.90215 L484.459584,2672.72779 C484.459584,2668.86643 482.538106,2666.69207 479.581986,2668.07916 C478.140878,2668.79145 477.919169,2669.50374 478.140878,2669.54123 C478.584296,2669.61621 478.990762,2669.80365 479.286374,2670.21603 C479.840647,2670.96581 479.692841,2672.09048 478.916859,2672.65281 C478.177829,2673.25264 477.106236,2673.10268 476.551963,2672.31541 C476.145497,2671.75308 476.071594,2671.0033 476.367206,2670.47845 C476.625866,2669.91612 477.254042,2668.79145 479.249423,2667.70427 C480.838337,2666.87952 482.648961,2666.99198 482.648961,2666.99198 C486.676674,2666.99198 487.785219,2670.02859 487.785219,2674.48977 L487.785219,2680.86289 C487.785219,2680.86289 487.748268,2683.22469 489.448037,2683.22469 Z M502.616725,2681.6487 L503,2681.83211 C502.463415,2683.44615 500.738676,2684.98682 498.515679,2684.98682 C495.71777,2684.98682 494.031359,2683.81298 494.031359,2679.37438 L494.031359,2668.18618 L492.076655,2668.18618 L492,2667.70931 L494.031359,2667.70931 L494.031359,2662.50038 L497.365854,2661.98682 L497.365854,2667.70931 L501.926829,2667.70931 L501.811847,2668.18618 L497.365854,2668.18618 L497.365854,2679.26433 C497.365854,2682.19894 498.477352,2683.18937 500.278746,2683.18937 C501.390244,2683.18937 502.310105,2682.41904 502.616725,2681.6487 Z M521,2684.5478 L521,2684.98682 L514.985169,2684.98682 L514.985169,2684.5478 C516.353814,2684.14536 516.425847,2683.45023 516.425847,2681.58438 L516.425847,2673.7917 C516.425847,2671.15755 515.201271,2669.62097 512.680085,2669.62097 C510.879237,2669.62097 509.54661,2671.30389 508.970339,2672.5478 L508.970339,2681.58438 C508.970339,2683.59658 509.150424,2684.18194 510.447034,2684.51121 L510.447034,2684.98682 L504.360169,2684.98682 L504.360169,2684.51121 C505.728814,2684.10877 505.800847,2683.45023 505.800847,2681.58438 L505.800847,2661.5356 C505.800847,2660.25511 505.476695,2659.81609 504,2659.55999 L504,2659.08438 L508.970339,2657.98682 L508.970339,2671.88926 C509.510593,2669.80389 512.211864,2667.75511 514.552966,2667.75511 C517.506356,2667.75511 519.523305,2669.25511 519.523305,2673.64536 L519.523305,2681.58438 C519.523305,2683.59658 519.739407,2684.21853 521,2684.5478 Z M526,2675.98682 L535,2675.98682 C535,2670.28926 532.5,2667.98682 530.653846,2667.98682 C528.461538,2667.98682 526,2671.06975 526,2675.98682 Z M536.985507,2680.03682 L537.42029,2680.22432 C537.021739,2681.98682 535.028986,2684.98682 530.753623,2684.98682 C526.224638,2684.98682 523,2681.08682 523,2676.13682 C523,2670.58682 526.405797,2666.98682 530.898551,2666.98682 C535.101449,2666.98682 538,2669.76182 538,2675.64932 L526.405797,2675.64932 C526.550725,2680.71182 528.724638,2682.73682 531.586957,2683.03682 C533.76087,2683.26182 536.333333,2681.87432 536.985507,2680.03682 Z M525,2664.98682 L531.860465,2658.98682 L535,2659.90706 L525.891473,2664.98682 L525,2664.98682 Z M554,2679.67632 L554,2673.28362 C554,2669.74024 551.874016,2667.98682 549.712598,2667.98682 C547.374016,2667.98682 545,2669.70371 545,2675.54846 C545,2681.35668 546.807087,2683.98682 549.889764,2683.98682 C552.228346,2683.98682 554,2682.23339 554,2679.67632 Z M559,2683.78735 L559,2684.27464 L555.036364,2684.94934 C554.018182,2685.13675 554.018182,2684.27464 554.018182,2684.27464 L554.018182,2682.21306 C552.890909,2684.1247 550.454545,2684.98682 548.672727,2684.98682 C543.8,2684.98682 541,2681.01359 541,2675.76594 C541,2669.95603 544.672727,2666.99485 549.545455,2666.99485 C551.327273,2666.99485 552.818182,2667.51962 554.018182,2668.38173 L554.018182,2660.58521 C554.018182,2659.2733 553.654545,2658.78602 552.163636,2658.48615 L552.163636,2657.99887 L557.145455,2656.98682 L557.145455,2681.72578 C557.145455,2683.56246 557.545455,2683.78735 559,2683.78735 Z M570.332755,2667.0951 C571.01654,2667.02291 571.966242,2667.20338 572.498075,2667.78087 C573.257836,2668.64712 573.143872,2669.87429 572.232158,2670.59616 C571.358433,2671.28194 570.066838,2671.20975 569.269089,2670.34351 C568.927196,2669.94648 568.737256,2669.44117 568.85122,2668.97196 C568.965184,2668.35837 566.419984,2669.22461 565.242354,2671.64287 L565.242354,2680.63013 C565.242354,2682.65136 565.432294,2683.19276 566.799864,2683.51761 L566.799864,2683.98682 L560.379881,2683.98682 L560.379881,2683.51761 C561.823427,2683.12058 561.899403,2682.50699 561.899403,2680.63013 L561.899403,2670.63225 C561.899403,2669.36899 561.557511,2668.86368 560,2668.46665 L560,2668.03353 L565.242354,2666.98682 L565.242354,2670.77663 C566.647912,2668.32228 568.813232,2667.27557 570.332755,2667.0951 Z M584,2674.98682 C579.832335,2676.04843 578,2677.71668 578,2679.99156 C578,2681.09108 578.646707,2682.98682 580.838323,2682.98682 C582.742515,2682.98682 583.640719,2681.54606 584,2680.63611 L584,2674.98682 Z M589.448037,2683.22469 C589.448037,2683.22469 590.297921,2683.22469 590.556582,2682.24998 L591,2682.43742 C590.778291,2683.56209 589.52194,2684.98667 587.600462,2684.98667 C587.600462,2684.98667 584.681293,2685.06165 584.459584,2681.8376 C583.942263,2683.63707 581.799076,2684.98667 579.212471,2684.98667 C579.212471,2684.98667 575,2684.98682 575,2681.12531 C575,2677.37642 578.140878,2676.55166 584.459584,2674.90215 L584.459584,2672.72779 C584.459584,2668.86643 582.538106,2666.69207 579.581986,2668.07916 C578.140878,2668.79145 577.919169,2669.50374 578.140878,2669.54123 C578.584296,2669.61621 578.990762,2669.80365 579.286374,2670.21603 C579.840647,2670.96581 579.692841,2672.09048 578.916859,2672.65281 C578.177829,2673.25264 577.106236,2673.10268 576.551963,2672.31541 C576.145497,2671.75308 576.071594,2671.0033 576.367206,2670.47845 C576.625866,2669.91612 577.254042,2668.79145 579.249423,2667.70427 C580.838337,2666.87952 582.648961,2666.99198 582.648961,2666.99198 C586.676674,2666.99198 587.785219,2670.02859 587.785219,2674.48977 L587.785219,2680.86289 C587.785219,2680.86289 587.748268,2683.22469 589.448037,2683.22469 Z M599,2684.51121 L599,2684.98682 L592.393258,2684.98682 L592.393258,2684.51121 C593.88764,2684.10877 593.966292,2683.48682 593.966292,2681.62097 L593.966292,2661.5356 C593.966292,2660.25511 593.61236,2659.74292 592,2659.45023 L592,2658.97462 L597.426966,2657.98682 L597.426966,2681.62097 C597.426966,2683.63316 597.623596,2684.18194 599,2684.51121 Z M604,2675.98682 L613,2675.98682 C613,2670.28926 610.5,2667.98682 608.653846,2667.98682 C606.461538,2667.98682 604,2671.06975 604,2675.98682 Z M614.985507,2680.03682 L615.42029,2680.22432 C615.021739,2681.98682 613.028986,2684.98682 608.753623,2684.98682 C604.224638,2684.98682 601,2681.08682 601,2676.13682 C601,2670.58682 604.405797,2666.98682 608.898551,2666.98682 C613.101449,2666.98682 616,2669.76182 616,2675.64932 L604.405797,2675.64932 C604.550725,2680.71182 606.724638,2682.73682 609.586957,2683.03682 C611.76087,2683.26182 614.333333,2681.87432 614.985507,2680.03682 Z M642.488847,2670.55192 C647.476602,2673.80538 649.554834,2677.84416 646.720882,2681.92034 C646.720882,2681.92034 644.944939,2684.98682 638.861389,2684.98682 C631.5309,2684.98682 628.508018,2682.66826 628.508018,2682.66826 L628.508018,2675.4882 L629.15038,2675.4882 C629.981673,2677.76937 632.135476,2684.35109 638.861389,2684.35109 C642.904493,2684.35109 644.151432,2678.92865 639.541537,2675.60039 L633.722489,2671.97297 C628.356874,2668.64471 626.354215,2664.9051 629.490455,2660.82892 C629.490455,2660.82892 631.34197,2657.98682 637.312162,2657.98682 C643.773572,2657.98682 647.02317,2659.78183 647.02317,2659.78183 L647.02317,2666.06438 L646.380808,2666.06438 C645.662873,2664.08239 643.357926,2658.62255 637.312162,2658.62255 C633.231271,2658.62255 631.757616,2663.55884 636.669799,2666.73751 L642.488847,2670.55192 Z M661,2681.06746 L661,2675.98682 C657.259542,2676.81478 656,2678.58359 656,2680.50295 C656,2680.50295 656,2682.98682 658.480916,2682.98682 C659.778626,2682.98682 660.656489,2681.97069 661,2681.06746 Z M667.339623,2682.70051 C667.339623,2682.70051 668.132075,2682.70051 668.358491,2682.06334 L669,2682.32571 C668.698113,2683.52508 666.962264,2684.98682 664.584906,2684.98682 C664.584906,2684.98682 661.226415,2684.98682 660.811321,2681.9509 C660.245283,2683.60004 658.018868,2684.98682 655.339623,2684.98682 C655.339623,2684.98682 651,2684.98682 651,2681.16381 C651,2677.07844 654.169811,2676.70363 660.773585,2675.05449 L660.773585,2672.7307 C660.773585,2668.83273 658.584906,2666.88375 655.981132,2668.23305 C654.773585,2668.83273 654.622642,2669.4699 654.886792,2669.50738 C655.45283,2669.58234 655.943396,2669.84471 656.283019,2670.33195 C656.962264,2671.30644 656.698113,2672.61826 655.716981,2673.29291 C654.735849,2673.93008 653.415094,2673.7052 652.735849,2672.7307 C652.283019,2672.01857 652.245283,2671.11904 652.622642,2670.48187 C653,2669.84471 653.490566,2668.83273 655.566038,2667.7458 C657.264151,2666.84627 659.226415,2666.99619 659.226415,2666.99619 C664.169811,2666.99619 665.528302,2670.06959 665.528302,2674.49229 L665.528302,2680.07688 C665.528302,2680.07688 665.490566,2682.70051 667.339623,2682.70051 Z M686.463511,2679.58342 C686.463511,2681.56856 686.650888,2683.04839 688,2683.37323 L688,2683.98682 L680.280079,2683.98682 L680.280079,2683.37323 C681.704142,2682.9762 681.779093,2681.42419 681.779093,2679.58342 L681.779093,2672.5813 C681.779093,2670.84882 680.617357,2669.58555 678.74359,2669.58555 C677.282051,2669.58555 675.558185,2671.10147 675.558185,2672.54521 L675.558185,2679.65561 C675.558185,2681.64075 675.783037,2683.0123 677.094675,2683.37323 L677.094675,2683.98682 L669.412229,2683.98682 L669.412229,2683.37323 C670.836292,2682.9762 670.873767,2681.49637 670.873767,2679.65561 L670.873767,2671.4985 C670.873767,2670.23523 670.536489,2669.8382 669,2669.04414 L669,2668.43056 L675.558185,2666.98682 L675.558185,2670.84882 C676.420118,2668.64712 679.380671,2666.98682 681.741617,2666.98682 C684.664694,2666.98682 686.463511,2668.10572 686.463511,2672.47302 L686.463511,2679.58342 Z M699.247706,2682.37819 C700.311927,2682.37819 701.119266,2681.64337 701.449541,2681.09225 L702,2681.42292 C701.266055,2683.14976 699.027523,2684.98682 696.568807,2684.98682 C693.669725,2684.98682 691.944954,2683.8111 691.944954,2679.36541 L691.944954,2668.30631 L690.110092,2668.30631 L690,2667.68171 L691.944954,2667.68171 L691.944954,2662.75838 L696.53211,2661.98682 L696.53211,2667.68171 L700.899083,2667.68171 L700.752294,2668.30631 L696.53211,2668.30631 L696.53211,2679.25519 C696.53211,2681.3127 697.412844,2682.37819 699.247706,2682.37819 Z M713,2681.06746 L713,2675.98682 C709.259542,2676.81478 708,2678.58359 708,2680.50295 C708,2680.50295 708,2682.98682 710.480916,2682.98682 C711.778626,2682.98682 712.656489,2681.97069 713,2681.06746 Z M719.339623,2682.70051 C719.339623,2682.70051 720.132075,2682.70051 720.358491,2682.06334 L721,2682.32571 C720.698113,2683.52508 718.962264,2684.98682 716.584906,2684.98682 C716.584906,2684.98682 713.226415,2684.98682 712.811321,2681.9509 C712.245283,2683.60004 710.018868,2684.98682 707.339623,2684.98682 C707.339623,2684.98682 703,2684.98682 703,2681.16381 C703,2677.07844 706.169811,2676.70363 712.773585,2675.05449 L712.773585,2672.7307 C712.773585,2668.83273 710.584906,2666.88375 707.981132,2668.23305 C706.773585,2668.83273 706.622642,2669.4699 706.886792,2669.50738 C707.45283,2669.58234 707.943396,2669.84471 708.283019,2670.33195 C708.962264,2671.30644 708.698113,2672.61826 707.716981,2673.29291 C706.735849,2673.93008 705.415094,2673.7052 704.735849,2672.7307 C704.283019,2672.01857 704.245283,2671.11904 704.622642,2670.48187 C705,2669.84471 705.490566,2668.83273 707.566038,2667.7458 C709.264151,2666.84627 711.226415,2666.99619 711.226415,2666.99619 C716.169811,2666.99619 717.528302,2670.06959 717.528302,2674.49229 L717.528302,2680.07688 C717.528302,2680.07688 717.490566,2682.70051 719.339623,2682.70051 Z M763.864583,2680.24629 C763.864583,2682.72595 765.432292,2684.03871 767,2684.03871 L767,2684.65863 L755.989583,2684.65863 L755.989583,2684.03871 C757.520833,2684.03871 758.614583,2682.72595 758.614583,2680.24629 L758.614583,2660.7007 L748.916667,2684.98682 L748.296875,2684.98682 L738.088542,2663.10744 L738.088542,2675.43282 C738.088542,2675.43282 738.015625,2684.03871 743.046875,2684.03871 L743.046875,2684.65863 L732,2684.65863 L732,2684.03871 C737.46875,2684.03871 737.46875,2675.43282 737.46875,2675.43282 L737.46875,2662.12286 C736.083333,2659.67967 734.260417,2659.67967 733.348958,2659.60674 L733.348958,2658.98682 L742.536458,2658.98682 L751.322917,2677.4749 L758.614583,2658.98682 L766.671875,2658.98682 L766.671875,2659.60674 C765.104167,2659.60674 763.864583,2660.59131 763.864583,2662.81571 L763.864583,2680.24629 Z M779,2681.06746 L779,2675.98682 C775.259542,2676.81478 774,2678.58359 774,2680.50295 C774,2680.50295 774,2682.98682 776.480916,2682.98682 C777.778626,2682.98682 778.656489,2681.97069 779,2681.06746 Z M785.339623,2682.70051 C785.339623,2682.70051 786.132075,2682.70051 786.358491,2682.06334 L787,2682.32571 C786.698113,2683.52508 784.962264,2684.98682 782.584906,2684.98682 C782.584906,2684.98682 779.226415,2684.98682 778.811321,2681.9509 C778.245283,2683.60004 776.018868,2684.98682 773.339623,2684.98682 C773.339623,2684.98682 769,2684.98682 769,2681.16381 C769,2677.07844 772.169811,2676.70363 778.773585,2675.05449 L778.773585,2672.7307 C778.773585,2668.83273 776.584906,2666.88375 773.981132,2668.23305 C772.773585,2668.83273 772.622642,2669.4699 772.886792,2669.50738 C773.45283,2669.58234 773.943396,2669.84471 774.283019,2670.33195 C774.962264,2671.30644 774.698113,2672.61826 773.716981,2673.29291 C772.735849,2673.93008 771.415094,2673.7052 770.735849,2672.7307 C770.283019,2672.01857 770.245283,2671.11904 770.622642,2670.48187 C771,2669.84471 771.490566,2668.83273 773.566038,2667.7458 C775.264151,2666.84627 777.226415,2666.99619 777.226415,2666.99619 C782.169811,2666.99619 783.528302,2670.06959 783.528302,2674.49229 L783.528302,2680.07688 C783.528302,2680.07688 783.490566,2682.70051 785.339623,2682.70051 Z M799.01367,2667.16729 C799.800361,2666.84245 801.223897,2666.98682 802.048049,2667.6365 C803.209354,2668.61102 803.321739,2670.34351 802.310279,2671.42631 C801.29882,2672.54521 799.575592,2672.68958 798.376825,2671.71506 C797.814903,2671.20975 797.515212,2670.59616 797.515212,2669.94648 C797.515212,2669.54945 795.979292,2669.91039 794.593218,2672.07599 L794.593218,2679.58342 C794.593218,2681.60465 794.780525,2683.0123 796.129138,2683.37323 L796.129138,2683.98682 L788.374615,2683.98682 L788.374615,2683.37323 C789.835612,2682.94011 789.873073,2681.46028 789.873073,2679.58342 L789.873073,2671.57068 C789.873073,2670.34351 789.53592,2669.80211 788,2669.04414 L788,2668.43056 L794.593218,2666.98682 L794.593218,2671.06538 C796.578675,2668.06962 798.114595,2667.52822 799.01367,2667.16729 Z M810,2661.48682 C810,2662.88388 808.868613,2663.98682 807.481752,2663.98682 C806.094891,2663.98682 805,2662.88388 805,2661.48682 C805,2660.08976 806.094891,2658.98682 807.481752,2658.98682 C808.868613,2658.98682 810,2660.08976 810,2661.48682 Z M810.481481,2679.58342 C810.481481,2681.60465 810.666667,2683.0123 812,2683.37323 L812,2683.98682 L804.407407,2683.98682 L804.407407,2683.37323 C805.814815,2682.94011 805.888889,2681.42419 805.888889,2679.58342 L805.888889,2671.57068 C805.888889,2670.34351 805.518519,2669.8382 804,2669.04414 L804,2668.43056 L810.481481,2666.98682 L810.481481,2679.58342 Z M825,2681.06746 L825,2675.98682 C821.259542,2676.81478 820,2678.58359 820,2680.50295 C820,2680.50295 820,2682.98682 822.480916,2682.98682 C823.778626,2682.98682 824.656489,2681.97069 825,2681.06746 Z M831.339623,2682.70051 C831.339623,2682.70051 832.132075,2682.70051 832.358491,2682.06334 L833,2682.32571 C832.698113,2683.52508 830.962264,2684.98682 828.584906,2684.98682 C828.584906,2684.98682 825.226415,2684.98682 824.811321,2681.9509 C824.245283,2683.60004 822.018868,2684.98682 819.339623,2684.98682 C819.339623,2684.98682 815,2684.98682 815,2681.16381 C815,2677.07844 818.169811,2676.70363 824.773585,2675.05449 L824.773585,2672.7307 C824.773585,2668.83273 822.584906,2666.88375 819.981132,2668.23305 C818.773585,2668.83273 818.622642,2669.4699 818.886792,2669.50738 C819.45283,2669.58234 819.943396,2669.84471 820.283019,2670.33195 C820.962264,2671.30644 820.698113,2672.61826 819.716981,2673.29291 C818.735849,2673.93008 817.415094,2673.7052 816.735849,2672.7307 C816.283019,2672.01857 816.245283,2671.11904 816.622642,2670.48187 C817,2669.84471 817.490566,2668.83273 819.566038,2667.7458 C821.264151,2666.84627 823.226415,2666.99619 823.226415,2666.99619 C828.169811,2666.99619 829.528302,2670.06959 829.528302,2674.49229 L829.528302,2680.07688 C829.528302,2680.07688 829.490566,2682.70051 831.339623,2682.70051 Z M857,2679.50084 L857,2674.22981 C857,2669.51953 854.785714,2667.98682 852.75,2667.98682 C850.142857,2667.98682 849,2670.04289 849,2675.72514 C849,2681.74383 850.178571,2683.98682 853.071429,2683.98682 C855.5,2683.98682 857,2682.11766 857,2679.50084 Z M862.114603,2681.05569 C862.114603,2682.87291 862.484288,2683.31795 864,2683.50338 L864,2684.13384 L858.565619,2684.94973 C857.530499,2685.09808 857.530499,2684.28218 857.530499,2684.28218 L857.530499,2681.98285 C856.347505,2684.17093 853.61183,2684.98682 851.874307,2684.98682 C847.696858,2684.98682 844,2681.68616 844,2675.82655 C844,2669.85569 847.918669,2667.18549 853.09427,2667.18549 C854.794824,2667.18549 856.347505,2667.59344 857.530499,2668.29808 L857.530499,2661.21463 C857.530499,2659.91662 857.160813,2659.54576 855.645102,2658.98947 L855.645102,2658.359 L862.114603,2656.98682 L862.114603,2681.05569 Z M871,2674.98682 L878,2674.98682 C878,2670.50966 876.535714,2667.98682 874.571429,2667.98682 C872.464286,2667.98682 871,2671.57565 871,2674.98682 Z M873.899329,2666.98682 C879.41387,2666.98682 882,2669.79932 882,2675.64932 L869.90604,2675.64932 C870.210291,2679.32432 872.111857,2681.23682 874.659955,2681.79932 C876.713647,2682.24932 879.756152,2681.49932 880.706935,2679.73682 L881.353468,2680.07432 C880.744966,2682.02432 878.501119,2684.98682 873.404922,2684.98682 C868.422819,2684.98682 865,2680.44932 865,2676.06182 C865,2670.77432 868.651007,2666.98682 873.899329,2666.98682 Z M891.511628,2680.44526 C891.511628,2682.50961 891.697674,2684.01095 893,2684.34875 L893,2684.98682 L885.372093,2684.98682 L885.372093,2684.34875 C886.786047,2683.93588 886.860465,2682.35947 886.860465,2680.44526 L886.860465,2661.45331 C886.860465,2660.13963 886.488372,2659.57663 885,2659.01363 L885,2658.37556 L891.511628,2656.98682 L891.511628,2680.44526 Z M904,2658.98682 L925,2658.98682 L925,2666.00386 L924.363636,2666.00386 C923.053476,2659.28227 912.909091,2659.61466 912.909091,2659.61466 L911.59893,2659.61466 L911.59893,2671.50671 L912.909091,2671.50671 C912.909091,2671.50671 918.673797,2671.65443 919.347594,2667.70273 L919.983957,2667.70273 L919.983957,2676.01239 L919.347594,2676.01239 C918.673797,2672.06068 912.909091,2672.20841 912.909091,2672.20841 L911.59893,2672.20841 L911.59893,2679.92716 C911.59893,2684.10046 913.208556,2684.35898 914.818182,2684.35898 L914.818182,2684.98682 L904,2684.98682 L904,2684.35898 C905.609626,2684.35898 906.171123,2682.43852 906.171123,2679.92716 L906.171123,2664.08341 C906.171123,2661.79364 905.647059,2659.61466 904,2659.61466 L904,2658.98682 Z M933,2661.48682 C933,2662.88388 931.868613,2663.98682 930.481752,2663.98682 C929.094891,2663.98682 928,2662.88388 928,2661.48682 C928,2660.08976 929.094891,2658.98682 930.481752,2658.98682 C931.868613,2658.98682 933,2660.08976 933,2661.48682 Z M933.481481,2679.58342 C933.481481,2681.60465 933.666667,2683.0123 935,2683.37323 L935,2683.98682 L927.407407,2683.98682 L927.407407,2683.37323 C928.814815,2682.94011 928.888889,2681.42419 928.888889,2679.58342 L928.888889,2671.57068 C928.888889,2670.34351 928.518519,2669.8382 927,2669.04414 L927,2668.43056 L933.481481,2666.98682 L933.481481,2679.58342 Z M946,2666.98682 C951.785714,2666.98682 955,2671.03682 955,2675.98682 C955,2680.89932 951.785714,2684.98682 946,2684.98682 C940.252101,2684.98682 937,2680.89932 937,2675.98682 C937,2671.03682 940.252101,2666.98682 946,2666.98682 Z M946.519337,2683.98682 C949.303867,2683.98682 950,2682.48009 950,2675.98682 C950,2669.49355 949.303867,2667.98682 946.519337,2667.98682 C943.734807,2667.98682 943,2669.49355 943,2675.98682 C943,2682.48009 943.734807,2683.98682 946.519337,2683.98682 Z M968.01367,2667.16729 C968.800361,2666.84245 970.223897,2666.98682 971.048049,2667.6365 C972.209354,2668.61102 972.321739,2670.34351 971.310279,2671.42631 C970.29882,2672.54521 968.575592,2672.68958 967.376825,2671.71506 C966.814903,2671.20975 966.515212,2670.59616 966.515212,2669.94648 C966.515212,2669.54945 964.979292,2669.91039 963.593218,2672.07599 L963.593218,2679.58342 C963.593218,2681.60465 963.780525,2683.0123 965.129138,2683.37323 L965.129138,2683.98682 L957.374615,2683.98682 L957.374615,2683.37323 C958.835612,2682.94011 958.873073,2681.46028 958.873073,2679.58342 L958.873073,2671.57068 C958.873073,2670.34351 958.53592,2669.80211 957,2669.04414 L957,2668.43056 L963.593218,2666.98682 L963.593218,2671.06538 C965.578675,2668.06962 967.114595,2667.52822 968.01367,2667.16729 Z M978,2674.98682 L985,2674.98682 C985,2670.50966 983.535714,2667.98682 981.571429,2667.98682 C979.464286,2667.98682 978,2671.57565 978,2674.98682 Z M981.899329,2666.98682 C987.41387,2666.98682 990,2669.79932 990,2675.64932 L977.90604,2675.64932 C978.210291,2679.32432 980.111857,2681.23682 982.659955,2681.79932 C984.713647,2682.24932 987.756152,2681.49932 988.706935,2679.73682 L989.353468,2680.07432 C988.744966,2682.02432 986.501119,2684.98682 981.404922,2684.98682 C976.422819,2684.98682 973,2680.44932 973,2676.06182 C973,2670.77432 976.651007,2666.98682 981.899329,2666.98682 Z" transform="translate(-450 -2657)"/>
</svg>
