<?xml version="1.0" encoding="UTF-8"?>
<svg xmlns="http://www.w3.org/2000/svg" width="540" height="31" viewBox="0 0 540 31">
  <path fill="#7F7165" fill-rule="evenodd" d="M456.404255,1372 L455,1372 L455,1382 L456.914894,1382 C458.893617,1382 461,1381.42073 461,1376.78659 C461,1372.30488 458.351064,1372 456.404255,1372 Z M465,1386.66051 C465,1391.85085 461.10119,1392 455.952381,1392 L450,1392 L450,1391.73153 C451.279762,1391.73153 451.72619,1390.44886 451.72619,1388.42045 L451.72619,1374.51989 C451.72619,1372.67045 451.309524,1371.26847 450,1371.26847 L450,1371 L455.952381,1371 C460.089286,1371 463.60119,1371.23864 463.60119,1376.10085 C463.60119,1380.75426 459.22619,1381.23153 458.630952,1381.23153 C460.565476,1381.23153 465,1381.61932 465,1386.66051 Z M462,1386.95547 C462,1382.14837 459.060606,1382 456.818182,1382 L455,1382 L455,1392 L456.333333,1391.99997 C459.242424,1391.99997 462,1392.05932 462,1386.95547 Z M476,1385 C472.526946,1385.79621 471,1387.04739 471,1388.75355 C471,1389.5782 471.538922,1391 473.365269,1391 C474.952096,1391 475.700599,1389.91943 476,1389.23697 L476,1385 Z M479.73903,1391.53156 C479.73903,1391.53156 480.429561,1391.53156 480.639723,1390.7193 L481,1390.8755 C480.819861,1391.81273 479.799076,1392.99988 478.237875,1392.99988 C478.237875,1392.99988 475.866051,1393.06236 475.685912,1390.37565 C475.265589,1391.87521 473.524249,1392.99988 471.422633,1392.99988 C471.422633,1392.99988 468,1393 468,1389.78208 C468,1386.658 470.551963,1385.9707 475.685912,1384.59611 L475.685912,1382.78414 C475.685912,1379.56634 474.124711,1377.75438 471.722864,1378.91029 C470.551963,1379.50386 470.371824,1380.09744 470.551963,1380.12868 C470.91224,1380.19116 471.242494,1380.34736 471.482679,1380.69101 C471.933025,1381.31583 471.812933,1382.25305 471.182448,1382.72166 C470.581986,1383.22151 469.711316,1383.09655 469.26097,1382.44049 C468.930716,1381.97188 468.87067,1381.34707 469.110855,1380.9097 C469.321016,1380.44108 469.831409,1379.50386 471.452656,1378.59788 C472.743649,1377.91058 474.214781,1378.0043 474.214781,1378.0043 C477.487298,1378.0043 478.387991,1380.53481 478.387991,1384.25246 L478.387991,1389.56339 C478.387991,1389.56339 478.357968,1391.53156 479.73903,1391.53156 Z M492.306444,1391.46875 C492.306444,1391.46875 491.279008,1393 488.46867,1393 C484.812209,1393 483.180399,1391.75 483.180399,1391.75 L483.180399,1387.5 L483.573242,1387.5 C483.784773,1389.5625 484.54024,1392.59375 488.46867,1392.59375 C491.671851,1392.59375 491.279008,1389.28125 488.982388,1387.71875 L485.9303,1385.8125 C483.029306,1383.8125 482.364495,1381.9375 483.573242,1379.78125 C483.573242,1379.78125 484.479803,1378 487.56211,1378 C491.037259,1378 492.487756,1379 492.487756,1379 L492.487756,1382.8125 L492.125132,1382.8125 C491.913601,1380.96875 491.067478,1378.40625 487.56211,1378.40625 C484.691334,1378.40625 484.479803,1381.34375 487.108829,1383.0625 L490.160917,1385.03125 C492.880599,1386.78125 493.756941,1389.3125 492.306444,1391.46875 Z M497.5,1376 C496.647059,1376 496,1375.32353 496,1374.5 C496,1373.64706 496.647059,1373 497.5,1373 C498.323529,1373 499,1373.64706 499,1374.5 C499,1375.32353 498.323529,1376 497.5,1376 Z M500,1392.61359 L500,1393 L495.280899,1393 L495.280899,1392.61359 C496.348315,1392.28662 496.404494,1391.75159 496.404494,1390.23567 L496.404494,1382.00212 C496.404494,1380.96178 496.179775,1380.54565 495,1380.21868 L495,1379.862 L498.848315,1379 L498.848315,1390.23567 C498.848315,1391.90021 498.988764,1392.34607 500,1392.61359 Z M507,1391.61247 L507,1392 L502.280899,1392 L502.280899,1391.61247 C503.348315,1391.28455 503.404494,1390.77778 503.404494,1389.25745 L503.404494,1372.8916 C503.404494,1371.84824 503.151685,1371.43089 502,1371.19241 L502,1370.80488 L505.876404,1370 L505.876404,1389.25745 C505.876404,1390.89702 506.016854,1391.34417 507,1391.61247 Z M511.5,1376 C510.647059,1376 510,1375.32353 510,1374.5 C510,1373.64706 510.647059,1373 511.5,1373 C512.323529,1373 513,1373.64706 513,1374.5 C513,1375.32353 512.323529,1376 511.5,1376 Z M515,1392.61359 L515,1393 L510.280899,1393 L510.280899,1392.61359 C511.348315,1392.28662 511.404494,1391.75159 511.404494,1390.23567 L511.404494,1382.00212 C511.404494,1380.96178 511.179775,1380.54565 510,1380.21868 L510,1379.862 L513.848315,1379 L513.848315,1390.23567 C513.848315,1391.90021 513.988764,1392.34607 515,1392.61359 Z M527,1388.71332 L527,1383.04966 C526.91498,1380.2912 525.412955,1379 523.740891,1379 C521.842105,1379 520,1380.34989 520,1385.07449 C520,1389.71106 521.388664,1392 523.854251,1392 C525.668016,1392 526.91498,1390.67946 527,1388.71332 Z M531,1400.61141 L531,1401 L526.048421,1401 L526.048421,1400.61141 C527.138947,1400.28261 527.197895,1399.89402 527.197895,1398.36957 L527.197895,1391.58424 C526.225263,1392.77989 524.515789,1393.34783 523.189474,1393.34783 C519.269474,1393.34783 517,1390.14946 517,1385.99457 C517,1381.33152 519.976842,1379 523.896842,1379 C525.429474,1379 526.726316,1379.44837 527.698947,1380.22554 C528.435789,1379.38859 529.791579,1378.88043 529.791579,1379.3288 L529.791579,1398.36957 C529.791579,1400.01359 529.938947,1400.34239 531,1400.61141 Z M548,1391.96875 L548,1392.375 L544.488706,1392.96875 C543.749487,1393.125 543.749487,1392.5 543.749487,1392.5 L543.749487,1389.84375 C543.195072,1391.5 541.193018,1393 539.129363,1393 C536.911704,1393 534.724846,1392.1875 534.724846,1388.28125 L534.724846,1381.25 C534.724846,1379.25 534.755647,1379.09375 533,1378.96875 L533,1378.59375 L537.373717,1378 L537.373717,1388.1875 C537.373717,1390.5625 538.759754,1391.46875 540.546201,1391.46875 C542.086242,1391.46875 543.195072,1390.375 543.749487,1389.0625 L543.749487,1381.1875 C543.749487,1379.28125 543.811088,1379.0625 542.301848,1378.96875 L542.301848,1378.59375 L546.429158,1378 L546.429158,1390.125 C546.429158,1391.625 546.706366,1391.8125 548,1391.96875 Z M552,1385 L559,1385 C559,1380.72683 557.055556,1379 555.619658,1379 C553.91453,1379 552,1381.3122 552,1385 Z M561.120773,1388.875 L561.497585,1389.03125 C561.152174,1390.5 559.425121,1393 555.719807,1393 C551.794686,1393 549,1389.75 549,1385.625 C549,1381 551.951691,1378 555.845411,1378 C559.487923,1378 562,1380.3125 562,1385.21875 L551.951691,1385.21875 C552.077295,1389.4375 553.961353,1391.125 556.442029,1391.375 C558.326087,1391.5625 560.555556,1390.40625 561.120773,1388.875 Z M583,1388.49772 L583,1383.30365 C583,1380.42466 581.110236,1379 579.188976,1379 C577.110236,1379 575,1380.39498 575,1385.14384 C575,1389.86301 576.606299,1392 579.346457,1392 C581.425197,1392 583,1390.57534 583,1388.49772 Z M587,1392.01473 L587,1392.41499 L583.69697,1392.96921 C582.848485,1393.12316 582.848485,1392.41499 582.848485,1392.41499 L582.848485,1390.72155 C581.909091,1392.29183 579.878788,1393 578.393939,1393 C574.333333,1393 572,1389.73628 572,1385.4257 C572,1380.65328 575.060606,1378.22088 579.121212,1378.22088 C580.606061,1378.22088 581.848485,1378.65194 582.848485,1379.36011 L582.848485,1372.95582 C582.848485,1371.87818 582.545455,1371.47791 581.30303,1371.23159 L581.30303,1370.83133 L585.454545,1370 L585.454545,1390.32129 C585.454545,1391.82999 585.787879,1392.01473 587,1392.01473 Z M602,1391.96875 L602,1392.375 L598.488706,1392.96875 C597.749487,1393.125 597.749487,1392.5 597.749487,1392.5 L597.749487,1389.84375 C597.195072,1391.5 595.193018,1393 593.129363,1393 C590.911704,1393 588.724846,1392.1875 588.724846,1388.28125 L588.724846,1381.25 C588.724846,1379.25 588.755647,1379.09375 587,1378.96875 L587,1378.59375 L591.373717,1378 L591.373717,1388.1875 C591.373717,1390.5625 592.759754,1391.46875 594.546201,1391.46875 C596.086242,1391.46875 597.195072,1390.375 597.749487,1389.0625 L597.749487,1381.1875 C597.749487,1379.28125 597.811088,1379.0625 596.301848,1378.96875 L596.301848,1378.59375 L600.429158,1378 L600.429158,1390.125 C600.429158,1391.625 600.706366,1391.8125 602,1391.96875 Z M622.591078,1381.23823 C626.581282,1383.8892 628.243867,1387.18006 625.976706,1390.50139 C625.976706,1390.50139 624.555951,1393 619.689111,1393 C613.82472,1393 611.406414,1391.1108 611.406414,1391.1108 L611.406414,1385.26039 L611.920304,1385.26039 C612.585338,1387.11911 614.308381,1392.48199 619.689111,1392.48199 C622.923595,1392.48199 623.921146,1388.06371 620.23323,1385.3518 L615.577992,1382.39612 C611.285499,1379.68421 609.683372,1376.63712 612.192364,1373.31579 C612.192364,1373.31579 613.673576,1371 618.449729,1371 C623.618858,1371 626.218536,1372.4626 626.218536,1372.4626 L626.218536,1377.58172 L625.704646,1377.58172 C625.130299,1375.96676 623.286341,1371.51801 618.449729,1371.51801 C615.185017,1371.51801 614.006093,1375.54017 617.935839,1378.13019 L622.591078,1381.23823 Z M638,1389.35484 L638,1385 C635.007634,1385.70968 634,1387.22581 634,1388.87097 C634,1388.87097 634,1391 635.984733,1391 C637.022901,1391 637.725191,1390.12903 638,1389.35484 Z M642.708595,1391.09474 C642.708595,1391.09474 643.324948,1391.09474 643.501048,1390.56377 L644,1390.7824 C643.765199,1391.78188 642.415094,1393 640.566038,1393 C640.566038,1393 637.953878,1393 637.631027,1390.47007 C637.190776,1391.84435 635.459119,1393 633.375262,1393 C633.375262,1393 630,1393 630,1389.81416 C630,1386.40968 632.465409,1386.09735 637.601677,1384.72306 L637.601677,1382.78657 C637.601677,1379.53826 635.899371,1377.91411 633.874214,1379.03852 C632.93501,1379.53826 632.81761,1380.06923 633.023061,1380.10047 C633.463312,1380.16294 633.844864,1380.38157 634.109015,1380.78761 C634.637317,1381.59969 634.431866,1382.69287 633.668763,1383.25508 C632.90566,1383.78605 631.878407,1383.59865 631.350105,1382.78657 C630.997904,1382.19313 630.968553,1381.44352 631.262055,1380.91255 C631.555556,1380.38157 631.937107,1379.53826 633.551363,1378.63248 C634.872117,1377.88287 636.398323,1378.00781 636.398323,1378.00781 C640.243187,1378.00781 641.29979,1380.56897 641.29979,1384.25455 L641.29979,1388.90838 C641.29979,1388.90838 641.27044,1391.09474 642.708595,1391.09474 Z M658.565632,1388.6875 L659,1388.96875 C658.565632,1390.5625 656.704057,1393 652.825776,1393 C648.761337,1393 646,1389.09375 646,1385.4375 C646,1381.84375 648.73031,1378 654.0358,1378 C656.238663,1378 657.572792,1378.90625 658.100239,1379.375 C658.627685,1379.84375 658.937947,1380.71875 658.720764,1381.46875 C658.410501,1382.5625 657.293556,1383.28125 656.176611,1382.96875 C655.059666,1382.6875 654.408115,1381.53125 654.718377,1380.4375 C654.842482,1379.84375 655.214797,1379.4375 655.680191,1379.1875 C655.959427,1379.0625 655.27685,1378.53125 654.0358,1378.53125 C652.918854,1378.53125 649.909308,1379.5 649.909308,1384.875 C649.909308,1388.25 651.708831,1389.75 653.849642,1390.21875 C655.400955,1390.5625 657.852029,1389.71875 658.565632,1388.6875 Z M668.810936,1379.14862 C669.440289,1378.8811 670.579117,1379 671.238439,1379.53503 C672.167483,1380.33758 672.257391,1381.76433 671.448223,1382.65605 C670.639056,1383.57749 669.260474,1383.69639 668.30146,1382.89384 C667.851923,1382.47771 667.612169,1381.9724 667.612169,1381.43737 C667.612169,1381.1104 666.383433,1381.40764 665.274574,1383.19108 L665.274574,1389.37367 C665.274574,1391.03822 665.42442,1392.19745 666.50331,1392.49469 L666.50331,1393 L660.299692,1393 L660.299692,1392.49469 C661.468489,1392.138 661.498459,1390.91932 661.498459,1389.37367 L661.498459,1382.77495 C661.498459,1381.76433 661.228736,1381.31847 660,1380.69427 L660,1380.18896 L665.274574,1379 L665.274574,1382.35881 C666.86294,1379.89172 668.091676,1379.44586 668.810936,1379.14862 Z M678,1385 L684,1385 C684,1381.16244 682.744898,1379 681.061224,1379 C679.255102,1379 678,1382.07614 678,1385 Z M680.805369,1378 C685.022371,1378 687,1380.34375 687,1385.21875 L677.751678,1385.21875 C677.98434,1388.28125 679.438479,1389.875 681.387025,1390.34375 C682.957494,1390.71875 685.284116,1390.09375 686.011186,1388.625 L686.505593,1388.90625 C686.040268,1390.53125 684.324385,1393 680.427293,1393 C676.61745,1393 674,1389.21875 674,1385.5625 C674,1381.15625 676.791946,1378 680.805369,1378 Z M677,1376 L681.811388,1371 L685,1372.07362 L678.053381,1376 L677,1376 Z M700,1386 L690,1386 L690,1383 L700,1383 L700,1386 Z M720.079208,1386.32687 L720.584158,1386.32687 L721,1391.1108 C718.80198,1392.60388 716.485149,1393 713.306931,1393 C706.950495,1393 703,1388.06371 703,1382 C703,1375.93629 706.950495,1371 713.306931,1371 C716.366337,1371 719.128713,1371.30471 721,1372.85873 L720.584158,1377.64266 L720.079208,1377.64266 C718.415842,1373.52909 716.693069,1371.51801 713.306931,1371.51801 C710.009901,1371.51801 708.346535,1373.65097 708.346535,1382 C708.346535,1390.3795 710.09901,1392.48199 713.306931,1392.48199 C716.871287,1392.48199 719.306931,1389.6482 720.079208,1386.32687 Z M737,1385 L742,1385 C742,1381.20101 741.202454,1379 739.607362,1379 C737.705521,1379 737,1382.10553 737,1385 Z M733,1386.06278 C733,1380.38117 732.716312,1379 731.014184,1379 C729.198582,1379 729,1380.38117 729,1386.06278 C729,1391.74439 729.170213,1393 731.014184,1393 C732.801418,1393 733,1391.74439 733,1386.06278 Z M744.07,1388.625 L744.64,1388.9375 C744.16,1390.5625 743.11,1393 739.33,1393 C737.59,1393 736.21,1392.15625 735.04,1390.96875 C733.9,1392.28125 732.58,1393 730.54,1393 C725.98,1393 724,1389.65625 724,1385.5625 C724,1381.4375 725.98,1378 730.54,1378 C732.55,1378 734.11,1378.875 735.07,1380.15625 C736.33,1378.84375 737.74,1378 739.3,1378 C743.38,1378 745,1380.40625 745,1385.28125 L736.75,1385.28125 C736.87,1388.375 737.92,1389.875 739.93,1390.34375 C741.55,1390.71875 743.32,1389.71875 744.07,1388.625 Z M761.451613,1389.84375 C761.451613,1391.34375 761.724858,1391.46875 763,1391.625 L763,1392.15625 L758.506641,1392.96875 C757.686907,1393.09375 757.656546,1392.375 757.656546,1392.375 L757.656546,1389.625 C756.927894,1391.40625 754.40797,1393 752.525617,1393 C750.127135,1393 748.70019,1391.96875 748.70019,1388.21875 L748.70019,1381.53125 C748.70019,1379.65625 748.760911,1379.375 747,1379.125 L747,1378.59375 L752.464896,1378 L752.464896,1388.125 C752.464896,1389.875 753.254269,1390.71875 755.01518,1390.71875 C755.865275,1390.71875 757.018975,1389.9375 757.656546,1388.6875 L757.656546,1381.625 C757.656546,1379.71875 757.777989,1379.3125 756.229602,1379.125 L756.229602,1378.59375 L761.451613,1378 L761.451613,1389.84375 Z M772.810936,1379.14862 C773.440289,1378.8811 774.579117,1379 775.238439,1379.53503 C776.167483,1380.33758 776.257391,1381.76433 775.448223,1382.65605 C774.639056,1383.57749 773.260474,1383.69639 772.30146,1382.89384 C771.851923,1382.47771 771.612169,1381.9724 771.612169,1381.43737 C771.612169,1381.1104 770.383433,1381.40764 769.274574,1383.19108 L769.274574,1389.37367 C769.274574,1391.03822 769.42442,1392.19745 770.50331,1392.49469 L770.50331,1393 L764.299692,1393 L764.299692,1392.49469 C765.468489,1392.138 765.498459,1390.91932 765.498459,1389.37367 L765.498459,1382.77495 C765.498459,1381.76433 765.228736,1381.31847 764,1380.69427 L764,1380.18896 L769.274574,1379 L769.274574,1382.35881 C770.86294,1379.89172 772.091676,1379.44586 772.810936,1379.14862 Z M796,1388.35514 L796,1384.07243 C796,1380.24533 794.0625,1379 792.28125,1379 C790,1379 789,1380.67056 789,1385.28738 C789,1390.17757 790.03125,1392 792.5625,1392 C794.6875,1392 796,1390.48131 796,1388.35514 Z M799.491682,1389.77086 C799.491682,1391.26358 799.787431,1391.62914 801,1391.78146 L801,1392.29934 L796.652495,1392.96954 C795.824399,1393.09139 795.824399,1392.42119 795.824399,1392.42119 L795.824399,1390.53245 C794.878004,1392.3298 792.689464,1393 791.299445,1393 C787.957486,1393 785,1390.28874 785,1385.4755 C785,1380.57086 788.134935,1378.37748 792.275416,1378.37748 C793.63586,1378.37748 794.878004,1378.71258 795.824399,1379.29139 L795.824399,1373.47285 C795.824399,1372.40662 795.528651,1372.10199 794.316081,1371.64503 L794.316081,1371.12715 L799.491682,1370 L799.491682,1389.77086 Z M807,1385 L813,1385 C813,1381.16244 811.744898,1379 810.061224,1379 C808.255102,1379 807,1382.07614 807,1385 Z M809.805369,1378 C814.022371,1378 816,1380.34375 816,1385.21875 L806.751678,1385.21875 C806.98434,1388.28125 808.438479,1389.875 810.387025,1390.34375 C811.957494,1390.71875 814.284116,1390.09375 815.011186,1388.625 L815.505593,1388.90625 C815.040268,1390.53125 813.324385,1393 809.427293,1393 C805.61745,1393 803,1389.21875 803,1385.5625 C803,1381.15625 805.791946,1378 809.805369,1378 Z M852.402083,1388.98878 C852.402083,1391.08696 853.701042,1392.19776 855,1392.19776 L855,1392.7223 L845.877083,1392.7223 L845.877083,1392.19776 C847.145833,1392.19776 848.052083,1391.08696 848.052083,1388.98878 L848.052083,1372.45021 L840.016667,1393 L839.503125,1393 L831.044792,1374.48668 L831.044792,1384.91585 C831.044792,1384.91585 830.984375,1392.19776 835.153125,1392.19776 L835.153125,1392.7223 L826,1392.7223 L826,1392.19776 C830.53125,1392.19776 830.53125,1384.91585 830.53125,1384.91585 L830.53125,1373.65358 C829.383333,1371.58626 827.872917,1371.58626 827.117708,1371.52454 L827.117708,1371 L834.730208,1371 L842.010417,1386.64376 L848.052083,1371 L854.728125,1371 L854.728125,1371.52454 C853.429167,1371.52454 852.402083,1372.35764 852.402083,1374.23983 L852.402083,1388.98878 Z M864,1378 C868.5,1378 871,1381.375 871,1385.5 C871,1389.59375 868.5,1393 864,1393 C859.529412,1393 857,1389.59375 857,1385.5 C857,1381.375 859.529412,1378 864,1378 Z M864.513812,1393 C866.502762,1393 867,1391.68161 867,1386 C867,1380.31839 866.502762,1379 864.513812,1379 C862.524862,1379 862,1380.31839 862,1386 C862,1391.68161 862.524862,1393 864.513812,1393 Z M886.786982,1389.37367 C886.786982,1391.00849 886.934911,1392.22718 888,1392.49469 L888,1393 L881.905325,1393 L881.905325,1392.49469 C883.029586,1392.16773 883.088757,1390.8896 883.088757,1389.37367 L883.088757,1383.60722 C883.088757,1382.18047 882.171598,1381.14013 880.692308,1381.14013 C879.538462,1381.14013 878.177515,1382.38854 878.177515,1383.57749 L878.177515,1389.43312 C878.177515,1391.06794 878.35503,1392.19745 879.390533,1392.49469 L879.390533,1393 L873.325444,1393 L873.325444,1392.49469 C874.449704,1392.16773 874.47929,1390.94904 874.47929,1389.43312 L874.47929,1382.7155 C874.47929,1381.67516 874.213018,1381.3482 873,1380.69427 L873,1380.18896 L878.177515,1379 L878.177515,1382.18047 C878.857988,1380.3673 881.195266,1379 883.059172,1379 C885.366864,1379 886.786982,1379.92144 886.786982,1383.51805 L886.786982,1389.37367 Z M896.706422,1390.84505 C897.593272,1390.84505 898.266055,1390.23802 898.541284,1389.78275 L899,1390.05591 C898.388379,1391.48243 896.522936,1393 894.474006,1393 C892.058104,1393 890.620795,1392.02875 890.620795,1388.35623 L890.620795,1379.22045 L889.091743,1379.22045 L889,1378.70447 L890.620795,1378.70447 L890.620795,1374.63738 L894.443425,1374 L894.443425,1378.70447 L898.082569,1378.70447 L897.960245,1379.22045 L894.443425,1379.22045 L894.443425,1388.26518 C894.443425,1389.96486 895.17737,1390.84505 896.706422,1390.84505 Z M923,1392.49469 L923,1393 L916.846753,1393 L916.846753,1392.49469 C917.981818,1392.16773 918.041558,1390.8896 918.041558,1389.37367 L918.041558,1383.60722 C918.041558,1381.94268 917.205195,1381.14013 915.861039,1381.14013 C914.755844,1381.14013 913.501299,1382.47771 913.501299,1383.66667 L913.501299,1389.37367 C913.501299,1391.00849 913.650649,1392.22718 914.725974,1392.49469 L914.725974,1393 L908.572727,1393 L908.572727,1392.49469 C909.707792,1392.16773 909.767532,1390.8896 909.767532,1389.37367 L909.767532,1383.60722 C909.767532,1381.94268 908.961039,1381.14013 907.616883,1381.14013 C906.511688,1381.14013 905.227273,1382.50743 905.227273,1383.57749 L905.227273,1389.43312 C905.227273,1391.06794 905.406494,1392.19745 906.451948,1392.49469 L906.451948,1393 L900.328571,1393 L900.328571,1392.49469 C901.463636,1392.16773 901.493506,1390.94904 901.493506,1389.43312 L901.493506,1382.92357 C901.493506,1381.88323 901.224675,1381.3482 900,1380.69427 L900,1380.18896 L905.227273,1379 L905.227273,1382.06157 C906.033766,1380.33758 907.855844,1379 909.737662,1379 C911.828571,1379 913.112987,1379.95117 913.471429,1382.15074 C914.098701,1380.33758 916.12987,1379 918.011688,1379 C920.341558,1379 921.775325,1379.92144 921.775325,1383.51805 L921.775325,1389.37367 C921.775325,1391.00849 921.924675,1392.22718 923,1392.49469 Z M933,1389.35484 L933,1385 C930.007634,1385.70968 929,1387.22581 929,1388.87097 C929,1388.87097 929,1391 930.984733,1391 C932.022901,1391 932.725191,1390.12903 933,1389.35484 Z M937.708595,1391.09474 C937.708595,1391.09474 938.324948,1391.09474 938.501048,1390.56377 L939,1390.7824 C938.765199,1391.78188 937.415094,1393 935.566038,1393 C935.566038,1393 932.953878,1393 932.631027,1390.47007 C932.190776,1391.84435 930.459119,1393 928.375262,1393 C928.375262,1393 925,1393 925,1389.81416 C925,1386.40968 927.465409,1386.09735 932.601677,1384.72306 L932.601677,1382.78657 C932.601677,1379.53826 930.899371,1377.91411 928.874214,1379.03852 C927.93501,1379.53826 927.81761,1380.06923 928.023061,1380.10047 C928.463312,1380.16294 928.844864,1380.38157 929.109015,1380.78761 C929.637317,1381.59969 929.431866,1382.69287 928.668763,1383.25508 C927.90566,1383.78605 926.878407,1383.59865 926.350105,1382.78657 C925.997904,1382.19313 925.968553,1381.44352 926.262055,1380.91255 C926.555556,1380.38157 926.937107,1379.53826 928.551363,1378.63248 C929.872117,1377.88287 931.398323,1378.00781 931.398323,1378.00781 C935.243187,1378.00781 936.29979,1380.56897 936.29979,1384.25455 L936.29979,1388.90838 C936.29979,1388.90838 936.27044,1391.09474 937.708595,1391.09474 Z M948.810936,1379.14862 C949.440289,1378.8811 950.579117,1379 951.238439,1379.53503 C952.167483,1380.33758 952.257391,1381.76433 951.448223,1382.65605 C950.639056,1383.57749 949.260474,1383.69639 948.30146,1382.89384 C947.851923,1382.47771 947.612169,1381.9724 947.612169,1381.43737 C947.612169,1381.1104 946.383433,1381.40764 945.274574,1383.19108 L945.274574,1389.37367 C945.274574,1391.03822 945.42442,1392.19745 946.50331,1392.49469 L946.50331,1393 L940.299692,1393 L940.299692,1392.49469 C941.468489,1392.138 941.498459,1390.91932 941.498459,1389.37367 L941.498459,1382.77495 C941.498459,1381.76433 941.228736,1381.31847 940,1380.69427 L940,1380.18896 L945.274574,1379 L945.274574,1382.35881 C946.86294,1379.89172 948.091676,1379.44586 948.810936,1379.14862 Z M960.706422,1390.84505 C961.593272,1390.84505 962.266055,1390.23802 962.541284,1389.78275 L963,1390.05591 C962.388379,1391.48243 960.522936,1393 958.474006,1393 C956.058104,1393 954.620795,1392.02875 954.620795,1388.35623 L954.620795,1379.22045 L953.091743,1379.22045 L953,1378.70447 L954.620795,1378.70447 L954.620795,1374.63738 L958.443425,1374 L958.443425,1378.70447 L962.082569,1378.70447 L961.960245,1379.22045 L958.443425,1379.22045 L958.443425,1388.26518 C958.443425,1389.96486 959.17737,1390.84505 960.706422,1390.84505 Z M971.810936,1379.14862 C972.440289,1378.8811 973.579117,1379 974.238439,1379.53503 C975.167483,1380.33758 975.257391,1381.76433 974.448223,1382.65605 C973.639056,1383.57749 972.260474,1383.69639 971.30146,1382.89384 C970.851923,1382.47771 970.612169,1381.9724 970.612169,1381.43737 C970.612169,1381.1104 969.383433,1381.40764 968.274574,1383.19108 L968.274574,1389.37367 C968.274574,1391.03822 968.42442,1392.19745 969.50331,1392.49469 L969.50331,1393 L963.299692,1393 L963.299692,1392.49469 C964.468489,1392.138 964.498459,1390.91932 964.498459,1389.37367 L964.498459,1382.77495 C964.498459,1381.76433 964.228736,1381.31847 963,1380.69427 L963,1380.18896 L968.274574,1379 L968.274574,1382.35881 C969.86294,1379.89172 971.091676,1379.44586 971.810936,1379.14862 Z M981,1385 L987,1385 C987,1381.16244 985.744898,1379 984.061224,1379 C982.255102,1379 981,1382.07614 981,1385 Z M983.805369,1378 C988.022371,1378 990,1380.34375 990,1385.21875 L980.751678,1385.21875 C980.98434,1388.28125 982.438479,1389.875 984.387025,1390.34375 C985.957494,1390.71875 988.284116,1390.09375 989.011186,1388.625 L989.505593,1388.90625 C989.040268,1390.53125 987.324385,1393 983.427293,1393 C979.61745,1393 977,1389.21875 977,1385.5625 C977,1381.15625 979.791946,1378 983.805369,1378 Z" transform="translate(-450 -1370)"/>
</svg>
