<?xml version="1.0" encoding="UTF-8"?>
<svg xmlns="http://www.w3.org/2000/svg" width="540" height="35" viewBox="0 0 540 35">
  <path fill="#7F7165" fill-rule="evenodd" d="M457.404255,2151 L456,2151 L456,2162 L457.914894,2162 C459.893617,2162 462,2161.3628 462,2156.26524 C462,2151.33537 459.351064,2151 457.404255,2151 Z M467,2168.89773 C467,2174.82955 462.581349,2175 456.746032,2175 L450,2175 L450,2174.69318 C451.450397,2174.69318 451.956349,2173.22727 451.956349,2170.90909 L451.956349,2155.02273 C451.956349,2152.90909 451.484127,2151.30682 450,2151.30682 L450,2151 L456.746032,2151 C461.434524,2151 465.414683,2151.27273 465.414683,2156.82955 C465.414683,2162.14773 460.456349,2162.69318 459.781746,2162.69318 C461.974206,2162.69318 467,2163.13636 467,2168.89773 Z M463,2167.94657 C463,2162.17804 459.640693,2162 457.077922,2162 L455,2162 L455,2174 L456.52381,2173.99996 C459.848485,2173.99996 463,2174.07118 463,2167.94657 Z M479,2166 C474.832335,2166.92891 473,2168.38863 473,2170.37915 C473,2171.34123 473.646707,2173 475.838323,2173 C477.742515,2173 478.640719,2171.73934 479,2170.94313 L479,2166 Z M483.545035,2173.33577 C483.545035,2173.33577 484.341801,2173.33577 484.584296,2172.41521 L485,2172.59224 C484.792148,2173.65442 483.614319,2174.99986 481.812933,2174.99986 C481.812933,2174.99986 479.076212,2175.07067 478.86836,2172.02574 C478.383372,2173.72524 476.374134,2174.99986 473.949192,2174.99986 C473.949192,2174.99986 470,2175 470,2171.35302 C470,2167.8124 472.944573,2167.03346 478.86836,2165.47559 L478.86836,2163.42203 C478.86836,2159.77519 477.066975,2157.72163 474.295612,2159.03166 C472.944573,2159.70438 472.736721,2160.37709 472.944573,2160.4125 C473.360277,2160.48331 473.741339,2160.66034 474.018476,2161.04981 C474.538106,2161.75794 474.399538,2162.82012 473.672055,2163.35122 C472.979215,2163.91772 471.974596,2163.77609 471.454965,2163.03256 C471.073903,2162.50147 471.004619,2161.79334 471.281755,2161.29766 C471.524249,2160.76656 472.113164,2159.70438 473.983834,2158.6776 C475.473441,2157.89866 477.170901,2158.00488 477.170901,2158.00488 C480.946882,2158.00488 481.986143,2160.87278 481.986143,2165.08612 L481.986143,2171.10518 C481.986143,2171.10518 481.951501,2173.33577 483.545035,2173.33577 Z M497.237088,2173.26458 C497.237088,2173.26458 496.106909,2175 493.015537,2175 C488.99343,2175 487.198439,2173.58333 487.198439,2173.58333 L487.198439,2168.76667 L487.630567,2168.76667 C487.863251,2171.10417 488.694265,2174.53958 493.015537,2174.53958 C496.539037,2174.53958 496.106909,2170.78542 493.580627,2169.01458 L490.22333,2166.85417 C487.032237,2164.5875 486.300944,2162.4625 487.630567,2160.01875 C487.630567,2160.01875 488.627783,2158 492.01832,2158 C495.840985,2158 497.436532,2159.13333 497.436532,2159.13333 L497.436532,2163.45417 L497.037645,2163.45417 C496.804961,2161.36458 495.874225,2158.46042 492.01832,2158.46042 C488.860467,2158.46042 488.627783,2161.78958 491.519712,2163.7375 L494.877009,2165.96875 C497.868659,2167.95208 498.832635,2170.82083 497.237088,2173.26458 Z M503.5,2156 C502.647059,2156 502,2155.09804 502,2154 C502,2152.86275 502.647059,2152 503.5,2152 C504.323529,2152 505,2152.86275 505,2154 C505,2155.09804 504.323529,2156 503.5,2156 Z M507,2174.55839 L507,2175 L501.337079,2175 L501.337079,2174.55839 C502.617978,2174.18471 502.685393,2173.57325 502.685393,2171.84076 L502.685393,2162.431 C502.685393,2161.24204 502.41573,2160.76645 501,2160.39278 L501,2159.98514 L505.617978,2159 L505.617978,2171.84076 C505.617978,2173.7431 505.786517,2174.25265 507,2174.55839 Z M515,2173.55962 L515,2174 L509.337079,2174 L509.337079,2173.55962 C510.617978,2173.18699 510.685393,2172.61111 510.685393,2170.88347 L510.685393,2152.28591 C510.685393,2151.10027 510.382022,2150.62602 509,2150.35501 L509,2149.91463 L513.651685,2149 L513.651685,2170.88347 C513.651685,2172.74661 513.820225,2173.25474 515,2173.55962 Z M520.5,2156 C519.647059,2156 519,2155.09804 519,2154 C519,2152.86275 519.647059,2152 520.5,2152 C521.323529,2152 522,2152.86275 522,2154 C522,2155.09804 521.323529,2156 520.5,2156 Z M523,2174.55839 L523,2175 L517.337079,2175 L517.337079,2174.55839 C518.617978,2174.18471 518.685393,2173.57325 518.685393,2171.84076 L518.685393,2162.431 C518.685393,2161.24204 518.41573,2160.76645 517,2160.39278 L517,2159.98514 L521.617978,2159 L521.617978,2171.84076 C521.617978,2173.7431 521.786517,2174.25265 523,2174.55839 Z M538,2170.20767 L538,2163.67269 C537.902834,2160.48984 536.186235,2159 534.275304,2159 C532.105263,2159 530,2160.55756 530,2166.00903 C530,2171.35892 531.587045,2174 534.404858,2174 C536.477733,2174 537.902834,2172.4763 538,2170.20767 Z M542,2183.55842 L542,2184 L536.341053,2184 L536.341053,2183.55842 C537.587368,2183.18478 537.654737,2182.74321 537.654737,2181.01087 L537.654737,2173.30027 C536.543158,2174.65897 534.589474,2175.30435 533.073684,2175.30435 C528.593684,2175.30435 526,2171.66984 526,2166.94837 C526,2161.64946 529.402105,2159 533.882105,2159 C535.633684,2159 537.115789,2159.50951 538.227368,2160.39266 C539.069474,2159.44158 540.618947,2158.86413 540.618947,2159.37364 L540.618947,2181.01087 C540.618947,2182.87908 540.787368,2183.25272 542,2183.55842 Z M561,2173.83125 L561,2174.29167 L557.020534,2174.96458 C556.182752,2175.14167 556.182752,2174.43333 556.182752,2174.43333 L556.182752,2171.42292 C555.554415,2173.3 553.285421,2175 550.946612,2175 C548.433265,2175 545.954825,2174.07917 545.954825,2169.65208 L545.954825,2161.68333 C545.954825,2159.41667 545.989733,2159.23958 544,2159.09792 L544,2158.67292 L548.956879,2158 L548.956879,2169.54583 C548.956879,2172.2375 550.527721,2173.26458 552.552361,2173.26458 C554.297741,2173.26458 555.554415,2172.025 556.182752,2170.5375 L556.182752,2161.6125 C556.182752,2159.45208 556.252567,2159.20417 554.542094,2159.09792 L554.542094,2158.67292 L559.219713,2158 L559.219713,2171.74167 C559.219713,2173.44167 559.533881,2173.65417 561,2173.83125 Z M566,2166 L574,2166 C574,2161.01463 571.777778,2159 570.136752,2159 C568.188034,2159 566,2161.69756 566,2166 Z M576.05314,2170.325 L576.458937,2170.50208 C576.086957,2172.16667 574.227053,2175 570.236715,2175 C566.009662,2175 563,2171.31667 563,2166.64167 C563,2161.4 566.178744,2158 570.371981,2158 C574.294686,2158 577,2160.62083 577,2166.18125 L566.178744,2166.18125 C566.31401,2170.9625 568.342995,2172.875 571.014493,2173.15833 C573.043478,2173.37083 575.444444,2172.06042 576.05314,2170.325 Z M604.577396,2151 L615,2151 L615,2151.57955 C609.805897,2151.54545 609.874693,2159.65909 609.874693,2159.65909 L609.874693,2175 L608.051597,2175 L593.019656,2156.28409 L593.019656,2166.30682 C593.019656,2166.30682 592.985258,2174.42045 597.732187,2174.42045 L597.732187,2175 L587.275184,2175 L587.275184,2174.42045 C592.469287,2174.42045 592.434889,2166.30682 592.434889,2166.30682 L592.434889,2155.67045 L591.093366,2154 C588.891892,2151.27273 587.894349,2151.64773 587,2151.57955 L587,2151 L595.427518,2151 L609.289926,2167.94318 L609.289926,2159.65909 C609.289926,2159.65909 609.324324,2151.54545 604.577396,2151.57955 L604.577396,2151 Z M625,2158 C630.142857,2158 633,2161.825 633,2166.5 C633,2171.13958 630.142857,2175 625,2175 C619.890756,2175 617,2171.13958 617,2166.5 C617,2161.825 619.890756,2158 625,2158 Z M625.016575,2174 C627.403315,2174 628,2172.58744 628,2166.5 C628,2160.41256 627.403315,2159 625.016575,2159 C622.629834,2159 622,2160.41256 622,2166.5 C622,2172.58744 622.629834,2174 625.016575,2174 Z M643.477064,2172.50479 C644.452599,2172.50479 645.192661,2171.80192 645.495413,2171.27476 L646,2171.59105 C645.327217,2173.24281 643.275229,2175 641.021407,2175 C638.363914,2175 636.782875,2173.8754 636.782875,2169.623 L636.782875,2159.04473 L635.100917,2159.04473 L635,2158.44728 L636.782875,2158.44728 L636.782875,2153.73802 L640.987768,2153 L640.987768,2158.44728 L644.990826,2158.44728 L644.856269,2159.04473 L640.987768,2159.04473 L640.987768,2169.51757 C640.987768,2171.48562 641.795107,2172.50479 643.477064,2172.50479 Z M657.279426,2159.16985 C658.01367,2158.86412 659.342304,2159 660.111512,2159.61146 C661.195397,2160.52866 661.300289,2162.15924 660.35626,2163.17834 C659.412232,2164.23142 657.803886,2164.3673 656.685037,2163.45011 C656.160577,2162.97452 655.880864,2162.39703 655.880864,2161.78556 C655.880864,2161.41189 654.447339,2161.75159 653.15367,2163.78981 L653.15367,2170.85563 C653.15367,2172.75796 653.32849,2174.0828 654.587195,2174.42251 L654.587195,2175 L647.34964,2175 L647.34964,2174.42251 C648.713238,2174.01486 648.748202,2172.62208 648.748202,2170.85563 L648.748202,2163.31423 C648.748202,2162.15924 648.433525,2161.64968 647,2160.93631 L647,2160.35881 L653.15367,2159 L653.15367,2162.83864 C655.006763,2160.01911 656.440289,2159.50955 657.279426,2159.16985 Z M667,2166 L674,2166 C674,2161.52284 672.535714,2159 670.571429,2159 C668.464286,2159 667,2162.58883 667,2166 Z M670.852349,2158 C675.718121,2158 678,2160.65625 678,2166.18125 L667.328859,2166.18125 C667.597315,2169.65208 669.275168,2171.45833 671.52349,2171.98958 C673.33557,2172.41458 676.020134,2171.70625 676.85906,2170.04167 L677.42953,2170.36042 C676.892617,2172.20208 674.912752,2175 670.416107,2175 C666.020134,2175 663,2170.71458 663,2166.57083 C663,2161.57708 666.221477,2158 670.852349,2158 Z M692,2167 L681,2167 L681,2164 L692,2164 L692,2167 Z M704.89019,2151 C711.591508,2151 719,2153.11364 719,2163.10227 C719,2173.05682 711.591508,2175 704.89019,2175 L696,2175 L696,2174.42045 C697.448023,2174.42045 698.525622,2172.64773 698.525622,2170.32955 L698.525622,2155.70455 C698.525622,2153.59091 697.481698,2151.57955 696,2151.57955 L696,2151 L704.89019,2151 Z M704.527778,2174 C707.930556,2174 713,2173.2791 713,2162.60299 C713,2151.89254 707.930556,2151 704.527778,2151 L703,2151 L703,2174 L704.527778,2174 Z M731,2171.35484 L731,2167 C728.007634,2167.70968 727,2169.22581 727,2170.87097 C727,2170.87097 727,2173 728.984733,2173 C730.022901,2173 730.725191,2172.12903 731,2171.35484 Z M736.524109,2172.84071 C736.524109,2172.84071 737.228512,2172.84071 737.429769,2172.23894 L738,2172.48673 C737.731656,2173.61947 736.188679,2175 734.075472,2175 C734.075472,2175 731.090147,2175 730.721174,2172.13274 C730.218029,2173.69027 728.238994,2175 725.857442,2175 C725.857442,2175 722,2175 722,2171.38938 C722,2167.53097 724.81761,2167.17699 730.687631,2165.61947 L730.687631,2163.42478 C730.687631,2159.74336 728.742138,2157.90265 726.427673,2159.17699 C725.354298,2159.74336 725.220126,2160.34513 725.454927,2160.38053 C725.958071,2160.45133 726.39413,2160.69912 726.696017,2161.15929 C727.29979,2162.07965 727.06499,2163.31858 726.192872,2163.95575 C725.320755,2164.55752 724.146751,2164.34513 723.542977,2163.42478 C723.140461,2162.75221 723.106918,2161.90265 723.442348,2161.30088 C723.777778,2160.69912 724.213836,2159.74336 726.0587,2158.71681 C727.568134,2157.86726 729.312369,2158.00885 729.312369,2158.00885 C733.706499,2158.00885 734.914046,2160.9115 734.914046,2165.0885 L734.914046,2170.36283 C734.914046,2170.36283 734.880503,2172.84071 736.524109,2172.84071 Z M765,2174.42251 L765,2175 L758.044156,2175 L758.044156,2174.42251 C759.327273,2174.04883 759.394805,2172.58811 759.394805,2170.85563 L759.394805,2164.26539 C759.394805,2162.36306 758.449351,2161.44586 756.92987,2161.44586 C755.680519,2161.44586 754.262338,2162.97452 754.262338,2164.33333 L754.262338,2170.85563 C754.262338,2172.72399 754.431169,2174.11677 755.646753,2174.42251 L755.646753,2175 L748.690909,2175 L748.690909,2174.42251 C749.974026,2174.04883 750.041558,2172.58811 750.041558,2170.85563 L750.041558,2164.26539 C750.041558,2162.36306 749.12987,2161.44586 747.61039,2161.44586 C746.361039,2161.44586 744.909091,2163.00849 744.909091,2164.23142 L744.909091,2170.92357 C744.909091,2172.79193 745.111688,2174.0828 746.293506,2174.42251 L746.293506,2175 L739.371429,2175 L739.371429,2174.42251 C740.654545,2174.04883 740.688312,2172.65605 740.688312,2170.92357 L740.688312,2163.48408 C740.688312,2162.29512 740.384416,2161.68365 739,2160.93631 L739,2160.35881 L744.909091,2159 L744.909091,2162.49894 C745.820779,2160.52866 747.880519,2159 750.007792,2159 C752.371429,2159 753.823377,2160.08705 754.228571,2162.60085 C754.937662,2160.52866 757.233766,2159 759.361039,2159 C761.994805,2159 763.615584,2160.05308 763.615584,2164.16348 L763.615584,2170.85563 C763.615584,2172.72399 763.784416,2174.11677 765,2174.42251 Z M771,2166 L778,2166 C778,2161.52284 776.535714,2159 774.571429,2159 C772.464286,2159 771,2162.58883 771,2166 Z M774.852349,2158 C779.718121,2158 782,2160.65625 782,2166.18125 L771.328859,2166.18125 C771.597315,2169.65208 773.275168,2171.45833 775.52349,2171.98958 C777.33557,2172.41458 780.020134,2171.70625 780.85906,2170.04167 L781.42953,2170.36042 C780.892617,2172.20208 778.912752,2175 774.416107,2175 C770.020134,2175 767,2170.71458 767,2166.57083 C767,2161.57708 770.221477,2158 774.852349,2158 Z M807,2169.79439 L807,2164.8528 C807,2160.43692 804.785714,2159 802.75,2159 C800.142857,2159 799,2160.92757 799,2166.25467 C799,2171.8972 800.178571,2174 803.071429,2174 C805.5,2174 807,2172.24766 807,2169.79439 Z M811.208872,2171.34967 C811.208872,2173.03709 811.560074,2173.45033 813,2173.62252 L813,2174.20795 L807.837338,2174.96556 C806.853974,2175.10331 806.853974,2174.3457 806.853974,2174.3457 L806.853974,2172.2106 C805.730129,2174.24238 803.131238,2175 801.480591,2175 C797.512015,2175 794,2171.9351 794,2166.49404 C794,2160.94967 797.722736,2158.4702 802.639556,2158.4702 C804.255083,2158.4702 805.730129,2158.84901 806.853974,2159.50331 L806.853974,2152.92583 C806.853974,2151.72053 806.502773,2151.37616 805.062847,2150.8596 L805.062847,2150.27417 L811.208872,2149 L811.208872,2171.34967 Z M819,2166 L826,2166 C826,2161.52284 824.535714,2159 822.571429,2159 C820.464286,2159 819,2162.58883 819,2166 Z M821.852349,2158 C826.718121,2158 829,2160.65625 829,2166.18125 L818.328859,2166.18125 C818.597315,2169.65208 820.275168,2171.45833 822.52349,2171.98958 C824.33557,2172.41458 827.020134,2171.70625 827.85906,2170.04167 L828.42953,2170.36042 C827.892617,2172.20208 825.912752,2175 821.416107,2175 C817.020134,2175 814,2170.71458 814,2166.57083 C814,2161.57708 817.221477,2158 821.852349,2158 Z M841,2151 L860,2151 L860,2157.47727 L859.424242,2157.47727 C858.238859,2151.27273 849.060606,2151.57955 849.060606,2151.57955 L847.875223,2151.57955 L847.875223,2162.55682 L849.060606,2162.55682 C849.060606,2162.55682 854.276292,2162.69318 854.885918,2159.04545 L855.461676,2159.04545 L855.461676,2166.71591 L854.885918,2166.71591 C854.276292,2163.06818 849.060606,2163.20455 849.060606,2163.20455 L847.875223,2163.20455 L847.875223,2170.32955 C847.875223,2174.18182 849.331551,2174.42045 850.787879,2174.42045 L850.787879,2175 L841,2175 L841,2174.42045 C842.456328,2174.42045 842.964349,2172.64773 842.964349,2170.32955 L842.964349,2155.70455 C842.964349,2153.59091 842.490196,2151.57955 841,2151.57955 L841,2151 Z M870,2158 C875.142857,2158 878,2161.825 878,2166.5 C878,2171.13958 875.142857,2175 870,2175 C864.890756,2175 862,2171.13958 862,2166.5 C862,2161.825 864.890756,2158 870,2158 Z M870.016575,2174 C872.403315,2174 873,2172.58744 873,2166.5 C873,2160.41256 872.403315,2159 870.016575,2159 C867.629834,2159 867,2160.41256 867,2166.5 C867,2172.58744 867.629834,2174 870.016575,2174 Z M896.258065,2171.42292 C896.258065,2173.12292 896.565465,2173.26458 898,2173.44167 L898,2174.04375 L892.944972,2174.96458 C892.02277,2175.10625 891.988615,2174.29167 891.988615,2174.29167 L891.988615,2171.175 C891.16888,2173.19375 888.333966,2175 886.216319,2175 C883.518027,2175 881.912713,2173.83125 881.912713,2169.58125 L881.912713,2162.00208 C881.912713,2159.87708 881.981025,2159.55833 880,2159.275 L880,2158.67292 L886.148008,2158 L886.148008,2169.475 C886.148008,2171.45833 887.036053,2172.41458 889.017078,2172.41458 C889.973435,2172.41458 891.271347,2171.52917 891.988615,2170.1125 L891.988615,2162.10833 C891.988615,2159.94792 892.125237,2159.4875 890.383302,2159.275 L890.383302,2158.67292 L896.258065,2158 L896.258065,2171.42292 Z M909.279426,2159.16985 C910.01367,2158.86412 911.342304,2159 912.111512,2159.61146 C913.195397,2160.52866 913.300289,2162.15924 912.35626,2163.17834 C911.412232,2164.23142 909.803886,2164.3673 908.685037,2163.45011 C908.160577,2162.97452 907.880864,2162.39703 907.880864,2161.78556 C907.880864,2161.41189 906.447339,2161.75159 905.15367,2163.78981 L905.15367,2170.85563 C905.15367,2172.75796 905.32849,2174.0828 906.587195,2174.42251 L906.587195,2175 L899.34964,2175 L899.34964,2174.42251 C900.713238,2174.01486 900.748202,2172.62208 900.748202,2170.85563 L900.748202,2163.31423 C900.748202,2162.15924 900.433525,2161.64968 899,2160.93631 L899,2160.35881 L905.15367,2159 L905.15367,2162.83864 C907.006763,2160.01911 908.440289,2159.50955 909.279426,2159.16985 Z M925.236994,2159 L932,2159 L932,2159.57749 C931.202312,2159.57749 929.710983,2159.61146 927.491329,2164.84289 L923.364162,2175 L922.809249,2175 C916.67052,2161.95541 916.358382,2161.37792 916.358382,2161.37792 C915.526012,2159.57749 914.624277,2159.57749 914,2159.57749 L914,2159 L922.184971,2159 L922.184971,2159.57749 C920.242775,2159.57749 921.526012,2162.12527 921.526012,2162.12527 L924.959538,2169.32696 L926.867052,2164.70701 C926.867052,2164.70701 929.017341,2159.57749 925.236994,2159.57749 L925.236994,2159 Z M938,2153.5 C938,2154.89706 936.868613,2156 935.481752,2156 C934.094891,2156 933,2154.89706 933,2153.5 C933,2152.10294 934.094891,2151 935.481752,2151 C936.868613,2151 938,2152.10294 938,2153.5 Z M938.671296,2170.85563 C938.671296,2172.75796 938.833333,2174.0828 940,2174.42251 L940,2175 L933.356481,2175 L933.356481,2174.42251 C934.587963,2174.01486 934.652778,2172.58811 934.652778,2170.85563 L934.652778,2163.31423 C934.652778,2162.15924 934.328704,2161.68365 933,2160.93631 L933,2160.35881 L938.671296,2159 L938.671296,2170.85563 Z M947,2166 L954,2166 C954,2161.52284 952.535714,2159 950.571429,2159 C948.464286,2159 947,2162.58883 947,2166 Z M949.852349,2158 C954.718121,2158 957,2160.65625 957,2166.18125 L946.328859,2166.18125 C946.597315,2169.65208 948.275168,2171.45833 950.52349,2171.98958 C952.33557,2172.41458 955.020134,2171.70625 955.85906,2170.04167 L956.42953,2170.36042 C955.892617,2172.20208 953.912752,2175 949.416107,2175 C945.020134,2175 942,2170.71458 942,2166.57083 C942,2161.57708 945.221477,2158 949.852349,2158 Z M948.985765,2150 L955,2156 L953.683274,2156 L945,2151.28834 L948.985765,2150 Z M969.279426,2159.16985 C970.01367,2158.86412 971.342304,2159 972.111512,2159.61146 C973.195397,2160.52866 973.300289,2162.15924 972.35626,2163.17834 C971.412232,2164.23142 969.803886,2164.3673 968.685037,2163.45011 C968.160577,2162.97452 967.880864,2162.39703 967.880864,2161.78556 C967.880864,2161.41189 966.447339,2161.75159 965.15367,2163.78981 L965.15367,2170.85563 C965.15367,2172.75796 965.32849,2174.0828 966.587195,2174.42251 L966.587195,2175 L959.34964,2175 L959.34964,2174.42251 C960.713238,2174.01486 960.748202,2172.62208 960.748202,2170.85563 L960.748202,2163.31423 C960.748202,2162.15924 960.433525,2161.64968 959,2160.93631 L959,2160.35881 L965.15367,2159 L965.15367,2162.83864 C967.006763,2160.01911 968.440289,2159.50955 969.279426,2159.16985 Z M979,2166 L986,2166 C986,2161.52284 984.535714,2159 982.571429,2159 C980.464286,2159 979,2162.58883 979,2166 Z M982.852349,2158 C987.718121,2158 990,2160.65625 990,2166.18125 L979.328859,2166.18125 C979.597315,2169.65208 981.275168,2171.45833 983.52349,2171.98958 C985.33557,2172.41458 988.020134,2171.70625 988.85906,2170.04167 L989.42953,2170.36042 C988.892617,2172.20208 986.912752,2175 982.416107,2175 C978.020134,2175 975,2170.71458 975,2166.57083 C975,2161.57708 978.221477,2158 982.852349,2158 Z" transform="translate(-450 -2149)"/>
</svg>
